<?xml version="1.0" standalone="no"?>
 <!DOCTYPE svg PUBLIC "-//W3C//DTD SVG 1.1//EN" 
 "http://www.w3.org/Graphics/SVG/1.1/DTD/svg11.dtd"> 
<svg
  xmlns:svg="http://www.w3.org/2000/svg"
  xmlns="http://www.w3.org/2000/svg"
  xmlns:xlink="http://www.w3.org/1999/xlink"
  version="1.1"
  width="29.700220cm" height="21.000720cm" viewBox="0 0 116930 82680">
<title>SVG Picture created as JLink_6Pin_SWD_Adaptor.svg date 2020/11/28 12:29:34 </title>
  <desc>Picture generated by Eeschema-SVG </desc>
<g style="fill:#000000; fill-opacity:1;stroke:#000000; stroke-opacity:1;
stroke-linecap:round; stroke-linejoin:round;"
 transform="translate(0 0) scale(1 1)">
</g>
<g style="fill:#000000; fill-opacity:0.0; 
stroke:#000000; stroke-width:-10; stroke-opacity:1; 
stroke-linecap:round; stroke-linejoin:round;">
</g>
<g style="fill:#840000; fill-opacity:0.0; 
stroke:#840000; stroke-width:-10; stroke-opacity:1; 
stroke-linecap:round; stroke-linejoin:round;">
</g>
<g style="fill:#840000; fill-opacity:0.0; 
stroke:#840000; stroke-width:100; stroke-opacity:1; 
stroke-linecap:round; stroke-linejoin:round;">
</g>
<g style="fill:#840000; fill-opacity:0.0; 
stroke:#840000; stroke-width:60; stroke-opacity:1; 
stroke-linecap:round; stroke-linejoin:round;">
<rect x="69690" y="65360" width="42520" height="12600" rx="0" />
</g>
<g style="fill:#840000; fill-opacity:0.0; 
stroke:#840000; stroke-width:100; stroke-opacity:1; 
stroke-linecap:round; stroke-linejoin:round;">
</g>
<g style="fill:#840000; fill-opacity:0.0; 
stroke:#840000; stroke-width:60; stroke-opacity:1; 
stroke-linecap:round; stroke-linejoin:round;">
<rect x="3940" y="3940" width="109050" height="74800" rx="0" />
</g>
<g style="fill:#840000; fill-opacity:0.0; 
stroke:#840000; stroke-width:100; stroke-opacity:1; 
stroke-linecap:round; stroke-linejoin:round;">
</g>
<g style="fill:#840000; fill-opacity:0.0; 
stroke:#840000; stroke-width:60; stroke-opacity:1; 
stroke-linecap:round; stroke-linejoin:round;">
<rect x="4720" y="4720" width="107490" height="73240" rx="0" />
</g>
<g style="fill:#840000; fill-opacity:0.0; 
stroke:#840000; stroke-width:100; stroke-opacity:1; 
stroke-linecap:round; stroke-linejoin:round;">
</g>
<g style="fill:#840000; fill-opacity:0.0; 
stroke:#840000; stroke-width:60; stroke-opacity:1; 
stroke-linecap:round; stroke-linejoin:round;">
<path d="M23620 4720
L23620 3940
" />
</g>
<g style="fill:#840000; fill-opacity:0.0; 
stroke:#840000; stroke-width:100; stroke-opacity:1; 
stroke-linecap:round; stroke-linejoin:round;">
</g>
<g style="fill:#840000; fill-opacity:0.0; 
stroke:#840000; stroke-width:60; stroke-opacity:1; 
stroke-linecap:round; stroke-linejoin:round;">
<path d="M43310 4720
L43310 3940
" />
</g>
<g style="fill:#840000; fill-opacity:0.0; 
stroke:#840000; stroke-width:100; stroke-opacity:1; 
stroke-linecap:round; stroke-linejoin:round;">
</g>
<g style="fill:#840000; fill-opacity:0.0; 
stroke:#840000; stroke-width:60; stroke-opacity:1; 
stroke-linecap:round; stroke-linejoin:round;">
<path d="M62990 4720
L62990 3940
" />
</g>
<g style="fill:#840000; fill-opacity:0.0; 
stroke:#840000; stroke-width:100; stroke-opacity:1; 
stroke-linecap:round; stroke-linejoin:round;">
</g>
<g style="fill:#840000; fill-opacity:0.0; 
stroke:#840000; stroke-width:60; stroke-opacity:1; 
stroke-linecap:round; stroke-linejoin:round;">
<path d="M82680 4720
L82680 3940
" />
</g>
<g style="fill:#840000; fill-opacity:0.0; 
stroke:#840000; stroke-width:100; stroke-opacity:1; 
stroke-linecap:round; stroke-linejoin:round;">
</g>
<g style="fill:#840000; fill-opacity:0.0; 
stroke:#840000; stroke-width:60; stroke-opacity:1; 
stroke-linecap:round; stroke-linejoin:round;">
<path d="M102360 4720
L102360 3940
" />
</g>
<g style="fill:#840000; fill-opacity:0.0; 
stroke:#840000; stroke-width:100; stroke-opacity:1; 
stroke-linecap:round; stroke-linejoin:round;">
</g>
<g style="fill:#840000; fill-opacity:0.0; 
stroke:#840000; stroke-width:60; stroke-opacity:1; 
stroke-linecap:round; stroke-linejoin:round;">
<text x="13780" y="4580"
textLength="550" font-size="680" lengthAdjust="spacingAndGlyphs"
text-anchor="start" opacity="0">1</text>
<path d="M14190 4560
L13900 4560
" />
<path d="M14050 4560
L14050 4050
L14000 4120
L13950 4170
L13900 4190
" />
</g>
<g style="fill:#840000; fill-opacity:0.0; 
stroke:#840000; stroke-width:100; stroke-opacity:1; 
stroke-linecap:round; stroke-linejoin:round;">
</g>
<g style="fill:#840000; fill-opacity:0.0; 
stroke:#840000; stroke-width:60; stroke-opacity:1; 
stroke-linecap:round; stroke-linejoin:round;">
<text x="33460" y="4580"
textLength="550" font-size="680" lengthAdjust="spacingAndGlyphs"
text-anchor="start" opacity="0">2</text>
<path d="M33580 4090
L33610 4070
L33660 4050
L33780 4050
L33830 4070
L33850 4090
L33870 4140
L33870 4190
L33850 4260
L33560 4560
L33870 4560
" />
</g>
<g style="fill:#840000; fill-opacity:0.0; 
stroke:#840000; stroke-width:100; stroke-opacity:1; 
stroke-linecap:round; stroke-linejoin:round;">
</g>
<g style="fill:#840000; fill-opacity:0.0; 
stroke:#840000; stroke-width:60; stroke-opacity:1; 
stroke-linecap:round; stroke-linejoin:round;">
<text x="53150" y="4580"
textLength="550" font-size="680" lengthAdjust="spacingAndGlyphs"
text-anchor="start" opacity="0">3</text>
<path d="M53250 4050
L53560 4050
L53390 4240
L53470 4240
L53520 4260
L53540 4290
L53560 4340
L53560 4460
L53540 4510
L53520 4530
L53470 4560
L53320 4560
L53270 4530
L53250 4510
" />
</g>
<g style="fill:#840000; fill-opacity:0.0; 
stroke:#840000; stroke-width:100; stroke-opacity:1; 
stroke-linecap:round; stroke-linejoin:round;">
</g>
<g style="fill:#840000; fill-opacity:0.0; 
stroke:#840000; stroke-width:60; stroke-opacity:1; 
stroke-linecap:round; stroke-linejoin:round;">
<text x="72830" y="4580"
textLength="550" font-size="680" lengthAdjust="spacingAndGlyphs"
text-anchor="start" opacity="0">4</text>
<path d="M73200 4220
L73200 4560
" />
<path d="M73070 4020
L72950 4390
L73270 4390
" />
</g>
<g style="fill:#840000; fill-opacity:0.0; 
stroke:#840000; stroke-width:100; stroke-opacity:1; 
stroke-linecap:round; stroke-linejoin:round;">
</g>
<g style="fill:#840000; fill-opacity:0.0; 
stroke:#840000; stroke-width:60; stroke-opacity:1; 
stroke-linecap:round; stroke-linejoin:round;">
<text x="92520" y="4580"
textLength="550" font-size="680" lengthAdjust="spacingAndGlyphs"
text-anchor="start" opacity="0">5</text>
<path d="M92910 4050
L92670 4050
L92640 4290
L92670 4260
L92720 4240
L92840 4240
L92890 4260
L92910 4290
L92930 4340
L92930 4460
L92910 4510
L92890 4530
L92840 4560
L92720 4560
L92670 4530
L92640 4510
" />
</g>
<g style="fill:#840000; fill-opacity:0.0; 
stroke:#840000; stroke-width:100; stroke-opacity:1; 
stroke-linecap:round; stroke-linejoin:round;">
</g>
<g style="fill:#840000; fill-opacity:0.0; 
stroke:#840000; stroke-width:60; stroke-opacity:1; 
stroke-linecap:round; stroke-linejoin:round;">
<text x="112200" y="4580"
textLength="550" font-size="680" lengthAdjust="spacingAndGlyphs"
text-anchor="start" opacity="0">6</text>
<path d="M112570 4050
L112470 4050
L112420 4070
L112400 4090
L112350 4170
L112320 4260
L112320 4460
L112350 4510
L112370 4530
L112420 4560
L112520 4560
L112570 4530
L112590 4510
L112610 4460
L112610 4340
L112590 4290
L112570 4260
L112520 4240
L112420 4240
L112370 4260
L112350 4290
L112320 4340
" />
</g>
<g style="fill:#840000; fill-opacity:0.0; 
stroke:#840000; stroke-width:100; stroke-opacity:1; 
stroke-linecap:round; stroke-linejoin:round;">
</g>
<g style="fill:#840000; fill-opacity:0.0; 
stroke:#840000; stroke-width:60; stroke-opacity:1; 
stroke-linecap:round; stroke-linejoin:round;">
<path d="M23620 77960
L23620 78740
" />
</g>
<g style="fill:#840000; fill-opacity:0.0; 
stroke:#840000; stroke-width:100; stroke-opacity:1; 
stroke-linecap:round; stroke-linejoin:round;">
</g>
<g style="fill:#840000; fill-opacity:0.0; 
stroke:#840000; stroke-width:60; stroke-opacity:1; 
stroke-linecap:round; stroke-linejoin:round;">
<path d="M43310 77960
L43310 78740
" />
</g>
<g style="fill:#840000; fill-opacity:0.0; 
stroke:#840000; stroke-width:100; stroke-opacity:1; 
stroke-linecap:round; stroke-linejoin:round;">
</g>
<g style="fill:#840000; fill-opacity:0.0; 
stroke:#840000; stroke-width:60; stroke-opacity:1; 
stroke-linecap:round; stroke-linejoin:round;">
<path d="M62990 77960
L62990 78740
" />
</g>
<g style="fill:#840000; fill-opacity:0.0; 
stroke:#840000; stroke-width:100; stroke-opacity:1; 
stroke-linecap:round; stroke-linejoin:round;">
</g>
<g style="fill:#840000; fill-opacity:0.0; 
stroke:#840000; stroke-width:60; stroke-opacity:1; 
stroke-linecap:round; stroke-linejoin:round;">
<path d="M82680 77960
L82680 78740
" />
</g>
<g style="fill:#840000; fill-opacity:0.0; 
stroke:#840000; stroke-width:100; stroke-opacity:1; 
stroke-linecap:round; stroke-linejoin:round;">
</g>
<g style="fill:#840000; fill-opacity:0.0; 
stroke:#840000; stroke-width:60; stroke-opacity:1; 
stroke-linecap:round; stroke-linejoin:round;">
<path d="M102360 77960
L102360 78740
" />
</g>
<g style="fill:#840000; fill-opacity:0.0; 
stroke:#840000; stroke-width:100; stroke-opacity:1; 
stroke-linecap:round; stroke-linejoin:round;">
</g>
<g style="fill:#840000; fill-opacity:0.0; 
stroke:#840000; stroke-width:60; stroke-opacity:1; 
stroke-linecap:round; stroke-linejoin:round;">
<text x="13780" y="78600"
textLength="550" font-size="680" lengthAdjust="spacingAndGlyphs"
text-anchor="start" opacity="0">1</text>
<path d="M14190 78580
L13900 78580
" />
<path d="M14050 78580
L14050 78070
L14000 78140
L13950 78190
L13900 78210
" />
</g>
<g style="fill:#840000; fill-opacity:0.0; 
stroke:#840000; stroke-width:100; stroke-opacity:1; 
stroke-linecap:round; stroke-linejoin:round;">
</g>
<g style="fill:#840000; fill-opacity:0.0; 
stroke:#840000; stroke-width:60; stroke-opacity:1; 
stroke-linecap:round; stroke-linejoin:round;">
<text x="33460" y="78600"
textLength="550" font-size="680" lengthAdjust="spacingAndGlyphs"
text-anchor="start" opacity="0">2</text>
<path d="M33580 78110
L33610 78090
L33660 78070
L33780 78070
L33830 78090
L33850 78110
L33870 78160
L33870 78210
L33850 78280
L33560 78580
L33870 78580
" />
</g>
<g style="fill:#840000; fill-opacity:0.0; 
stroke:#840000; stroke-width:100; stroke-opacity:1; 
stroke-linecap:round; stroke-linejoin:round;">
</g>
<g style="fill:#840000; fill-opacity:0.0; 
stroke:#840000; stroke-width:60; stroke-opacity:1; 
stroke-linecap:round; stroke-linejoin:round;">
<text x="53150" y="78600"
textLength="550" font-size="680" lengthAdjust="spacingAndGlyphs"
text-anchor="start" opacity="0">3</text>
<path d="M53250 78070
L53560 78070
L53390 78260
L53470 78260
L53520 78280
L53540 78310
L53560 78360
L53560 78480
L53540 78530
L53520 78550
L53470 78580
L53320 78580
L53270 78550
L53250 78530
" />
</g>
<g style="fill:#840000; fill-opacity:0.0; 
stroke:#840000; stroke-width:100; stroke-opacity:1; 
stroke-linecap:round; stroke-linejoin:round;">
</g>
<g style="fill:#840000; fill-opacity:0.0; 
stroke:#840000; stroke-width:60; stroke-opacity:1; 
stroke-linecap:round; stroke-linejoin:round;">
<text x="72830" y="78600"
textLength="550" font-size="680" lengthAdjust="spacingAndGlyphs"
text-anchor="start" opacity="0">4</text>
<path d="M73200 78240
L73200 78580
" />
<path d="M73070 78040
L72950 78410
L73270 78410
" />
</g>
<g style="fill:#840000; fill-opacity:0.0; 
stroke:#840000; stroke-width:100; stroke-opacity:1; 
stroke-linecap:round; stroke-linejoin:round;">
</g>
<g style="fill:#840000; fill-opacity:0.0; 
stroke:#840000; stroke-width:60; stroke-opacity:1; 
stroke-linecap:round; stroke-linejoin:round;">
<text x="92520" y="78600"
textLength="550" font-size="680" lengthAdjust="spacingAndGlyphs"
text-anchor="start" opacity="0">5</text>
<path d="M92910 78070
L92670 78070
L92640 78310
L92670 78280
L92720 78260
L92840 78260
L92890 78280
L92910 78310
L92930 78360
L92930 78480
L92910 78530
L92890 78550
L92840 78580
L92720 78580
L92670 78550
L92640 78530
" />
</g>
<g style="fill:#840000; fill-opacity:0.0; 
stroke:#840000; stroke-width:100; stroke-opacity:1; 
stroke-linecap:round; stroke-linejoin:round;">
</g>
<g style="fill:#840000; fill-opacity:0.0; 
stroke:#840000; stroke-width:60; stroke-opacity:1; 
stroke-linecap:round; stroke-linejoin:round;">
<text x="112200" y="78600"
textLength="550" font-size="680" lengthAdjust="spacingAndGlyphs"
text-anchor="start" opacity="0">6</text>
<path d="M112570 78070
L112470 78070
L112420 78090
L112400 78110
L112350 78190
L112320 78280
L112320 78480
L112350 78530
L112370 78550
L112420 78580
L112520 78580
L112570 78550
L112590 78530
L112610 78480
L112610 78360
L112590 78310
L112570 78280
L112520 78260
L112420 78260
L112370 78280
L112350 78310
L112320 78360
" />
</g>
<g style="fill:#840000; fill-opacity:0.0; 
stroke:#840000; stroke-width:100; stroke-opacity:1; 
stroke-linecap:round; stroke-linejoin:round;">
</g>
<g style="fill:#840000; fill-opacity:0.0; 
stroke:#840000; stroke-width:60; stroke-opacity:1; 
stroke-linecap:round; stroke-linejoin:round;">
<path d="M3940 23620
L4720 23620
" />
</g>
<g style="fill:#840000; fill-opacity:0.0; 
stroke:#840000; stroke-width:100; stroke-opacity:1; 
stroke-linecap:round; stroke-linejoin:round;">
</g>
<g style="fill:#840000; fill-opacity:0.0; 
stroke:#840000; stroke-width:60; stroke-opacity:1; 
stroke-linecap:round; stroke-linejoin:round;">
<path d="M3940 43310
L4720 43310
" />
</g>
<g style="fill:#840000; fill-opacity:0.0; 
stroke:#840000; stroke-width:100; stroke-opacity:1; 
stroke-linecap:round; stroke-linejoin:round;">
</g>
<g style="fill:#840000; fill-opacity:0.0; 
stroke:#840000; stroke-width:60; stroke-opacity:1; 
stroke-linecap:round; stroke-linejoin:round;">
<path d="M3940 62990
L4720 62990
" />
</g>
<g style="fill:#840000; fill-opacity:0.0; 
stroke:#840000; stroke-width:100; stroke-opacity:1; 
stroke-linecap:round; stroke-linejoin:round;">
</g>
<g style="fill:#840000; fill-opacity:0.0; 
stroke:#840000; stroke-width:60; stroke-opacity:1; 
stroke-linecap:round; stroke-linejoin:round;">
<text x="4330" y="14030"
textLength="500" font-size="680" lengthAdjust="spacingAndGlyphs"
text-anchor="middle" opacity="0">A</text>
<path d="M4200 13860
L4450 13860
" />
<path d="M4160 14010
L4330 13500
L4500 14010
" />
</g>
<g style="fill:#840000; fill-opacity:0.0; 
stroke:#840000; stroke-width:100; stroke-opacity:1; 
stroke-linecap:round; stroke-linejoin:round;">
</g>
<g style="fill:#840000; fill-opacity:0.0; 
stroke:#840000; stroke-width:60; stroke-opacity:1; 
stroke-linecap:round; stroke-linejoin:round;">
<text x="4330" y="33710"
textLength="570" font-size="680" lengthAdjust="spacingAndGlyphs"
text-anchor="middle" opacity="0">B</text>
<path d="M4360 33420
L4430 33440
L4460 33470
L4480 33520
L4480 33590
L4460 33640
L4430 33660
L4390 33690
L4190 33690
L4190 33180
L4360 33180
L4410 33200
L4430 33220
L4460 33270
L4460 33320
L4430 33370
L4410 33390
L4360 33420
L4190 33420
" />
</g>
<g style="fill:#840000; fill-opacity:0.0; 
stroke:#840000; stroke-width:100; stroke-opacity:1; 
stroke-linecap:round; stroke-linejoin:round;">
</g>
<g style="fill:#840000; fill-opacity:0.0; 
stroke:#840000; stroke-width:60; stroke-opacity:1; 
stroke-linecap:round; stroke-linejoin:round;">
<text x="4330" y="53400"
textLength="570" font-size="680" lengthAdjust="spacingAndGlyphs"
text-anchor="middle" opacity="0">C</text>
<path d="M4480 53330
L4460 53350
L4390 53380
L4340 53380
L4260 53350
L4220 53300
L4190 53250
L4170 53160
L4170 53080
L4190 52990
L4220 52940
L4260 52890
L4340 52870
L4390 52870
L4460 52890
L4480 52910
" />
</g>
<g style="fill:#840000; fill-opacity:0.0; 
stroke:#840000; stroke-width:100; stroke-opacity:1; 
stroke-linecap:round; stroke-linejoin:round;">
</g>
<g style="fill:#840000; fill-opacity:0.0; 
stroke:#840000; stroke-width:60; stroke-opacity:1; 
stroke-linecap:round; stroke-linejoin:round;">
<text x="4330" y="73080"
textLength="570" font-size="680" lengthAdjust="spacingAndGlyphs"
text-anchor="middle" opacity="0">D</text>
<path d="M4190 73060
L4190 72550
L4310 72550
L4390 72570
L4430 72620
L4460 72670
L4480 72760
L4480 72840
L4460 72930
L4430 72980
L4390 73030
L4310 73060
L4190 73060
" />
</g>
<g style="fill:#840000; fill-opacity:0.0; 
stroke:#840000; stroke-width:100; stroke-opacity:1; 
stroke-linecap:round; stroke-linejoin:round;">
</g>
<g style="fill:#840000; fill-opacity:0.0; 
stroke:#840000; stroke-width:60; stroke-opacity:1; 
stroke-linecap:round; stroke-linejoin:round;">
<path d="M112990 23620
L112210 23620
" />
</g>
<g style="fill:#840000; fill-opacity:0.0; 
stroke:#840000; stroke-width:100; stroke-opacity:1; 
stroke-linecap:round; stroke-linejoin:round;">
</g>
<g style="fill:#840000; fill-opacity:0.0; 
stroke:#840000; stroke-width:60; stroke-opacity:1; 
stroke-linecap:round; stroke-linejoin:round;">
<path d="M112990 43310
L112210 43310
" />
</g>
<g style="fill:#840000; fill-opacity:0.0; 
stroke:#840000; stroke-width:100; stroke-opacity:1; 
stroke-linecap:round; stroke-linejoin:round;">
</g>
<g style="fill:#840000; fill-opacity:0.0; 
stroke:#840000; stroke-width:60; stroke-opacity:1; 
stroke-linecap:round; stroke-linejoin:round;">
<path d="M112990 62990
L112210 62990
" />
</g>
<g style="fill:#840000; fill-opacity:0.0; 
stroke:#840000; stroke-width:100; stroke-opacity:1; 
stroke-linecap:round; stroke-linejoin:round;">
</g>
<g style="fill:#840000; fill-opacity:0.0; 
stroke:#840000; stroke-width:60; stroke-opacity:1; 
stroke-linecap:round; stroke-linejoin:round;">
<text x="112600" y="14030"
textLength="500" font-size="680" lengthAdjust="spacingAndGlyphs"
text-anchor="middle" opacity="0">A</text>
<path d="M112470 13860
L112720 13860
" />
<path d="M112430 14010
L112600 13500
L112770 14010
" />
</g>
<g style="fill:#840000; fill-opacity:0.0; 
stroke:#840000; stroke-width:100; stroke-opacity:1; 
stroke-linecap:round; stroke-linejoin:round;">
</g>
<g style="fill:#840000; fill-opacity:0.0; 
stroke:#840000; stroke-width:60; stroke-opacity:1; 
stroke-linecap:round; stroke-linejoin:round;">
<text x="112600" y="33710"
textLength="570" font-size="680" lengthAdjust="spacingAndGlyphs"
text-anchor="middle" opacity="0">B</text>
<path d="M112630 33420
L112700 33440
L112730 33470
L112750 33520
L112750 33590
L112730 33640
L112700 33660
L112660 33690
L112460 33690
L112460 33180
L112630 33180
L112680 33200
L112700 33220
L112730 33270
L112730 33320
L112700 33370
L112680 33390
L112630 33420
L112460 33420
" />
</g>
<g style="fill:#840000; fill-opacity:0.0; 
stroke:#840000; stroke-width:100; stroke-opacity:1; 
stroke-linecap:round; stroke-linejoin:round;">
</g>
<g style="fill:#840000; fill-opacity:0.0; 
stroke:#840000; stroke-width:60; stroke-opacity:1; 
stroke-linecap:round; stroke-linejoin:round;">
<text x="112600" y="53400"
textLength="570" font-size="680" lengthAdjust="spacingAndGlyphs"
text-anchor="middle" opacity="0">C</text>
<path d="M112750 53330
L112730 53350
L112660 53380
L112610 53380
L112530 53350
L112490 53300
L112460 53250
L112440 53160
L112440 53080
L112460 52990
L112490 52940
L112530 52890
L112610 52870
L112660 52870
L112730 52890
L112750 52910
" />
</g>
<g style="fill:#840000; fill-opacity:0.0; 
stroke:#840000; stroke-width:100; stroke-opacity:1; 
stroke-linecap:round; stroke-linejoin:round;">
</g>
<g style="fill:#840000; fill-opacity:0.0; 
stroke:#840000; stroke-width:60; stroke-opacity:1; 
stroke-linecap:round; stroke-linejoin:round;">
<text x="112600" y="73080"
textLength="570" font-size="680" lengthAdjust="spacingAndGlyphs"
text-anchor="middle" opacity="0">D</text>
<path d="M112460 73060
L112460 72550
L112580 72550
L112660 72570
L112700 72620
L112730 72670
L112750 72760
L112750 72840
L112730 72930
L112700 72980
L112660 73030
L112580 73060
L112460 73060
" />
</g>
<g style="fill:#840000; fill-opacity:0.0; 
stroke:#840000; stroke-width:100; stroke-opacity:1; 
stroke-linecap:round; stroke-linejoin:round;">
</g>
<g style="fill:#840000; fill-opacity:0.0; 
stroke:#840000; stroke-width:60; stroke-opacity:1; 
stroke-linecap:round; stroke-linejoin:round;">
<text x="78740" y="76320"
textLength="2760" font-size="780" lengthAdjust="spacingAndGlyphs"
text-anchor="start" opacity="0">Date: </text>
<path d="M78910 76290
L78910 75700
L79050 75700
L79130 75730
L79190 75790
L79210 75840
L79240 75950
L79240 76040
L79210 76150
L79190 76210
L79130 76260
L79050 76290
L78910 76290
" />
<path d="M79750 76290
L79750 75980
L79720 75930
L79660 75900
L79550 75900
L79500 75930
" />
<path d="M79750 76260
L79690 76290
L79550 76290
L79500 76260
L79470 76210
L79470 76150
L79500 76100
L79550 76070
L79690 76070
L79750 76040
" />
<path d="M79950 75900
L80170 75900
" />
<path d="M80030 75700
L80030 76210
L80060 76260
L80110 76290
L80170 76290
" />
<path d="M80590 76260
L80540 76290
L80420 76290
L80370 76260
L80340 76210
L80340 75980
L80370 75930
L80420 75900
L80540 75900
L80590 75930
L80620 75980
L80620 76040
L80340 76100
" />
<path d="M80870 76240
L80900 76260
L80870 76290
L80840 76260
L80870 76240
L80870 76290
" />
<path d="M80870 75930
L80900 75950
L80870 75980
L80840 75950
L80870 75930
L80870 75980
" />
</g>
<g style="fill:#840000; fill-opacity:0.0; 
stroke:#840000; stroke-width:100; stroke-opacity:1; 
stroke-linecap:round; stroke-linejoin:round;">
</g>
<g style="fill:#840000; fill-opacity:0.0; 
stroke:#840000; stroke-width:60; stroke-opacity:1; 
stroke-linecap:round; stroke-linejoin:round;">
<path d="M69690 76580
L112210 76580
" />
</g>
<g style="fill:#840000; fill-opacity:0.0; 
stroke:#840000; stroke-width:100; stroke-opacity:1; 
stroke-linecap:round; stroke-linejoin:round;">
</g>
<g style="fill:#840000; fill-opacity:0.0; 
stroke:#840000; stroke-width:60; stroke-opacity:1; 
stroke-linecap:round; stroke-linejoin:round;">
<text x="70080" y="77420"
textLength="24670" font-size="780" lengthAdjust="spacingAndGlyphs"
text-anchor="start" opacity="0">KiCad E.D.A.  kicad 5.1.8-db9833491~87~ubuntu18.04.1</text>
<path d="M70250 77390
L70250 76800
" />
<path d="M70580 77390
L70330 77050
" />
<path d="M70580 76800
L70250 77140
" />
<path d="M70840 77390
L70840 77000
" />
<path d="M70840 76800
L70810 76830
L70840 76860
L70860 76830
L70840 76800
L70840 76860
" />
<path d="M71450 77340
L71430 77360
L71340 77390
L71290 77390
L71200 77360
L71140 77310
L71120 77250
L71090 77140
L71090 77050
L71120 76940
L71140 76890
L71200 76830
L71290 76800
L71340 76800
L71430 76830
L71450 76860
" />
<path d="M71960 77390
L71960 77080
L71930 77030
L71880 77000
L71760 77000
L71710 77030
" />
<path d="M71960 77360
L71900 77390
L71760 77390
L71710 77360
L71680 77310
L71680 77250
L71710 77200
L71760 77170
L71900 77170
L71960 77140
" />
<path d="M72490 77390
L72490 76800
" />
<path d="M72490 77360
L72440 77390
L72320 77390
L72270 77360
L72240 77340
L72210 77280
L72210 77110
L72240 77050
L72270 77030
L72320 77000
L72440 77000
L72490 77030
" />
<path d="M73220 77080
L73420 77080
" />
<path d="M73500 77390
L73220 77390
L73220 76800
L73500 76800
" />
<path d="M73760 77340
L73790 77360
L73760 77390
L73730 77360
L73760 77340
L73760 77390
" />
<path d="M74040 77390
L74040 76800
L74180 76800
L74260 76830
L74320 76890
L74350 76940
L74380 77050
L74380 77140
L74350 77250
L74320 77310
L74260 77360
L74180 77390
L74040 77390
" />
<path d="M74630 77340
L74660 77360
L74630 77390
L74600 77360
L74630 77340
L74630 77390
" />
<path d="M74880 77220
L75160 77220
" />
<path d="M74830 77390
L75020 76800
L75220 77390
" />
<path d="M75420 77340
L75440 77360
L75420 77390
L75390 77360
L75420 77340
L75420 77390
" />
<path d="M76600 77390
L76600 76800
" />
<path d="M76650 77170
L76820 77390
" />
<path d="M76820 77000
L76600 77220
" />
<path d="M77070 77390
L77070 77000
" />
<path d="M77070 76800
L77040 76830
L77070 76860
L77100 76830
L77070 76800
L77070 76860
" />
<path d="M77610 77360
L77550 77390
L77440 77390
L77380 77360
L77350 77340
L77330 77280
L77330 77110
L77350 77050
L77380 77030
L77440 77000
L77550 77000
L77610 77030
" />
<path d="M78110 77390
L78110 77080
L78080 77030
L78030 77000
L77920 77000
L77860 77030
" />
<path d="M78110 77360
L78060 77390
L77920 77390
L77860 77360
L77830 77310
L77830 77250
L77860 77200
L77920 77170
L78060 77170
L78110 77140
" />
<path d="M78650 77390
L78650 76800
" />
<path d="M78650 77360
L78590 77390
L78480 77390
L78420 77360
L78390 77340
L78370 77280
L78370 77110
L78390 77050
L78420 77030
L78480 77000
L78590 77000
L78650 77030
" />
<path d="M79660 76800
L79380 76800
L79350 77080
L79380 77050
L79430 77030
L79570 77030
L79630 77050
L79660 77080
L79690 77140
L79690 77280
L79660 77340
L79630 77360
L79570 77390
L79430 77390
L79380 77360
L79350 77340
" />
<path d="M79940 77340
L79970 77360
L79940 77390
L79910 77360
L79940 77340
L79940 77390
" />
<path d="M80530 77390
L80190 77390
" />
<path d="M80360 77390
L80360 76800
L80300 76890
L80250 76940
L80190 76970
" />
<path d="M80780 77340
L80810 77360
L80780 77390
L80750 77360
L80780 77340
L80780 77390
" />
<path d="M81150 77050
L81090 77030
L81060 77000
L81030 76940
L81030 76910
L81060 76860
L81090 76830
L81150 76800
L81260 76800
L81320 76830
L81340 76860
L81370 76910
L81370 76940
L81340 77000
L81320 77030
L81260 77050
L81150 77050
L81090 77080
L81060 77110
L81030 77170
L81030 77280
L81060 77340
L81090 77360
L81150 77390
L81260 77390
L81320 77360
L81340 77340
L81370 77280
L81370 77170
L81340 77110
L81320 77080
L81260 77050
" />
<path d="M81620 77170
L82070 77170
" />
<path d="M82610 77390
L82610 76800
" />
<path d="M82610 77360
L82550 77390
L82440 77390
L82380 77360
L82350 77340
L82330 77280
L82330 77110
L82350 77050
L82380 77030
L82440 77000
L82550 77000
L82610 77030
" />
<path d="M82890 77390
L82890 76800
" />
<path d="M82890 77030
L82940 77000
L83060 77000
L83110 77030
L83140 77050
L83170 77110
L83170 77280
L83140 77340
L83110 77360
L83060 77390
L82940 77390
L82890 77360
" />
<path d="M83450 77390
L83560 77390
L83620 77360
L83650 77340
L83700 77250
L83730 77140
L83730 76910
L83700 76860
L83680 76830
L83620 76800
L83510 76800
L83450 76830
L83420 76860
L83390 76910
L83390 77050
L83420 77110
L83450 77140
L83510 77170
L83620 77170
L83680 77140
L83700 77110
L83730 77050
" />
<path d="M84070 77050
L84010 77030
L83980 77000
L83960 76940
L83960 76910
L83980 76860
L84010 76830
L84070 76800
L84180 76800
L84240 76830
L84270 76860
L84290 76910
L84290 76940
L84270 77000
L84240 77030
L84180 77050
L84070 77050
L84010 77080
L83980 77110
L83960 77170
L83960 77280
L83980 77340
L84010 77360
L84070 77390
L84180 77390
L84240 77360
L84270 77340
L84290 77280
L84290 77170
L84270 77110
L84240 77080
L84180 77050
" />
<path d="M84490 76800
L84860 76800
L84660 77030
L84740 77030
L84800 77050
L84830 77080
L84860 77140
L84860 77280
L84830 77340
L84800 77360
L84740 77390
L84570 77390
L84520 77360
L84490 77340
" />
<path d="M85050 76800
L85420 76800
L85220 77030
L85300 77030
L85360 77050
L85390 77080
L85420 77140
L85420 77280
L85390 77340
L85360 77360
L85300 77390
L85140 77390
L85080 77360
L85050 77340
" />
<path d="M85920 77000
L85920 77390
" />
<path d="M85780 76770
L85640 77200
L86010 77200
" />
<path d="M86260 77390
L86370 77390
L86430 77360
L86460 77340
L86510 77250
L86540 77140
L86540 76910
L86510 76860
L86480 76830
L86430 76800
L86320 76800
L86260 76830
L86230 76860
L86200 76910
L86200 77050
L86230 77110
L86260 77140
L86320 77170
L86430 77170
L86480 77140
L86510 77110
L86540 77050
" />
<path d="M87100 77390
L86770 77390
" />
<path d="M86930 77390
L86930 76800
L86880 76890
L86820 76940
L86770 76970
" />
<path d="M87220 76640
L87780 76640
" />
<path d="M87440 77050
L87380 77030
L87360 77000
L87330 76940
L87330 76910
L87360 76860
L87380 76830
L87440 76800
L87550 76800
L87610 76830
L87640 76860
L87660 76910
L87660 76940
L87640 77000
L87610 77030
L87550 77050
L87440 77050
L87380 77080
L87360 77110
L87330 77170
L87330 77280
L87360 77340
L87380 77360
L87440 77390
L87550 77390
L87610 77360
L87640 77340
L87660 77280
L87660 77170
L87640 77110
L87610 77080
L87550 77050
" />
<path d="M87780 76640
L88340 76640
" />
<path d="M87860 76800
L88250 76800
L88000 77390
" />
<path d="M88730 77000
L88730 77390
" />
<path d="M88480 77000
L88480 77310
L88510 77360
L88560 77390
L88650 77390
L88700 77360
L88730 77340
" />
<path d="M89010 77390
L89010 76800
" />
<path d="M89010 77030
L89070 77000
L89180 77000
L89240 77030
L89270 77050
L89290 77110
L89290 77280
L89270 77340
L89240 77360
L89180 77390
L89070 77390
L89010 77360
" />
<path d="M89800 77000
L89800 77390
" />
<path d="M89550 77000
L89550 77310
L89580 77360
L89630 77390
L89720 77390
L89770 77360
L89800 77340
" />
<path d="M90080 77000
L90080 77390
" />
<path d="M90080 77050
L90110 77030
L90160 77000
L90250 77000
L90310 77030
L90330 77080
L90330 77390
" />
<path d="M90530 77000
L90760 77000
" />
<path d="M90610 76800
L90610 77310
L90640 77360
L90700 77390
L90760 77390
" />
<path d="M91200 77000
L91200 77390
" />
<path d="M90950 77000
L90950 77310
L90980 77360
L91040 77390
L91120 77390
L91180 77360
L91200 77340
" />
<path d="M91790 77390
L91460 77390
" />
<path d="M91630 77390
L91630 76800
L91570 76890
L91510 76940
L91460 76970
" />
<path d="M92130 77050
L92080 77030
L92050 77000
L92020 76940
L92020 76910
L92050 76860
L92080 76830
L92130 76800
L92240 76800
L92300 76830
L92330 76860
L92360 76910
L92360 76940
L92330 77000
L92300 77030
L92240 77050
L92130 77050
L92080 77080
L92050 77110
L92020 77170
L92020 77280
L92050 77340
L92080 77360
L92130 77390
L92240 77390
L92300 77360
L92330 77340
L92360 77280
L92360 77170
L92330 77110
L92300 77080
L92240 77050
" />
<path d="M92610 77340
L92640 77360
L92610 77390
L92580 77360
L92610 77340
L92610 77390
" />
<path d="M93000 76800
L93060 76800
L93110 76830
L93140 76860
L93170 76910
L93200 77030
L93200 77170
L93170 77280
L93140 77340
L93110 77360
L93060 77390
L93000 77390
L92950 77360
L92920 77340
L92890 77280
L92860 77170
L92860 77030
L92890 76910
L92920 76860
L92950 76830
L93000 76800
" />
<path d="M93700 77000
L93700 77390
" />
<path d="M93560 76770
L93420 77200
L93790 77200
" />
<path d="M94010 77340
L94040 77360
L94010 77390
L93990 77360
L94010 77340
L94010 77390
" />
<path d="M94600 77390
L94270 77390
" />
<path d="M94440 77390
L94440 76800
L94380 76890
L94320 76940
L94270 76970
" />
</g>
<g style="fill:#840000; fill-opacity:0.0; 
stroke:#840000; stroke-width:100; stroke-opacity:1; 
stroke-linecap:round; stroke-linejoin:round;">
</g>
<g style="fill:#840000; fill-opacity:0.0; 
stroke:#840000; stroke-width:60; stroke-opacity:1; 
stroke-linecap:round; stroke-linejoin:round;">
<path d="M69690 75400
L112210 75400
" />
</g>
<g style="fill:#840000; fill-opacity:0.0; 
stroke:#840000; stroke-width:100; stroke-opacity:1; 
stroke-linecap:round; stroke-linejoin:round;">
</g>
<g style="fill:#840000; fill-opacity:0.0; 
stroke:#840000; stroke-width:120; stroke-opacity:1; 
stroke-linecap:round; stroke-linejoin:round;">
<text x="103540" y="76320"
textLength="2340" font-size="780" lengthAdjust="spacingAndGlyphs"
text-anchor="start" opacity="0">Rev: </text>
<path d="M104090 76290
L103890 76010
" />
<path d="M103750 76290
L103750 75700
L103980 75700
L104030 75730
L104060 75760
L104090 75810
L104090 75900
L104060 75950
L104030 75980
L103980 76010
L103750 76010
" />
<path d="M104570 76260
L104510 76290
L104400 76290
L104340 76260
L104320 76210
L104320 75980
L104340 75930
L104400 75900
L104510 75900
L104570 75930
L104600 75980
L104600 76040
L104320 76100
" />
<path d="M104790 75900
L104930 76290
L105070 75900
" />
<path d="M105300 76240
L105330 76260
L105300 76290
L105270 76260
L105300 76240
L105300 76290
" />
<path d="M105300 75930
L105330 75950
L105300 75980
L105270 75950
L105300 75930
L105300 75980
" />
</g>
<g style="fill:#840000; fill-opacity:0.0; 
stroke:#840000; stroke-width:100; stroke-opacity:1; 
stroke-linecap:round; stroke-linejoin:round;">
</g>
<g style="fill:#840000; fill-opacity:0.0; 
stroke:#840000; stroke-width:60; stroke-opacity:1; 
stroke-linecap:round; stroke-linejoin:round;">
<text x="70080" y="76320"
textLength="3780" font-size="780" lengthAdjust="spacingAndGlyphs"
text-anchor="start" opacity="0">Size: A4</text>
<path d="M70220 76260
L70300 76290
L70440 76290
L70500 76260
L70530 76240
L70550 76180
L70550 76120
L70530 76070
L70500 76040
L70440 76010
L70330 75980
L70270 75950
L70250 75930
L70220 75870
L70220 75810
L70250 75760
L70270 75730
L70330 75700
L70470 75700
L70550 75730
" />
<path d="M70810 76290
L70810 75900
" />
<path d="M70810 75700
L70780 75730
L70810 75760
L70840 75730
L70810 75700
L70810 75760
" />
<path d="M71030 75900
L71340 75900
L71030 76290
L71340 76290
" />
<path d="M71790 76260
L71730 76290
L71620 76290
L71570 76260
L71540 76210
L71540 75980
L71570 75930
L71620 75900
L71730 75900
L71790 75930
L71820 75980
L71820 76040
L71540 76100
" />
<path d="M72070 76240
L72100 76260
L72070 76290
L72040 76260
L72070 76240
L72070 76290
" />
<path d="M72070 75930
L72100 75950
L72070 75980
L72040 75950
L72070 75930
L72070 75980
" />
<path d="M72770 76120
L73060 76120
" />
<path d="M72720 76290
L72910 75700
L73110 76290
" />
<path d="M73560 75900
L73560 76290
" />
<path d="M73420 75670
L73280 76100
L73650 76100
" />
</g>
<g style="fill:#840000; fill-opacity:0.0; 
stroke:#840000; stroke-width:100; stroke-opacity:1; 
stroke-linecap:round; stroke-linejoin:round;">
</g>
<g style="fill:#840000; fill-opacity:0.0; 
stroke:#840000; stroke-width:60; stroke-opacity:1; 
stroke-linecap:round; stroke-linejoin:round;">
<text x="103540" y="77420"
textLength="3350" font-size="780" lengthAdjust="spacingAndGlyphs"
text-anchor="start" opacity="0">Id: 1/1</text>
<path d="M103710 77390
L103710 76800
" />
<path d="M104240 77390
L104240 76800
" />
<path d="M104240 77360
L104180 77390
L104070 77390
L104010 77360
L103990 77340
L103960 77280
L103960 77110
L103990 77050
L104010 77030
L104070 77000
L104180 77000
L104240 77030
" />
<path d="M104520 77340
L104550 77360
L104520 77390
L104490 77360
L104520 77340
L104520 77390
" />
<path d="M104520 77030
L104550 77050
L104520 77080
L104490 77050
L104520 77030
L104520 77080
" />
<path d="M105560 77390
L105220 77390
" />
<path d="M105390 77390
L105390 76800
L105340 76890
L105280 76940
L105220 76970
" />
<path d="M106230 76770
L105730 77530
" />
<path d="M106740 77390
L106400 77390
" />
<path d="M106570 77390
L106570 76800
L106520 76890
L106460 76940
L106400 76970
" />
</g>
<g style="fill:#840000; fill-opacity:0.0; 
stroke:#840000; stroke-width:100; stroke-opacity:1; 
stroke-linecap:round; stroke-linejoin:round;">
</g>
<g style="fill:#840000; fill-opacity:0.0; 
stroke:#840000; stroke-width:60; stroke-opacity:1; 
stroke-linecap:round; stroke-linejoin:round;">
<path d="M69690 73820
L112210 73820
" />
</g>
<g style="fill:#840000; fill-opacity:0.0; 
stroke:#840000; stroke-width:100; stroke-opacity:1; 
stroke-linecap:round; stroke-linejoin:round;">
</g>
<g style="fill:#840000; fill-opacity:0.0; 
stroke:#840000; stroke-width:160; stroke-opacity:1; 
stroke-linecap:round; stroke-linejoin:round;">
<text x="70080" y="74920"
textLength="3710" font-size="1050" lengthAdjust="spacingAndGlyphs"
text-anchor="start" opacity="0">Title: </text>
<path d="M70360 74090
L70810 74090
" />
<path d="M70480 74880
L70580 74090
" />
<path d="M70970 74880
L71040 74360
" />
<path d="M71070 74090
L71030 74130
L71060 74170
L71110 74130
L71070 74090
L71060 74170
" />
<path d="M71300 74360
L71600 74360
" />
<path d="M71450 74090
L71360 74770
L71390 74840
L71460 74880
L71540 74880
" />
<path d="M71910 74880
L71840 74840
L71820 74770
L71900 74090
" />
<path d="M72520 74840
L72440 74880
L72290 74880
L72220 74840
L72190 74770
L72230 74470
L72280 74390
L72360 74360
L72510 74360
L72580 74390
L72610 74470
L72600 74540
L72210 74620
" />
<path d="M72900 74810
L72930 74840
L72890 74880
L72860 74840
L72900 74810
L72890 74880
" />
<path d="M72950 74390
L72990 74430
L72940 74470
L72910 74430
L72950 74390
L72940 74470
" />
</g>
<g style="fill:#840000; fill-opacity:0.0; 
stroke:#840000; stroke-width:100; stroke-opacity:1; 
stroke-linecap:round; stroke-linejoin:round;">
</g>
<g style="fill:#840000; fill-opacity:0.0; 
stroke:#840000; stroke-width:60; stroke-opacity:1; 
stroke-linecap:round; stroke-linejoin:round;">
<text x="70080" y="73400"
textLength="15040" font-size="780" lengthAdjust="spacingAndGlyphs"
text-anchor="start" opacity="0">File: JLink_6Pin_SWD_Adaptor.sch</text>
<path d="M70440 73060
L70250 73060
" />
<path d="M70250 73370
L70250 72780
L70530 72780
" />
<path d="M70750 73370
L70750 72980
" />
<path d="M70750 72780
L70720 72810
L70750 72840
L70780 72810
L70750 72780
L70750 72840
" />
<path d="M71120 73370
L71060 73340
L71030 73290
L71030 72780
" />
<path d="M71570 73340
L71510 73370
L71400 73370
L71340 73340
L71310 73290
L71310 73060
L71340 73010
L71400 72980
L71510 72980
L71570 73010
L71590 73060
L71590 73120
L71310 73180
" />
<path d="M71850 73320
L71880 73340
L71850 73370
L71820 73340
L71850 73320
L71850 73370
" />
<path d="M71850 73010
L71880 73030
L71850 73060
L71820 73030
L71850 73010
L71850 73060
" />
<path d="M72750 72780
L72750 73200
L72720 73290
L72660 73340
L72580 73370
L72520 73370
" />
<path d="M73310 73370
L73030 73370
L73030 72780
" />
<path d="M73500 73370
L73500 72980
" />
<path d="M73500 72780
L73480 72810
L73500 72840
L73530 72810
L73500 72780
L73500 72840
" />
<path d="M73790 72980
L73790 73370
" />
<path d="M73790 73030
L73810 73010
L73870 72980
L73950 72980
L74010 73010
L74040 73060
L74040 73370
" />
<path d="M74320 73370
L74320 72780
" />
<path d="M74380 73150
L74540 73370
" />
<path d="M74540 72980
L74320 73200
" />
<path d="M74660 73430
L75110 73430
" />
<path d="M75500 72780
L75390 72780
L75330 72810
L75300 72840
L75250 72920
L75220 73030
L75220 73260
L75250 73320
L75270 73340
L75330 73370
L75440 73370
L75500 73340
L75530 73320
L75560 73260
L75560 73120
L75530 73060
L75500 73030
L75440 73010
L75330 73010
L75270 73030
L75250 73060
L75220 73120
" />
<path d="M75810 73370
L75810 72780
L76030 72780
L76090 72810
L76120 72840
L76150 72890
L76150 72980
L76120 73030
L76090 73060
L76030 73090
L75810 73090
" />
<path d="M76400 73370
L76400 72980
" />
<path d="M76400 72780
L76370 72810
L76400 72840
L76430 72810
L76400 72780
L76400 72840
" />
<path d="M76680 72980
L76680 73370
" />
<path d="M76680 73030
L76710 73010
L76760 72980
L76850 72980
L76900 73010
L76930 73060
L76930 73370
" />
<path d="M77070 73430
L77520 73430
" />
<path d="M77630 73340
L77720 73370
L77860 73370
L77920 73340
L77940 73320
L77970 73260
L77970 73200
L77940 73150
L77920 73120
L77860 73090
L77750 73060
L77690 73030
L77660 73010
L77630 72950
L77630 72890
L77660 72840
L77690 72810
L77750 72780
L77890 72780
L77970 72810
" />
<path d="M78170 72780
L78310 73370
L78420 72950
L78530 73370
L78670 72780
" />
<path d="M78900 73370
L78900 72780
L79040 72780
L79120 72810
L79180 72870
L79210 72920
L79240 73030
L79240 73120
L79210 73230
L79180 73290
L79120 73340
L79040 73370
L78900 73370
" />
<path d="M79350 73430
L79800 73430
" />
<path d="M79910 73200
L80190 73200
" />
<path d="M79850 73370
L80050 72780
L80250 73370
" />
<path d="M80700 73370
L80700 72780
" />
<path d="M80700 73340
L80640 73370
L80530 73370
L80470 73340
L80440 73320
L80420 73260
L80420 73090
L80440 73030
L80470 73010
L80530 72980
L80640 72980
L80700 73010
" />
<path d="M81230 73370
L81230 73060
L81200 73010
L81150 72980
L81030 72980
L80980 73010
" />
<path d="M81230 73340
L81170 73370
L81030 73370
L80980 73340
L80950 73290
L80950 73230
L80980 73180
L81030 73150
L81170 73150
L81230 73120
" />
<path d="M81510 72980
L81510 73570
" />
<path d="M81510 73010
L81570 72980
L81680 72980
L81740 73010
L81760 73030
L81790 73090
L81790 73260
L81760 73320
L81740 73340
L81680 73370
L81570 73370
L81510 73340
" />
<path d="M81960 72980
L82190 72980
" />
<path d="M82050 72780
L82050 73290
L82070 73340
L82130 73370
L82190 73370
" />
<path d="M82470 73370
L82410 73340
L82380 73320
L82350 73260
L82350 73090
L82380 73030
L82410 73010
L82470 72980
L82550 72980
L82610 73010
L82640 73030
L82660 73090
L82660 73260
L82640 73320
L82610 73340
L82550 73370
L82470 73370
" />
<path d="M82920 73370
L82920 72980
" />
<path d="M82920 73090
L82940 73030
L82970 73010
L83030 72980
L83090 72980
" />
<path d="M83280 73320
L83310 73340
L83280 73370
L83250 73340
L83280 73320
L83280 73370
" />
<path d="M83530 73340
L83590 73370
L83700 73370
L83760 73340
L83790 73290
L83790 73260
L83760 73200
L83700 73180
L83620 73180
L83560 73150
L83530 73090
L83530 73060
L83560 73010
L83620 72980
L83700 72980
L83760 73010
" />
<path d="M84290 73340
L84240 73370
L84120 73370
L84070 73340
L84040 73320
L84010 73260
L84010 73090
L84040 73030
L84070 73010
L84120 72980
L84240 72980
L84290 73010
" />
<path d="M84550 73370
L84550 72780
" />
<path d="M84800 73370
L84800 73060
L84770 73010
L84710 72980
L84630 72980
L84570 73010
L84550 73030
" />
</g>
<g style="fill:#840000; fill-opacity:0.0; 
stroke:#840000; stroke-width:100; stroke-opacity:1; 
stroke-linecap:round; stroke-linejoin:round;">
</g>
<g style="fill:#840000; fill-opacity:0.0; 
stroke:#840000; stroke-width:60; stroke-opacity:1; 
stroke-linecap:round; stroke-linejoin:round;">
<path d="M69690 71460
L112210 71460
" />
</g>
<g style="fill:#840000; fill-opacity:0.0; 
stroke:#840000; stroke-width:100; stroke-opacity:1; 
stroke-linecap:round; stroke-linejoin:round;">
</g>
<g style="fill:#840000; fill-opacity:0.0; 
stroke:#840000; stroke-width:60; stroke-opacity:1; 
stroke-linecap:round; stroke-linejoin:round;">
<text x="70080" y="72340"
textLength="3850" font-size="780" lengthAdjust="spacingAndGlyphs"
text-anchor="start" opacity="0">Sheet: /</text>
<path d="M70220 72280
L70300 72310
L70440 72310
L70500 72280
L70530 72260
L70550 72200
L70550 72140
L70530 72090
L70500 72060
L70440 72030
L70330 72000
L70270 71970
L70250 71950
L70220 71890
L70220 71830
L70250 71780
L70270 71750
L70330 71720
L70470 71720
L70550 71750
" />
<path d="M70810 72310
L70810 71720
" />
<path d="M71060 72310
L71060 72000
L71030 71950
L70980 71920
L70890 71920
L70840 71950
L70810 71970
" />
<path d="M71570 72280
L71510 72310
L71400 72310
L71340 72280
L71310 72230
L71310 72000
L71340 71950
L71400 71920
L71510 71920
L71570 71950
L71590 72000
L71590 72060
L71310 72120
" />
<path d="M72070 72280
L72020 72310
L71900 72310
L71850 72280
L71820 72230
L71820 72000
L71850 71950
L71900 71920
L72020 71920
L72070 71950
L72100 72000
L72100 72060
L71820 72120
" />
<path d="M72270 71920
L72490 71920
" />
<path d="M72350 71720
L72350 72230
L72380 72280
L72440 72310
L72490 72310
" />
<path d="M72690 72260
L72720 72280
L72690 72310
L72660 72280
L72690 72260
L72690 72310
" />
<path d="M72690 71950
L72720 71970
L72690 72000
L72660 71970
L72690 71950
L72690 72000
" />
<path d="M73840 71690
L73340 72450
" />
</g>
<g style="fill:#840000; fill-opacity:0.0; 
stroke:#840000; stroke-width:100; stroke-opacity:1; 
stroke-linecap:round; stroke-linejoin:round;">
</g>
<g style="fill:#840000; fill-opacity:0.0; 
stroke:#840000; stroke-width:60; stroke-opacity:1; 
stroke-linecap:round; stroke-linejoin:round;">
<path d="M77560 75400
L77560 76580
" />
</g>
<g style="fill:#840000; fill-opacity:0.0; 
stroke:#840000; stroke-width:100; stroke-opacity:1; 
stroke-linecap:round; stroke-linejoin:round;">
</g>
<g style="fill:#840000; fill-opacity:0.0; 
stroke:#840000; stroke-width:60; stroke-opacity:1; 
stroke-linecap:round; stroke-linejoin:round;">
<path d="M102760 75400
L102760 77960
" />
</g>
<g style="fill:#840000; fill-opacity:0.0; 
stroke:#840000; stroke-width:0; stroke-opacity:1; 
stroke-linecap:round; stroke-linejoin:round;">
<g >
</g>
<g style="fill:#FFFFC2; fill-opacity:0.0; 
stroke:#FFFFC2; stroke-width:0; stroke-opacity:1; 
stroke-linecap:round; stroke-linejoin:round;">
</g>
<g style="fill:#FFFFC2; fill-opacity:0.6; 
stroke:#FFFFC2; stroke-width:0; stroke-opacity:1; 
stroke-linecap:round; stroke-linejoin:round;">
<rect x="80000" y="31000" width="1000" height="6000" rx="0" />
</g>
<g style="fill:#840000; fill-opacity:0.6; 
stroke:#840000; stroke-width:0; stroke-opacity:1; 
stroke-linecap:round; stroke-linejoin:round;">
</g>
<g style="fill:#840000; fill-opacity:0.0; 
stroke:#840000; stroke-width:100; stroke-opacity:1; 
stroke-linecap:round; stroke-linejoin:round;">
<rect x="80000" y="31000" width="1000" height="6000" rx="0" />
</g>
<g style="fill:#840000; fill-opacity:0.0; 
stroke:#840000; stroke-width:60; stroke-opacity:1; 
stroke-linecap:round; stroke-linejoin:round;">
<rect x="80000" y="35450" width="500" height="100" rx="0" />
<rect x="80000" y="36450" width="500" height="100" rx="0" />
<rect x="80000" y="34450" width="500" height="100" rx="0" />
<rect x="80000" y="32450" width="500" height="100" rx="0" />
<rect x="80000" y="31450" width="500" height="100" rx="0" />
</g>
<g style="fill:#840000; fill-opacity:0.0; 
stroke:#840000; stroke-width:100; stroke-opacity:1; 
stroke-linecap:round; stroke-linejoin:round;">
<rect x="80000" y="31000" width="1000" height="6000" rx="0" />
</g>
<g style="fill:#840000; fill-opacity:0.0; 
stroke:#840000; stroke-width:60; stroke-opacity:1; 
stroke-linecap:round; stroke-linejoin:round;">
<rect x="80000" y="33450" width="500" height="100" rx="0" />
<path d="M80000 31500
L78500 31500
" />
<text x="79250" y="31400"
textLength="540" font-size="660" lengthAdjust="spacingAndGlyphs"
text-anchor="middle" opacity="0">1</text>
<path d="M79390 31370
L79100 31370
" />
<path d="M79250 31370
L79250 30870
L79200 30940
L79150 30990
L79100 31010
" />
<path d="M80000 32500
L78500 32500
" />
<text x="79250" y="32400"
textLength="540" font-size="660" lengthAdjust="spacingAndGlyphs"
text-anchor="middle" opacity="0">2</text>
<path d="M79100 31920
L79130 31900
L79170 31870
L79290 31870
L79340 31900
L79360 31920
L79390 31970
L79390 32010
L79360 32090
L79080 32370
L79390 32370
" />
<path d="M80000 33500
L78500 33500
" />
<text x="79250" y="33400"
textLength="540" font-size="660" lengthAdjust="spacingAndGlyphs"
text-anchor="middle" opacity="0">3</text>
<path d="M79080 32870
L79390 32870
L79220 33060
L79290 33060
L79340 33090
L79360 33110
L79390 33160
L79390 33280
L79360 33320
L79340 33350
L79290 33370
L79150 33370
L79100 33350
L79080 33320
" />
<path d="M80000 34500
L78500 34500
" />
<text x="79250" y="34400"
textLength="540" font-size="660" lengthAdjust="spacingAndGlyphs"
text-anchor="middle" opacity="0">4</text>
<path d="M79340 34040
L79340 34370
" />
<path d="M79220 33850
L79100 34200
L79410 34200
" />
<path d="M80000 35500
L78500 35500
" />
<text x="79250" y="35400"
textLength="540" font-size="660" lengthAdjust="spacingAndGlyphs"
text-anchor="middle" opacity="0">5</text>
<path d="M79360 34870
L79130 34870
L79100 35110
L79130 35090
L79170 35060
L79290 35060
L79340 35090
L79360 35110
L79390 35160
L79390 35280
L79360 35320
L79340 35350
L79290 35370
L79170 35370
L79130 35350
L79100 35320
" />
<path d="M80000 36500
L78500 36500
" />
<text x="79250" y="36400"
textLength="540" font-size="660" lengthAdjust="spacingAndGlyphs"
text-anchor="middle" opacity="0">6</text>
<path d="M79340 35870
L79250 35870
L79200 35900
L79170 35920
L79130 35990
L79100 36090
L79100 36280
L79130 36320
L79150 36350
L79200 36370
L79290 36370
L79340 36350
L79360 36320
L79390 36280
L79390 36160
L79360 36110
L79340 36090
L79290 36060
L79200 36060
L79150 36090
L79130 36110
L79100 36160
" />
</g>
<g style="fill:#008484; fill-opacity:0.0; 
stroke:#008484; stroke-width:60; stroke-opacity:1; 
stroke-linecap:round; stroke-linejoin:round;">
<text x="80460" y="29520"
textLength="920" font-size="660" lengthAdjust="spacingAndGlyphs"
text-anchor="middle" opacity="0">J2</text>
<path d="M80290 28990
L80290 29350
L80260 29420
L80220 29470
L80150 29490
L80100 29490
" />
<path d="M80500 29040
L80530 29020
L80570 28990
L80690 28990
L80740 29020
L80760 29040
L80790 29090
L80790 29130
L80760 29210
L80480 29490
L80790 29490
" />
<text x="80550" y="30270"
textLength="4610" font-size="660" lengthAdjust="spacingAndGlyphs"
text-anchor="middle" opacity="0">Conn_01x06</text>
<path d="M78680 30190
L78650 30220
L78580 30240
L78530 30240
L78460 30220
L78410 30170
L78390 30120
L78370 30030
L78370 29960
L78390 29860
L78410 29810
L78460 29770
L78530 29740
L78580 29740
L78650 29770
L78680 29790
" />
<path d="M78960 30240
L78910 30220
L78890 30190
L78870 30150
L78870 30000
L78890 29960
L78910 29930
L78960 29910
L79030 29910
L79080 29930
L79100 29960
L79130 30000
L79130 30150
L79100 30190
L79080 30220
L79030 30240
L78960 30240
" />
<path d="M79340 29910
L79340 30240
" />
<path d="M79340 29960
L79370 29930
L79410 29910
L79490 29910
L79530 29930
L79560 29980
L79560 30240
" />
<path d="M79800 29910
L79800 30240
" />
<path d="M79800 29960
L79820 29930
L79870 29910
L79940 29910
L79990 29930
L80010 29980
L80010 30240
" />
<path d="M80130 30290
L80510 30290
" />
<path d="M80720 29740
L80770 29740
L80820 29770
L80840 29790
L80870 29840
L80890 29930
L80890 30050
L80870 30150
L80840 30190
L80820 30220
L80770 30240
L80720 30240
L80680 30220
L80650 30190
L80630 30150
L80600 30050
L80600 29930
L80630 29840
L80650 29790
L80680 29770
L80720 29740
" />
<path d="M81370 30240
L81080 30240
" />
<path d="M81220 30240
L81220 29740
L81180 29810
L81130 29860
L81080 29880
" />
<path d="M81530 30240
L81800 29910
" />
<path d="M81530 29910
L81800 30240
" />
<path d="M82080 29740
L82130 29740
L82180 29770
L82200 29790
L82220 29840
L82250 29930
L82250 30050
L82220 30150
L82200 30190
L82180 30220
L82130 30240
L82080 30240
L82030 30220
L82010 30190
L81990 30150
L81960 30050
L81960 29930
L81990 29840
L82010 29790
L82030 29770
L82080 29740
" />
<path d="M82680 29740
L82580 29740
L82530 29770
L82510 29790
L82460 29860
L82440 29960
L82440 30150
L82460 30190
L82490 30220
L82530 30240
L82630 30240
L82680 30220
L82700 30190
L82720 30150
L82720 30030
L82700 29980
L82680 29960
L82630 29930
L82530 29930
L82490 29960
L82460 29980
L82440 30030
" />
</g>
</g>
<g style="fill:#008484; fill-opacity:0.0; 
stroke:#008484; stroke-width:0; stroke-opacity:1; 
stroke-linecap:round; stroke-linejoin:round;">
<g >
</g>
<g style="fill:#840000; fill-opacity:0.0; 
stroke:#840000; stroke-width:0; stroke-opacity:1; 
stroke-linecap:round; stroke-linejoin:round;">
</g>
<g style="fill:#FFFFC2; fill-opacity:0.0; 
stroke:#FFFFC2; stroke-width:0; stroke-opacity:1; 
stroke-linecap:round; stroke-linejoin:round;">
</g>
<g style="fill:#FFFFC2; fill-opacity:0.6; 
stroke:#FFFFC2; stroke-width:0; stroke-opacity:1; 
stroke-linecap:round; stroke-linejoin:round;">
<rect x="40250" y="29750" width="2000" height="10000" rx="0" />
</g>
<g style="fill:#840000; fill-opacity:0.6; 
stroke:#840000; stroke-width:0; stroke-opacity:1; 
stroke-linecap:round; stroke-linejoin:round;">
</g>
<g style="fill:#840000; fill-opacity:0.0; 
stroke:#840000; stroke-width:100; stroke-opacity:1; 
stroke-linecap:round; stroke-linejoin:round;">
<rect x="40250" y="29750" width="2000" height="10000" rx="0" />
</g>
<g style="fill:#840000; fill-opacity:0.0; 
stroke:#840000; stroke-width:60; stroke-opacity:1; 
stroke-linecap:round; stroke-linejoin:round;">
<rect x="40250" y="36200" width="500" height="100" rx="0" />
<rect x="40250" y="37200" width="500" height="100" rx="0" />
<rect x="40250" y="38200" width="500" height="100" rx="0" />
<rect x="40250" y="39200" width="500" height="100" rx="0" />
<rect x="40250" y="35200" width="500" height="100" rx="0" />
<rect x="40250" y="33200" width="500" height="100" rx="0" />
<rect x="40250" y="32200" width="500" height="100" rx="0" />
<rect x="40250" y="31200" width="500" height="100" rx="0" />
<rect x="40250" y="30200" width="500" height="100" rx="0" />
</g>
<g style="fill:#840000; fill-opacity:0.0; 
stroke:#840000; stroke-width:100; stroke-opacity:1; 
stroke-linecap:round; stroke-linejoin:round;">
<rect x="40250" y="29750" width="2000" height="10000" rx="0" />
</g>
<g style="fill:#840000; fill-opacity:0.0; 
stroke:#840000; stroke-width:60; stroke-opacity:1; 
stroke-linecap:round; stroke-linejoin:round;">
<rect x="40250" y="34200" width="500" height="100" rx="0" />
<rect x="41750" y="36200" width="500" height="100" rx="0" />
<rect x="41750" y="37200" width="500" height="100" rx="0" />
<rect x="41750" y="38200" width="500" height="100" rx="0" />
<rect x="41750" y="39200" width="500" height="100" rx="0" />
<rect x="41750" y="35200" width="500" height="100" rx="0" />
<rect x="41750" y="33200" width="500" height="100" rx="0" />
<rect x="41750" y="32200" width="500" height="100" rx="0" />
<rect x="41750" y="31200" width="500" height="100" rx="0" />
<rect x="41750" y="30200" width="500" height="100" rx="0" />
<rect x="41750" y="34200" width="500" height="100" rx="0" />
<path d="M40250 30250
L38750 30250
" />
<text x="39500" y="30150"
textLength="540" font-size="660" lengthAdjust="spacingAndGlyphs"
text-anchor="middle" opacity="0">1</text>
<path d="M39640 30120
L39350 30120
" />
<path d="M39500 30120
L39500 29620
L39450 29690
L39400 29740
L39350 29760
" />
<path d="M42250 34250
L43750 34250
" />
<text x="43000" y="34150"
textLength="1010" font-size="660" lengthAdjust="spacingAndGlyphs"
text-anchor="middle" opacity="0">10</text>
<path d="M42900 34120
L42610 34120
" />
<path d="M42760 34120
L42760 33620
L42710 33690
L42660 33740
L42610 33760
" />
<path d="M43210 33620
L43260 33620
L43300 33650
L43330 33670
L43350 33720
L43380 33810
L43380 33930
L43350 34030
L43330 34070
L43300 34100
L43260 34120
L43210 34120
L43160 34100
L43140 34070
L43110 34030
L43090 33930
L43090 33810
L43110 33720
L43140 33670
L43160 33650
L43210 33620
" />
<path d="M40250 35250
L38750 35250
" />
<text x="39500" y="35150"
textLength="1010" font-size="660" lengthAdjust="spacingAndGlyphs"
text-anchor="middle" opacity="0">11</text>
<path d="M39400 35120
L39110 35120
" />
<path d="M39260 35120
L39260 34620
L39210 34690
L39160 34740
L39110 34760
" />
<path d="M39880 35120
L39590 35120
" />
<path d="M39730 35120
L39730 34620
L39690 34690
L39640 34740
L39590 34760
" />
<path d="M42250 35250
L43750 35250
" />
<text x="43000" y="35150"
textLength="1010" font-size="660" lengthAdjust="spacingAndGlyphs"
text-anchor="middle" opacity="0">12</text>
<path d="M42900 35120
L42610 35120
" />
<path d="M42760 35120
L42760 34620
L42710 34690
L42660 34740
L42610 34760
" />
<path d="M43090 34670
L43110 34650
L43160 34620
L43280 34620
L43330 34650
L43350 34670
L43380 34720
L43380 34760
L43350 34840
L43070 35120
L43380 35120
" />
<path d="M40250 36250
L38750 36250
" />
<text x="39500" y="36150"
textLength="1010" font-size="660" lengthAdjust="spacingAndGlyphs"
text-anchor="middle" opacity="0">13</text>
<path d="M39400 36120
L39110 36120
" />
<path d="M39260 36120
L39260 35620
L39210 35690
L39160 35740
L39110 35760
" />
<path d="M39570 35620
L39880 35620
L39710 35810
L39780 35810
L39830 35840
L39850 35860
L39880 35910
L39880 36030
L39850 36070
L39830 36100
L39780 36120
L39640 36120
L39590 36100
L39570 36070
" />
<path d="M42250 36250
L43750 36250
" />
<text x="43000" y="36150"
textLength="1010" font-size="660" lengthAdjust="spacingAndGlyphs"
text-anchor="middle" opacity="0">14</text>
<path d="M42900 36120
L42610 36120
" />
<path d="M42760 36120
L42760 35620
L42710 35690
L42660 35740
L42610 35760
" />
<path d="M43330 35790
L43330 36120
" />
<path d="M43210 35600
L43090 35950
L43400 35950
" />
<path d="M40250 37250
L38750 37250
" />
<text x="39500" y="37150"
textLength="1010" font-size="660" lengthAdjust="spacingAndGlyphs"
text-anchor="middle" opacity="0">15</text>
<path d="M39400 37120
L39110 37120
" />
<path d="M39260 37120
L39260 36620
L39210 36690
L39160 36740
L39110 36760
" />
<path d="M39850 36620
L39610 36620
L39590 36860
L39610 36840
L39660 36810
L39780 36810
L39830 36840
L39850 36860
L39880 36910
L39880 37030
L39850 37070
L39830 37100
L39780 37120
L39660 37120
L39610 37100
L39590 37070
" />
<path d="M42250 37250
L43750 37250
" />
<text x="43000" y="37150"
textLength="1010" font-size="660" lengthAdjust="spacingAndGlyphs"
text-anchor="middle" opacity="0">16</text>
<path d="M42900 37120
L42610 37120
" />
<path d="M42760 37120
L42760 36620
L42710 36690
L42660 36740
L42610 36760
" />
<path d="M43330 36620
L43230 36620
L43190 36650
L43160 36670
L43110 36740
L43090 36840
L43090 37030
L43110 37070
L43140 37100
L43190 37120
L43280 37120
L43330 37100
L43350 37070
L43380 37030
L43380 36910
L43350 36860
L43330 36840
L43280 36810
L43190 36810
L43140 36840
L43110 36860
L43090 36910
" />
<path d="M40250 38250
L38750 38250
" />
<text x="39500" y="38150"
textLength="1010" font-size="660" lengthAdjust="spacingAndGlyphs"
text-anchor="middle" opacity="0">17</text>
<path d="M39400 38120
L39110 38120
" />
<path d="M39260 38120
L39260 37620
L39210 37690
L39160 37740
L39110 37760
" />
<path d="M39570 37620
L39900 37620
L39690 38120
" />
<path d="M42250 38250
L43750 38250
" />
<text x="43000" y="38150"
textLength="1010" font-size="660" lengthAdjust="spacingAndGlyphs"
text-anchor="middle" opacity="0">18</text>
<path d="M42900 38120
L42610 38120
" />
<path d="M42760 38120
L42760 37620
L42710 37690
L42660 37740
L42610 37760
" />
<path d="M43190 37840
L43140 37810
L43110 37790
L43090 37740
L43090 37720
L43110 37670
L43140 37650
L43190 37620
L43280 37620
L43330 37650
L43350 37670
L43380 37720
L43380 37740
L43350 37790
L43330 37810
L43280 37840
L43190 37840
L43140 37860
L43110 37880
L43090 37930
L43090 38030
L43110 38070
L43140 38100
L43190 38120
L43280 38120
L43330 38100
L43350 38070
L43380 38030
L43380 37930
L43350 37880
L43330 37860
L43280 37840
" />
<path d="M40250 39250
L38750 39250
" />
<text x="39500" y="39150"
textLength="1010" font-size="660" lengthAdjust="spacingAndGlyphs"
text-anchor="middle" opacity="0">19</text>
<path d="M39400 39120
L39110 39120
" />
<path d="M39260 39120
L39260 38620
L39210 38690
L39160 38740
L39110 38760
" />
<path d="M39640 39120
L39730 39120
L39780 39100
L39800 39070
L39850 39000
L39880 38910
L39880 38720
L39850 38670
L39830 38650
L39780 38620
L39690 38620
L39640 38650
L39610 38670
L39590 38720
L39590 38840
L39610 38880
L39640 38910
L39690 38930
L39780 38930
L39830 38910
L39850 38880
L39880 38840
" />
<path d="M42250 30250
L43750 30250
" />
<text x="43000" y="30150"
textLength="540" font-size="660" lengthAdjust="spacingAndGlyphs"
text-anchor="middle" opacity="0">2</text>
<path d="M42850 29670
L42880 29650
L42920 29620
L43040 29620
L43090 29650
L43110 29670
L43140 29720
L43140 29760
L43110 29840
L42830 30120
L43140 30120
" />
<path d="M42250 39250
L43750 39250
" />
<text x="43000" y="39150"
textLength="1010" font-size="660" lengthAdjust="spacingAndGlyphs"
text-anchor="middle" opacity="0">20</text>
<path d="M42610 38670
L42640 38650
L42690 38620
L42800 38620
L42850 38650
L42880 38670
L42900 38720
L42900 38760
L42880 38840
L42590 39120
L42900 39120
" />
<path d="M43210 38620
L43260 38620
L43300 38650
L43330 38670
L43350 38720
L43380 38810
L43380 38930
L43350 39030
L43330 39070
L43300 39100
L43260 39120
L43210 39120
L43160 39100
L43140 39070
L43110 39030
L43090 38930
L43090 38810
L43110 38720
L43140 38670
L43160 38650
L43210 38620
" />
<path d="M40250 31250
L38750 31250
" />
<text x="39500" y="31150"
textLength="540" font-size="660" lengthAdjust="spacingAndGlyphs"
text-anchor="middle" opacity="0">3</text>
<path d="M39330 30620
L39640 30620
L39470 30810
L39540 30810
L39590 30840
L39610 30860
L39640 30910
L39640 31030
L39610 31070
L39590 31100
L39540 31120
L39400 31120
L39350 31100
L39330 31070
" />
<path d="M42250 31250
L43750 31250
" />
<text x="43000" y="31150"
textLength="540" font-size="660" lengthAdjust="spacingAndGlyphs"
text-anchor="middle" opacity="0">4</text>
<path d="M43090 30790
L43090 31120
" />
<path d="M42970 30600
L42850 30950
L43160 30950
" />
<path d="M40250 32250
L38750 32250
" />
<text x="39500" y="32150"
textLength="540" font-size="660" lengthAdjust="spacingAndGlyphs"
text-anchor="middle" opacity="0">5</text>
<path d="M39610 31620
L39380 31620
L39350 31860
L39380 31840
L39420 31810
L39540 31810
L39590 31840
L39610 31860
L39640 31910
L39640 32030
L39610 32070
L39590 32100
L39540 32120
L39420 32120
L39380 32100
L39350 32070
" />
<path d="M42250 32250
L43750 32250
" />
<text x="43000" y="32150"
textLength="540" font-size="660" lengthAdjust="spacingAndGlyphs"
text-anchor="middle" opacity="0">6</text>
<path d="M43090 31620
L43000 31620
L42950 31650
L42920 31670
L42880 31740
L42850 31840
L42850 32030
L42880 32070
L42900 32100
L42950 32120
L43040 32120
L43090 32100
L43110 32070
L43140 32030
L43140 31910
L43110 31860
L43090 31840
L43040 31810
L42950 31810
L42900 31840
L42880 31860
L42850 31910
" />
<path d="M40250 33250
L38750 33250
" />
<text x="39500" y="33150"
textLength="540" font-size="660" lengthAdjust="spacingAndGlyphs"
text-anchor="middle" opacity="0">7</text>
<path d="M39330 32620
L39660 32620
L39450 33120
" />
<path d="M42250 33250
L43750 33250
" />
<text x="43000" y="33150"
textLength="540" font-size="660" lengthAdjust="spacingAndGlyphs"
text-anchor="middle" opacity="0">8</text>
<path d="M42950 32840
L42900 32810
L42880 32790
L42850 32740
L42850 32720
L42880 32670
L42900 32650
L42950 32620
L43040 32620
L43090 32650
L43110 32670
L43140 32720
L43140 32740
L43110 32790
L43090 32810
L43040 32840
L42950 32840
L42900 32860
L42880 32880
L42850 32930
L42850 33030
L42880 33070
L42900 33100
L42950 33120
L43040 33120
L43090 33100
L43110 33070
L43140 33030
L43140 32930
L43110 32880
L43090 32860
L43040 32840
" />
<path d="M40250 34250
L38750 34250
" />
<text x="39500" y="34150"
textLength="540" font-size="660" lengthAdjust="spacingAndGlyphs"
text-anchor="middle" opacity="0">9</text>
<path d="M39400 34120
L39500 34120
L39540 34100
L39570 34070
L39610 34000
L39640 33910
L39640 33720
L39610 33670
L39590 33650
L39540 33620
L39450 33620
L39400 33650
L39380 33670
L39350 33720
L39350 33840
L39380 33880
L39400 33910
L39450 33930
L39540 33930
L39590 33910
L39610 33880
L39640 33840
" />
</g>
<g style="fill:#008484; fill-opacity:0.0; 
stroke:#008484; stroke-width:60; stroke-opacity:1; 
stroke-linecap:round; stroke-linejoin:round;">
<text x="41250" y="28350"
textLength="920" font-size="660" lengthAdjust="spacingAndGlyphs"
text-anchor="middle" opacity="0">J1</text>
<path d="M41080 27820
L41080 28180
L41050 28250
L41010 28300
L40940 28320
L40890 28320
" />
<path d="M41580 28320
L41290 28320
" />
<path d="M41440 28320
L41440 27820
L41390 27890
L41340 27940
L41290 27960
" />
<text x="41250" y="29260"
textLength="8510" font-size="660" lengthAdjust="spacingAndGlyphs"
text-anchor="middle" opacity="0">Conn_02x10_Odd_Even</text>
<path d="M37420 29180
L37400 29210
L37330 29230
L37280 29230
L37210 29210
L37160 29160
L37140 29110
L37110 29020
L37110 28950
L37140 28850
L37160 28800
L37210 28760
L37280 28730
L37330 28730
L37400 28760
L37420 28780
" />
<path d="M37710 29230
L37660 29210
L37640 29180
L37610 29140
L37610 28990
L37640 28950
L37660 28920
L37710 28900
L37780 28900
L37830 28920
L37850 28950
L37880 28990
L37880 29140
L37850 29180
L37830 29210
L37780 29230
L37710 29230
" />
<path d="M38090 28900
L38090 29230
" />
<path d="M38090 28950
L38110 28920
L38160 28900
L38230 28900
L38280 28920
L38300 28970
L38300 29230
" />
<path d="M38540 28900
L38540 29230
" />
<path d="M38540 28950
L38570 28920
L38610 28900
L38690 28900
L38730 28920
L38760 28970
L38760 29230
" />
<path d="M38880 29280
L39260 29280
" />
<path d="M39470 28730
L39520 28730
L39570 28760
L39590 28780
L39610 28830
L39640 28920
L39640 29040
L39610 29140
L39590 29180
L39570 29210
L39520 29230
L39470 29230
L39420 29210
L39400 29180
L39380 29140
L39350 29040
L39350 28920
L39380 28830
L39400 28780
L39420 28760
L39470 28730
" />
<path d="M39830 28780
L39850 28760
L39900 28730
L40020 28730
L40070 28760
L40090 28780
L40110 28830
L40110 28870
L40090 28950
L39800 29230
L40110 29230
" />
<path d="M40280 29230
L40540 28900
" />
<path d="M40280 28900
L40540 29230
" />
<path d="M41000 29230
L40710 29230
" />
<path d="M40850 29230
L40850 28730
L40800 28800
L40760 28850
L40710 28870
" />
<path d="M41300 28730
L41350 28730
L41400 28760
L41420 28780
L41450 28830
L41470 28920
L41470 29040
L41450 29140
L41420 29180
L41400 29210
L41350 29230
L41300 29230
L41260 29210
L41230 29180
L41210 29140
L41190 29040
L41190 28920
L41210 28830
L41230 28780
L41260 28760
L41300 28730
" />
<path d="M41570 29280
L41950 29280
" />
<path d="M42160 28730
L42260 28730
L42300 28760
L42350 28800
L42380 28900
L42380 29060
L42350 29160
L42300 29210
L42260 29230
L42160 29230
L42110 29210
L42070 29160
L42040 29060
L42040 28900
L42070 28800
L42110 28760
L42160 28730
" />
<path d="M42800 29230
L42800 28730
" />
<path d="M42800 29210
L42760 29230
L42660 29230
L42610 29210
L42590 29180
L42570 29140
L42570 28990
L42590 28950
L42610 28920
L42660 28900
L42760 28900
L42800 28920
" />
<path d="M43260 29230
L43260 28730
" />
<path d="M43260 29210
L43210 29230
L43110 29230
L43070 29210
L43040 29180
L43020 29140
L43020 28990
L43040 28950
L43070 28920
L43110 28900
L43210 28900
L43260 28920
" />
<path d="M43380 29280
L43760 29280
" />
<path d="M43880 28970
L44040 28970
" />
<path d="M44110 29230
L43880 29230
L43880 28730
L44110 28730
" />
<path d="M44280 28900
L44400 29230
L44520 28900
" />
<path d="M44900 29210
L44850 29230
L44760 29230
L44710 29210
L44690 29160
L44690 28970
L44710 28920
L44760 28900
L44850 28900
L44900 28920
L44920 28970
L44920 29020
L44690 29060
" />
<path d="M45140 28900
L45140 29230
" />
<path d="M45140 28950
L45160 28920
L45210 28900
L45280 28900
L45330 28920
L45350 28970
L45350 29230
" />
</g>
</g>
<g style="fill:#008484; fill-opacity:0.0; 
stroke:#008484; stroke-width:0; stroke-opacity:1; 
stroke-linecap:round; stroke-linejoin:round;">
<g >
</g>
<g style="fill:#840000; fill-opacity:0.0; 
stroke:#840000; stroke-width:0; stroke-opacity:1; 
stroke-linecap:round; stroke-linejoin:round;">
</g>
<g style="fill:#840000; fill-opacity:0.0; 
stroke:#840000; stroke-width:60; stroke-opacity:1; 
stroke-linecap:round; stroke-linejoin:round;">
<path style="fill:#840000; fill-opacity:0.0; 
stroke:#840000; stroke-width:60; stroke-opacity:1; 
stroke-linecap:round; stroke-linejoin:round;fill:none"
d="M 66750,43500
66750,44000
67150,44250
66750,44500
66350,44250
66750,44000
" /> 
<path d="M66750 43500
L66750 43500
" />
</g>
<g style="fill:#008484; fill-opacity:0.0; 
stroke:#008484; stroke-width:60; stroke-opacity:1; 
stroke-linecap:round; stroke-linejoin:round;">
<text x="66740" y="45450"
textLength="3770" font-size="660" lengthAdjust="spacingAndGlyphs"
text-anchor="middle" opacity="0">PWR_FLAG</text>
<path d="M65000 45420
L65000 44920
L65190 44920
L65240 44950
L65260 44970
L65280 45020
L65280 45090
L65260 45140
L65240 45160
L65190 45180
L65000 45180
" />
<path d="M65450 44920
L65570 45420
L65660 45060
L65760 45420
L65880 44920
" />
<path d="M66350 45420
L66190 45180
" />
<path d="M66070 45420
L66070 44920
L66260 44920
L66310 44950
L66330 44970
L66350 45020
L66350 45090
L66330 45140
L66310 45160
L66260 45180
L66070 45180
" />
<path d="M66450 45470
L66830 45470
" />
<path d="M67120 45160
L66950 45160
" />
<path d="M66950 45420
L66950 44920
L67190 44920
" />
<path d="M67620 45420
L67380 45420
L67380 44920
" />
<path d="M67760 45280
L68000 45280
" />
<path d="M67710 45420
L67880 44920
L68040 45420
" />
<path d="M68470 44950
L68430 44920
L68350 44920
L68280 44950
L68240 44990
L68210 45040
L68190 45140
L68190 45210
L68210 45300
L68240 45350
L68280 45400
L68350 45420
L68400 45420
L68470 45400
L68500 45370
L68500 45210
L68400 45210
" />
</g>
</g>
<g style="fill:#008484; fill-opacity:0.0; 
stroke:#008484; stroke-width:0; stroke-opacity:1; 
stroke-linecap:round; stroke-linejoin:round;">
<g >
</g>
<g style="fill:#840000; fill-opacity:0.0; 
stroke:#840000; stroke-width:0; stroke-opacity:1; 
stroke-linecap:round; stroke-linejoin:round;">
</g>
<g style="fill:#840000; fill-opacity:0.0; 
stroke:#840000; stroke-width:60; stroke-opacity:1; 
stroke-linecap:round; stroke-linejoin:round;">
<path style="fill:#840000; fill-opacity:0.0; 
stroke:#840000; stroke-width:60; stroke-opacity:1; 
stroke-linecap:round; stroke-linejoin:round;fill:none"
d="M 71750,43250
71750,43750
72250,43750
71750,44250
71250,43750
71750,43750
" /> 
</g>
<g style="fill:#008484; fill-opacity:0.0; 
stroke:#008484; stroke-width:60; stroke-opacity:1; 
stroke-linecap:round; stroke-linejoin:round;">
<text x="71800" y="45250"
textLength="2060" font-size="660" lengthAdjust="spacingAndGlyphs"
text-anchor="middle" opacity="0">GNDS</text>
<path d="M71180 44750
L71130 44720
L71060 44720
L70990 44750
L70940 44790
L70910 44840
L70890 44940
L70890 45010
L70910 45100
L70940 45150
L70990 45200
L71060 45220
L71100 45220
L71180 45200
L71200 45170
L71200 45010
L71100 45010
" />
<path d="M71410 45220
L71410 44720
L71700 45220
L71700 44720
" />
<path d="M71940 45220
L71940 44720
L72060 44720
L72130 44750
L72180 44790
L72200 44840
L72220 44940
L72220 45010
L72200 45100
L72180 45150
L72130 45200
L72060 45220
L71940 45220
" />
<path d="M72410 45200
L72490 45220
L72600 45220
L72650 45200
L72680 45170
L72700 45130
L72700 45080
L72680 45030
L72650 45010
L72600 44980
L72510 44960
L72460 44940
L72440 44910
L72410 44860
L72410 44820
L72440 44770
L72460 44750
L72510 44720
L72630 44720
L72700 44750
" />
</g>
</g>
<g style="fill:#008484; fill-opacity:0.0; 
stroke:#008484; stroke-width:0; stroke-opacity:1; 
stroke-linecap:round; stroke-linejoin:round;">
<g >
</g>
<g style="fill:#840000; fill-opacity:0.0; 
stroke:#840000; stroke-width:0; stroke-opacity:1; 
stroke-linecap:round; stroke-linejoin:round;">
</g>
<g style="fill:#840000; fill-opacity:0.0; 
stroke:#840000; stroke-width:60; stroke-opacity:1; 
stroke-linecap:round; stroke-linejoin:round;">
<path style="fill:#840000; fill-opacity:0.0; 
stroke:#840000; stroke-width:60; stroke-opacity:1; 
stroke-linecap:round; stroke-linejoin:round;fill:none"
d="M 47750,43750
47750,44250
48250,44250
47750,44750
47250,44250
47750,44250
" /> 
</g>
<g style="fill:#008484; fill-opacity:0.0; 
stroke:#008484; stroke-width:60; stroke-opacity:1; 
stroke-linecap:round; stroke-linejoin:round;">
<text x="47800" y="45750"
textLength="2060" font-size="660" lengthAdjust="spacingAndGlyphs"
text-anchor="middle" opacity="0">GNDS</text>
<path d="M47180 45250
L47130 45220
L47060 45220
L46990 45250
L46940 45290
L46910 45340
L46890 45440
L46890 45510
L46910 45600
L46940 45650
L46990 45700
L47060 45720
L47100 45720
L47180 45700
L47200 45670
L47200 45510
L47100 45510
" />
<path d="M47410 45720
L47410 45220
L47700 45720
L47700 45220
" />
<path d="M47940 45720
L47940 45220
L48060 45220
L48130 45250
L48180 45290
L48200 45340
L48220 45440
L48220 45510
L48200 45600
L48180 45650
L48130 45700
L48060 45720
L47940 45720
" />
<path d="M48410 45700
L48490 45720
L48600 45720
L48650 45700
L48680 45670
L48700 45630
L48700 45580
L48680 45530
L48650 45510
L48600 45480
L48510 45460
L48460 45440
L48440 45410
L48410 45360
L48410 45320
L48440 45270
L48460 45250
L48510 45220
L48630 45220
L48700 45250
" />
</g>
</g>
<g style="fill:#008484; fill-opacity:0.0; 
stroke:#008484; stroke-width:60; stroke-opacity:1; 
stroke-linecap:round; stroke-linejoin:round;">
</g>
<g style="fill:#008400; fill-opacity:0.0; 
stroke:#008400; stroke-width:60; stroke-opacity:1; 
stroke-linecap:round; stroke-linejoin:round;">
<path d="M47750 31250
L47750 32250
" />
<path d="M71750 41500
L71750 43250
" />
<path d="M47750 32250
L47750 33250
" />
<path d="M47750 33250
L47750 34250
" />
<path d="M47750 34250
L47750 35250
" />
<path d="M47750 35250
L47750 36250
" />
<path d="M47750 36250
L47750 37250
" />
<path d="M47750 37250
L47750 38250
" />
<path d="M47750 38250
L47750 39250
" />
<path d="M47750 39250
L47750 43750
" />
<path d="M78500 31500
L74500 31500
" />
<path d="M78500 33500
L71750 33500
" />
<path d="M71750 33500
L71750 41500
" />
<path d="M78500 32500
L74500 32500
" />
<path d="M78500 34500
L74500 34500
" />
<path d="M78500 35500
L74500 35500
" />
<path d="M78500 36500
L74500 36500
" />
<path d="M66750 43500
L66750 41500
" />
<path d="M66750 41500
L71750 41500
" />
<path d="M38750 37250
L32250 37250
" />
<path d="M47750 36250
L43750 36250
" />
<path d="M47750 35250
L43750 35250
" />
<path d="M47750 34250
L43750 34250
" />
<path d="M47750 32250
L43750 32250
" />
<path d="M47750 31250
L43750 31250
" />
<path d="M47750 30250
L43750 30250
" />
<path d="M38750 39250
L32250 39250
" />
<path d="M38750 38250
L32250 38250
" />
<path d="M47750 33250
L43750 33250
" />
<path d="M38750 36250
L32250 36250
" />
<path d="M38750 35250
L32250 35250
" />
<path d="M38750 34250
L32250 34250
" />
<path d="M38750 33250
L32250 33250
" />
<path d="M38750 32250
L32250 32250
" />
<path d="M38750 31250
L32250 31250
" />
<path d="M38750 30250
L32250 30250
" />
<path d="M47750 38250
L43750 38250
" />
<path d="M47750 39250
L43750 39250
" />
<path d="M47750 37250
L43750 37250
" />
</g>
<g style="fill:#000000; fill-opacity:0.0; 
stroke:#000000; stroke-width:60; stroke-opacity:1; 
stroke-linecap:round; stroke-linejoin:round;">
<text x="35000" y="39150"
textLength="960" font-size="660" lengthAdjust="spacingAndGlyphs"
text-anchor="start" opacity="0">5V</text>
<path d="M35380 38620
L35140 38620
L35120 38860
L35140 38840
L35190 38810
L35310 38810
L35360 38840
L35380 38860
L35410 38910
L35410 39030
L35380 39070
L35360 39100
L35310 39120
L35190 39120
L35140 39100
L35120 39070
" />
<path d="M35550 38620
L35720 39120
L35880 38620
" />
<text x="32250" y="33150"
textLength="1490" font-size="660" lengthAdjust="spacingAndGlyphs"
text-anchor="start" opacity="0">TMS</text>
<path d="M32320 32620
L32610 32620
" />
<path d="M32470 33120
L32470 32620
" />
<path d="M32780 33120
L32780 32620
L32940 32980
L33110 32620
L33110 33120
" />
<path d="M33320 33100
L33390 33120
L33510 33120
L33560 33100
L33580 33070
L33610 33030
L33610 32980
L33580 32930
L33560 32910
L33510 32880
L33420 32860
L33370 32840
L33350 32810
L33320 32760
L33320 32720
L33350 32670
L33370 32650
L33420 32620
L33540 32620
L33610 32650
" />
<text x="32250" y="34150"
textLength="1440" font-size="660" lengthAdjust="spacingAndGlyphs"
text-anchor="start" opacity="0">TCK</text>
<path d="M32320 33620
L32610 33620
" />
<path d="M32470 34120
L32470 33620
" />
<path d="M33060 34070
L33040 34100
L32970 34120
L32920 34120
L32850 34100
L32800 34050
L32780 34000
L32750 33910
L32750 33840
L32780 33740
L32800 33690
L32850 33650
L32920 33620
L32970 33620
L33040 33650
L33060 33670
" />
<path d="M33280 34120
L33280 33620
" />
<path d="M33560 34120
L33350 33840
" />
<path d="M33560 33620
L33280 33910
" />
<text x="34750" y="35150"
textLength="1940" font-size="660" lengthAdjust="spacingAndGlyphs"
text-anchor="start" opacity="0">RTCK</text>
<path d="M35180 35120
L35010 34880
" />
<path d="M34890 35120
L34890 34620
L35080 34620
L35130 34650
L35160 34670
L35180 34720
L35180 34790
L35160 34840
L35130 34860
L35080 34880
L34890 34880
" />
<path d="M35320 34620
L35610 34620
" />
<path d="M35470 35120
L35470 34620
" />
<path d="M36060 35070
L36040 35100
L35970 35120
L35920 35120
L35850 35100
L35800 35050
L35780 35000
L35750 34910
L35750 34840
L35780 34740
L35800 34690
L35850 34650
L35920 34620
L35970 34620
L36040 34650
L36060 34670
" />
<path d="M36280 35120
L36280 34620
" />
<path d="M36560 35120
L36350 34840
" />
<path d="M36560 34620
L36280 34910
" />
<text x="32250" y="36150"
textLength="1460" font-size="660" lengthAdjust="spacingAndGlyphs"
text-anchor="start" opacity="0">TDO</text>
<path d="M32320 35620
L32610 35620
" />
<path d="M32470 36120
L32470 35620
" />
<path d="M32780 36120
L32780 35620
L32890 35620
L32970 35650
L33010 35690
L33040 35740
L33060 35840
L33060 35910
L33040 36000
L33010 36050
L32970 36100
L32890 36120
L32780 36120
" />
<path d="M33370 35620
L33470 35620
L33510 35650
L33560 35690
L33580 35790
L33580 35950
L33560 36050
L33510 36100
L33470 36120
L33370 36120
L33320 36100
L33280 36050
L33250 35950
L33250 35790
L33280 35690
L33320 35650
L33370 35620
" />
<text x="74500" y="36400"
textLength="1460" font-size="660" lengthAdjust="spacingAndGlyphs"
text-anchor="start" opacity="0">TDO</text>
<path d="M74570 35870
L74860 35870
" />
<path d="M74720 36370
L74720 35870
" />
<path d="M75030 36370
L75030 35870
L75140 35870
L75220 35900
L75260 35940
L75290 35990
L75310 36090
L75310 36160
L75290 36250
L75260 36300
L75220 36350
L75140 36370
L75030 36370
" />
<path d="M75620 35870
L75720 35870
L75760 35900
L75810 35940
L75830 36040
L75830 36200
L75810 36300
L75760 36350
L75720 36370
L75620 36370
L75570 36350
L75530 36300
L75500 36200
L75500 36040
L75530 35940
L75570 35900
L75620 35870
" />
<text x="32250" y="37150"
textLength="2320" font-size="660" lengthAdjust="spacingAndGlyphs"
text-anchor="start" opacity="0">RESET</text>
<path d="M32680 37120
L32510 36880
" />
<path d="M32390 37120
L32390 36620
L32580 36620
L32630 36650
L32660 36670
L32680 36720
L32680 36790
L32660 36840
L32630 36860
L32580 36880
L32390 36880
" />
<path d="M32890 36860
L33060 36860
" />
<path d="M33130 37120
L32890 37120
L32890 36620
L33130 36620
" />
<path d="M33320 37100
L33390 37120
L33510 37120
L33560 37100
L33580 37070
L33610 37030
L33610 36980
L33580 36930
L33560 36910
L33510 36880
L33420 36860
L33370 36840
L33350 36810
L33320 36760
L33320 36720
L33350 36670
L33370 36650
L33420 36620
L33540 36620
L33610 36650
" />
<path d="M33820 36860
L33990 36860
" />
<path d="M34060 37120
L33820 37120
L33820 36620
L34060 36620
" />
<path d="M34200 36620
L34490 36620
" />
<path d="M34350 37120
L34350 36620
" />
<text x="74500" y="35400"
textLength="2320" font-size="660" lengthAdjust="spacingAndGlyphs"
text-anchor="start" opacity="0">RESET</text>
<path d="M74930 35370
L74760 35130
" />
<path d="M74640 35370
L74640 34870
L74830 34870
L74880 34900
L74910 34920
L74930 34970
L74930 35040
L74910 35090
L74880 35110
L74830 35130
L74640 35130
" />
<path d="M75140 35110
L75310 35110
" />
<path d="M75380 35370
L75140 35370
L75140 34870
L75380 34870
" />
<path d="M75570 35350
L75640 35370
L75760 35370
L75810 35350
L75830 35320
L75860 35280
L75860 35230
L75830 35180
L75810 35160
L75760 35130
L75670 35110
L75620 35090
L75600 35060
L75570 35010
L75570 34970
L75600 34920
L75620 34900
L75670 34870
L75790 34870
L75860 34900
" />
<path d="M76070 35110
L76240 35110
" />
<path d="M76310 35370
L76070 35370
L76070 34870
L76310 34870
" />
<path d="M76450 34870
L76740 34870
" />
<path d="M76600 35370
L76600 34870
" />
<text x="34500" y="38150"
textLength="2580" font-size="660" lengthAdjust="spacingAndGlyphs"
text-anchor="start" opacity="0">DBGRQ</text>
<path d="M34640 38120
L34640 37620
L34760 37620
L34830 37650
L34880 37690
L34910 37740
L34930 37840
L34930 37910
L34910 38000
L34880 38050
L34830 38100
L34760 38120
L34640 38120
" />
<path d="M35310 37860
L35380 37880
L35410 37910
L35430 37950
L35430 38030
L35410 38070
L35380 38100
L35330 38120
L35140 38120
L35140 37620
L35310 37620
L35360 37650
L35380 37670
L35410 37720
L35410 37760
L35380 37810
L35360 37840
L35310 37860
L35140 37860
" />
<path d="M35910 37650
L35860 37620
L35790 37620
L35720 37650
L35670 37690
L35640 37740
L35620 37840
L35620 37910
L35640 38000
L35670 38050
L35720 38100
L35790 38120
L35830 38120
L35910 38100
L35930 38070
L35930 37910
L35830 37910
" />
<path d="M36430 38120
L36260 37880
" />
<path d="M36140 38120
L36140 37620
L36330 37620
L36380 37650
L36410 37670
L36430 37720
L36430 37790
L36410 37840
L36380 37860
L36330 37880
L36140 37880
" />
<path d="M36980 38170
L36930 38150
L36880 38100
L36810 38030
L36760 38000
L36720 38000
" />
<path d="M36740 38120
L36690 38100
L36640 38050
L36620 37950
L36620 37790
L36640 37690
L36690 37650
L36740 37620
L36830 37620
L36880 37650
L36930 37690
L36950 37790
L36950 37950
L36930 38050
L36880 38100
L36830 38120
L36740 38120
" />
<text x="74500" y="34400"
textLength="1490" font-size="660" lengthAdjust="spacingAndGlyphs"
text-anchor="start" opacity="0">TMS</text>
<path d="M74570 33870
L74860 33870
" />
<path d="M74720 34370
L74720 33870
" />
<path d="M75030 34370
L75030 33870
L75190 34230
L75360 33870
L75360 34370
" />
<path d="M75570 34350
L75640 34370
L75760 34370
L75810 34350
L75830 34320
L75860 34280
L75860 34230
L75830 34180
L75810 34160
L75760 34130
L75670 34110
L75620 34090
L75600 34060
L75570 34010
L75570 33970
L75600 33920
L75620 33900
L75670 33870
L75790 33870
L75860 33900
" />
<text x="74500" y="32400"
textLength="1440" font-size="660" lengthAdjust="spacingAndGlyphs"
text-anchor="start" opacity="0">TCK</text>
<path d="M74570 31870
L74860 31870
" />
<path d="M74720 32370
L74720 31870
" />
<path d="M75310 32320
L75290 32350
L75220 32370
L75170 32370
L75100 32350
L75050 32300
L75030 32250
L75000 32160
L75000 32090
L75030 31990
L75050 31940
L75100 31900
L75170 31870
L75220 31870
L75290 31900
L75310 31920
" />
<path d="M75530 32370
L75530 31870
" />
<path d="M75810 32370
L75600 32090
" />
<path d="M75810 31870
L75530 32160
" />
<text x="46000" y="30150"
textLength="1080" font-size="660" lengthAdjust="spacingAndGlyphs"
text-anchor="end" opacity="0">NC</text>
<path d="M45060 30120
L45060 29620
L45350 30120
L45350 29620
" />
<path d="M45870 30070
L45850 30100
L45770 30120
L45730 30120
L45660 30100
L45610 30050
L45580 30000
L45560 29910
L45560 29840
L45580 29740
L45610 29690
L45660 29650
L45730 29620
L45770 29620
L45850 29650
L45870 29670
" />
<text x="34500" y="31150"
textLength="2250" font-size="660" lengthAdjust="spacingAndGlyphs"
text-anchor="start" opacity="0">nTRST</text>
<path d="M34640 30790
L34640 31120
" />
<path d="M34640 30840
L34670 30810
L34720 30790
L34790 30790
L34830 30810
L34860 30860
L34860 31120
" />
<path d="M35030 30620
L35310 30620
" />
<path d="M35170 31120
L35170 30620
" />
<path d="M35760 31120
L35600 30880
" />
<path d="M35480 31120
L35480 30620
L35670 30620
L35720 30650
L35740 30670
L35760 30720
L35760 30790
L35740 30840
L35720 30860
L35670 30880
L35480 30880
" />
<path d="M35950 31100
L36030 31120
L36140 31120
L36190 31100
L36220 31070
L36240 31030
L36240 30980
L36220 30930
L36190 30910
L36140 30880
L36050 30860
L36000 30840
L35980 30810
L35950 30760
L35950 30720
L35980 30670
L36000 30650
L36050 30620
L36170 30620
L36240 30650
" />
<path d="M36380 30620
L36670 30620
" />
<path d="M36530 31120
L36530 30620
" />
<text x="32250" y="30150"
textLength="1890" font-size="660" lengthAdjust="spacingAndGlyphs"
text-anchor="start" opacity="0">VTref</text>
<path d="M32320 29620
L32490 30120
L32660 29620
" />
<path d="M32750 29620
L33040 29620
" />
<path d="M32890 30120
L32890 29620
" />
<path d="M33200 30120
L33200 29790
" />
<path d="M33200 29880
L33230 29840
L33250 29810
L33300 29790
L33350 29790
" />
<path d="M33700 30100
L33660 30120
L33560 30120
L33510 30100
L33490 30050
L33490 29860
L33510 29810
L33560 29790
L33660 29790
L33700 29810
L33730 29860
L33730 29910
L33490 29950
" />
<path d="M33870 29790
L34060 29790
" />
<path d="M33940 30120
L33940 29690
L33970 29650
L34010 29620
L34060 29620
" />
<text x="74500" y="31400"
textLength="1890" font-size="660" lengthAdjust="spacingAndGlyphs"
text-anchor="start" opacity="0">VTref</text>
<path d="M74570 30870
L74740 31370
L74910 30870
" />
<path d="M75000 30870
L75290 30870
" />
<path d="M75140 31370
L75140 30870
" />
<path d="M75450 31370
L75450 31040
" />
<path d="M75450 31130
L75480 31090
L75500 31060
L75550 31040
L75600 31040
" />
<path d="M75950 31350
L75910 31370
L75810 31370
L75760 31350
L75740 31300
L75740 31110
L75760 31060
L75810 31040
L75910 31040
L75950 31060
L75980 31110
L75980 31160
L75740 31200
" />
<path d="M76120 31040
L76310 31040
" />
<path d="M76190 31370
L76190 30940
L76220 30900
L76260 30870
L76310 30870
" />
<text x="35250" y="32150"
textLength="1180" font-size="660" lengthAdjust="spacingAndGlyphs"
text-anchor="start" opacity="0">TDI</text>
<path d="M35320 31620
L35610 31620
" />
<path d="M35470 32120
L35470 31620
" />
<path d="M35780 32120
L35780 31620
L35890 31620
L35970 31650
L36010 31690
L36040 31740
L36060 31840
L36060 31910
L36040 32000
L36010 32050
L35970 32100
L35890 32120
L35780 32120
" />
<path d="M36280 32120
L36280 31620
" />
</g>
<g style="fill:#000000; fill-opacity:0.0; 
stroke:#000000; stroke-width:0; stroke-opacity:1; 
stroke-linecap:round; stroke-linejoin:round;">
</g>
<g style="fill:#008400; fill-opacity:0.0; 
stroke:#008400; stroke-width:0; stroke-opacity:1; 
stroke-linecap:round; stroke-linejoin:round;">
</g>
<g style="fill:#008400; fill-opacity:1.0; 
stroke:#008400; stroke-width:100; stroke-opacity:1; 
stroke-linecap:round; stroke-linejoin:round;">
<circle cx="47750" cy="32250" r="200" /> 
</g>
<g style="fill:#008400; fill-opacity:1.0; 
stroke:#008400; stroke-width:0; stroke-opacity:1; 
stroke-linecap:round; stroke-linejoin:round;">
</g>
<g style="fill:#008400; fill-opacity:1.0; 
stroke:#008400; stroke-width:100; stroke-opacity:1; 
stroke-linecap:round; stroke-linejoin:round;">
<circle cx="47750" cy="36250" r="200" /> 
</g>
<g style="fill:#008400; fill-opacity:1.0; 
stroke:#008400; stroke-width:0; stroke-opacity:1; 
stroke-linecap:round; stroke-linejoin:round;">
</g>
<g style="fill:#008400; fill-opacity:1.0; 
stroke:#008400; stroke-width:100; stroke-opacity:1; 
stroke-linecap:round; stroke-linejoin:round;">
<circle cx="71750" cy="41500" r="200" /> 
</g>
<g style="fill:#008400; fill-opacity:1.0; 
stroke:#008400; stroke-width:0; stroke-opacity:1; 
stroke-linecap:round; stroke-linejoin:round;">
</g>
<g style="fill:#008400; fill-opacity:1.0; 
stroke:#008400; stroke-width:100; stroke-opacity:1; 
stroke-linecap:round; stroke-linejoin:round;">
<circle cx="47750" cy="35250" r="200" /> 
</g>
<g style="fill:#008400; fill-opacity:1.0; 
stroke:#008400; stroke-width:0; stroke-opacity:1; 
stroke-linecap:round; stroke-linejoin:round;">
</g>
<g style="fill:#008400; fill-opacity:1.0; 
stroke:#008400; stroke-width:100; stroke-opacity:1; 
stroke-linecap:round; stroke-linejoin:round;">
<circle cx="47750" cy="37250" r="200" /> 
</g>
<g style="fill:#008400; fill-opacity:1.0; 
stroke:#008400; stroke-width:0; stroke-opacity:1; 
stroke-linecap:round; stroke-linejoin:round;">
</g>
<g style="fill:#008400; fill-opacity:1.0; 
stroke:#008400; stroke-width:100; stroke-opacity:1; 
stroke-linecap:round; stroke-linejoin:round;">
<circle cx="47750" cy="38250" r="200" /> 
</g>
<g style="fill:#008400; fill-opacity:1.0; 
stroke:#008400; stroke-width:0; stroke-opacity:1; 
stroke-linecap:round; stroke-linejoin:round;">
</g>
<g style="fill:#008400; fill-opacity:1.0; 
stroke:#008400; stroke-width:100; stroke-opacity:1; 
stroke-linecap:round; stroke-linejoin:round;">
<circle cx="47750" cy="34250" r="200" /> 
</g>
<g style="fill:#008400; fill-opacity:1.0; 
stroke:#008400; stroke-width:0; stroke-opacity:1; 
stroke-linecap:round; stroke-linejoin:round;">
</g>
<g style="fill:#008400; fill-opacity:1.0; 
stroke:#008400; stroke-width:100; stroke-opacity:1; 
stroke-linecap:round; stroke-linejoin:round;">
<circle cx="47750" cy="39250" r="200" /> 
</g>
<g style="fill:#008400; fill-opacity:1.0; 
stroke:#008400; stroke-width:0; stroke-opacity:1; 
stroke-linecap:round; stroke-linejoin:round;">
</g>
<g style="fill:#008400; fill-opacity:1.0; 
stroke:#008400; stroke-width:100; stroke-opacity:1; 
stroke-linecap:round; stroke-linejoin:round;">
<circle cx="47750" cy="33250" r="200" /> 
</g>
<g style="fill:#008400; fill-opacity:1.0; 
stroke:#008400; stroke-width:60; stroke-opacity:1; 
stroke-linecap:round; stroke-linejoin:round;">
</g>
<g style="fill:#000084; fill-opacity:1.0; 
stroke:#000084; stroke-width:60; stroke-opacity:1; 
stroke-linecap:round; stroke-linejoin:round;">
</g>
<g style="fill:#000084; fill-opacity:0.0; 
stroke:#000084; stroke-width:60; stroke-opacity:1; 
stroke-linecap:round; stroke-linejoin:round;">
<path d="M32010 35010
L32490 35490
" />
<path d="M32490 35010
L32010 35490
" />
<path d="M32010 38010
L32490 38490
" />
<path d="M32490 38010
L32010 38490
" />
<path d="M32010 39010
L32490 39490
" />
<path d="M32490 39010
L32010 39490
" />
<path d="M47510 30010
L47990 30490
" />
<path d="M47990 30010
L47510 30490
" />
<path d="M32010 32010
L32490 32490
" />
<path d="M32490 32010
L32010 32490
" />
<path d="M32010 31010
L32490 31490
" />
<path d="M32490 31010
L32010 31490
" />
</g> 
</svg>
