%TF.GenerationSoftware,KiCad,Pcbnew,5.1.8-db9833491~87~ubuntu18.04.1*%
%TF.CreationDate,2020-11-28T12:04:11+00:00*%
%TF.ProjectId,JLink_6Pin_SWD_Adaptor,4a4c696e-6b5f-4365-9069-6e5f5357445f,rev?*%
%TF.SameCoordinates,Original*%
%TF.FileFunction,Copper,L2,Bot*%
%TF.FilePolarity,Positive*%
%FSLAX46Y46*%
G04 Gerber Fmt 4.6, Leading zero omitted, Abs format (unit mm)*
G04 Created by KiCad (PCBNEW 5.1.8-db9833491~87~ubuntu18.04.1) date 2020-11-28 12:04:11*
%MOMM*%
%LPD*%
G01*
G04 APERTURE LIST*
%TA.AperFunction,SMDPad,CuDef*%
%ADD10R,2.600000X1.524000*%
%TD*%
%TA.AperFunction,ComponentPad*%
%ADD11O,2.190000X1.740000*%
%TD*%
%TA.AperFunction,ViaPad*%
%ADD12C,0.800000*%
%TD*%
%TA.AperFunction,Conductor*%
%ADD13C,1.500000*%
%TD*%
%TA.AperFunction,Conductor*%
%ADD14C,0.254000*%
%TD*%
%TA.AperFunction,Conductor*%
%ADD15C,0.100000*%
%TD*%
G04 APERTURE END LIST*
D10*
%TO.P,J1,2*%
%TO.N,/NC*%
X140970000Y-68580000D03*
%TO.P,J1,4*%
%TO.N,GNDS*%
X140970000Y-71120000D03*
%TO.P,J1,6*%
X140970000Y-73660000D03*
%TO.P,J1,8*%
X140970000Y-76200000D03*
%TO.P,J1,10*%
X140970000Y-78740000D03*
%TO.P,J1,12*%
X140970000Y-81280000D03*
%TO.P,J1,14*%
X140970000Y-83820000D03*
%TO.P,J1,16*%
X140970000Y-86360000D03*
%TO.P,J1,18*%
X140970000Y-88900000D03*
%TO.P,J1,20*%
X140970000Y-91440000D03*
%TD*%
D11*
%TO.P,J2,6*%
%TO.N,/TDO*%
X149225000Y-85725000D03*
%TO.P,J2,5*%
%TO.N,/RESET*%
X149225000Y-83185000D03*
%TO.P,J2,4*%
%TO.N,/TMS*%
X149225000Y-80645000D03*
%TO.P,J2,3*%
%TO.N,GNDS*%
X149225000Y-78105000D03*
%TO.P,J2,2*%
%TO.N,/TCK*%
X149225000Y-75565000D03*
%TO.P,J2,1*%
%TO.N,/VTref*%
%TA.AperFunction,ComponentPad*%
G36*
G01*
X148379999Y-72155000D02*
X150070001Y-72155000D01*
G75*
G02*
X150320000Y-72404999I0J-249999D01*
G01*
X150320000Y-73645001D01*
G75*
G02*
X150070001Y-73895000I-249999J0D01*
G01*
X148379999Y-73895000D01*
G75*
G02*
X148130000Y-73645001I0J249999D01*
G01*
X148130000Y-72404999D01*
G75*
G02*
X148379999Y-72155000I249999J0D01*
G01*
G37*
%TD.AperFunction*%
%TD*%
D12*
%TO.N,/TCK*%
X144145012Y-77470000D03*
%TD*%
D13*
%TO.N,/TCK*%
X144145012Y-75565000D02*
X144145012Y-77470000D01*
X149225000Y-75565000D02*
X144145012Y-75565000D01*
%TD*%
D14*
%TO.N,GNDS*%
X151740001Y-92050000D02*
X140360000Y-92050000D01*
X140360000Y-80645000D01*
X147487718Y-80645000D01*
X147516776Y-80940032D01*
X147602834Y-81223725D01*
X147742583Y-81485179D01*
X147930655Y-81714345D01*
X148159821Y-81902417D01*
X148183362Y-81915000D01*
X148159821Y-81927583D01*
X147930655Y-82115655D01*
X147742583Y-82344821D01*
X147602834Y-82606275D01*
X147516776Y-82889968D01*
X147487718Y-83185000D01*
X147516776Y-83480032D01*
X147602834Y-83763725D01*
X147742583Y-84025179D01*
X147930655Y-84254345D01*
X148159821Y-84442417D01*
X148183362Y-84455000D01*
X148159821Y-84467583D01*
X147930655Y-84655655D01*
X147742583Y-84884821D01*
X147602834Y-85146275D01*
X147516776Y-85429968D01*
X147487718Y-85725000D01*
X147516776Y-86020032D01*
X147602834Y-86303725D01*
X147742583Y-86565179D01*
X147930655Y-86794345D01*
X148159821Y-86982417D01*
X148421275Y-87122166D01*
X148704968Y-87208224D01*
X148926064Y-87230000D01*
X149523936Y-87230000D01*
X149745032Y-87208224D01*
X150028725Y-87122166D01*
X150290179Y-86982417D01*
X150519345Y-86794345D01*
X150707417Y-86565179D01*
X150847166Y-86303725D01*
X150933224Y-86020032D01*
X150962282Y-85725000D01*
X150933224Y-85429968D01*
X150847166Y-85146275D01*
X150707417Y-84884821D01*
X150519345Y-84655655D01*
X150290179Y-84467583D01*
X150266638Y-84455000D01*
X150290179Y-84442417D01*
X150519345Y-84254345D01*
X150707417Y-84025179D01*
X150847166Y-83763725D01*
X150933224Y-83480032D01*
X150962282Y-83185000D01*
X150933224Y-82889968D01*
X150847166Y-82606275D01*
X150707417Y-82344821D01*
X150519345Y-82115655D01*
X150290179Y-81927583D01*
X150266638Y-81915000D01*
X150290179Y-81902417D01*
X150519345Y-81714345D01*
X150707417Y-81485179D01*
X150847166Y-81223725D01*
X150933224Y-80940032D01*
X150962282Y-80645000D01*
X150933224Y-80349968D01*
X150847166Y-80066275D01*
X150707417Y-79804821D01*
X150519345Y-79575655D01*
X150290179Y-79387583D01*
X150028725Y-79247834D01*
X149745032Y-79161776D01*
X149523936Y-79140000D01*
X148926064Y-79140000D01*
X148704968Y-79161776D01*
X148421275Y-79247834D01*
X148159821Y-79387583D01*
X147930655Y-79575655D01*
X147742583Y-79804821D01*
X147602834Y-80066275D01*
X147516776Y-80349968D01*
X147487718Y-80645000D01*
X140360000Y-80645000D01*
X140360000Y-75565000D01*
X142753311Y-75565000D01*
X142760012Y-75633037D01*
X142760013Y-77538037D01*
X142780053Y-77741507D01*
X142859249Y-78002581D01*
X142987856Y-78243188D01*
X143160932Y-78454081D01*
X143371825Y-78627157D01*
X143612432Y-78755764D01*
X143873506Y-78834960D01*
X144145012Y-78861701D01*
X144416519Y-78834960D01*
X144677593Y-78755764D01*
X144918200Y-78627157D01*
X145129093Y-78454081D01*
X145302169Y-78243188D01*
X145430776Y-78002581D01*
X145509972Y-77741507D01*
X145530012Y-77538037D01*
X145530012Y-76950000D01*
X148398514Y-76950000D01*
X148421275Y-76962166D01*
X148704968Y-77048224D01*
X148926064Y-77070000D01*
X149523936Y-77070000D01*
X149745032Y-77048224D01*
X150028725Y-76962166D01*
X150290179Y-76822417D01*
X150519345Y-76634345D01*
X150707417Y-76405179D01*
X150847166Y-76143725D01*
X150933224Y-75860032D01*
X150962282Y-75565000D01*
X150933224Y-75269968D01*
X150847166Y-74986275D01*
X150707417Y-74724821D01*
X150519345Y-74495655D01*
X150453886Y-74441934D01*
X150563387Y-74383405D01*
X150697962Y-74272962D01*
X150808405Y-74138387D01*
X150890472Y-73984851D01*
X150941008Y-73818255D01*
X150958072Y-73645001D01*
X150958072Y-72404999D01*
X150941008Y-72231745D01*
X150890472Y-72065149D01*
X150808405Y-71911613D01*
X150697962Y-71777038D01*
X150563387Y-71666595D01*
X150409851Y-71584528D01*
X150243255Y-71533992D01*
X150070001Y-71516928D01*
X148379999Y-71516928D01*
X148206745Y-71533992D01*
X148040149Y-71584528D01*
X147886613Y-71666595D01*
X147752038Y-71777038D01*
X147641595Y-71911613D01*
X147559528Y-72065149D01*
X147508992Y-72231745D01*
X147491928Y-72404999D01*
X147491928Y-73645001D01*
X147508992Y-73818255D01*
X147559528Y-73984851D01*
X147641595Y-74138387D01*
X147675746Y-74180000D01*
X144213048Y-74180000D01*
X144145012Y-74173299D01*
X144076975Y-74180000D01*
X143873505Y-74200040D01*
X143612431Y-74279236D01*
X143371824Y-74407843D01*
X143160931Y-74580919D01*
X142987855Y-74791812D01*
X142859248Y-75032419D01*
X142780052Y-75293493D01*
X142753311Y-75565000D01*
X140360000Y-75565000D01*
X140360000Y-69980072D01*
X142270000Y-69980072D01*
X142394482Y-69967812D01*
X142514180Y-69931502D01*
X142624494Y-69872537D01*
X142721185Y-69793185D01*
X142800537Y-69696494D01*
X142859502Y-69586180D01*
X142895812Y-69466482D01*
X142908072Y-69342000D01*
X142908072Y-67818000D01*
X142895812Y-67693518D01*
X142859502Y-67573820D01*
X142800537Y-67463506D01*
X142721185Y-67366815D01*
X142624494Y-67287463D01*
X142514180Y-67228498D01*
X142394482Y-67192188D01*
X142270000Y-67179928D01*
X140360000Y-67179928D01*
X140360000Y-65176000D01*
X151740000Y-65176000D01*
X151740001Y-92050000D01*
%TA.AperFunction,Conductor*%
D15*
G36*
X151740001Y-92050000D02*
G01*
X140360000Y-92050000D01*
X140360000Y-80645000D01*
X147487718Y-80645000D01*
X147516776Y-80940032D01*
X147602834Y-81223725D01*
X147742583Y-81485179D01*
X147930655Y-81714345D01*
X148159821Y-81902417D01*
X148183362Y-81915000D01*
X148159821Y-81927583D01*
X147930655Y-82115655D01*
X147742583Y-82344821D01*
X147602834Y-82606275D01*
X147516776Y-82889968D01*
X147487718Y-83185000D01*
X147516776Y-83480032D01*
X147602834Y-83763725D01*
X147742583Y-84025179D01*
X147930655Y-84254345D01*
X148159821Y-84442417D01*
X148183362Y-84455000D01*
X148159821Y-84467583D01*
X147930655Y-84655655D01*
X147742583Y-84884821D01*
X147602834Y-85146275D01*
X147516776Y-85429968D01*
X147487718Y-85725000D01*
X147516776Y-86020032D01*
X147602834Y-86303725D01*
X147742583Y-86565179D01*
X147930655Y-86794345D01*
X148159821Y-86982417D01*
X148421275Y-87122166D01*
X148704968Y-87208224D01*
X148926064Y-87230000D01*
X149523936Y-87230000D01*
X149745032Y-87208224D01*
X150028725Y-87122166D01*
X150290179Y-86982417D01*
X150519345Y-86794345D01*
X150707417Y-86565179D01*
X150847166Y-86303725D01*
X150933224Y-86020032D01*
X150962282Y-85725000D01*
X150933224Y-85429968D01*
X150847166Y-85146275D01*
X150707417Y-84884821D01*
X150519345Y-84655655D01*
X150290179Y-84467583D01*
X150266638Y-84455000D01*
X150290179Y-84442417D01*
X150519345Y-84254345D01*
X150707417Y-84025179D01*
X150847166Y-83763725D01*
X150933224Y-83480032D01*
X150962282Y-83185000D01*
X150933224Y-82889968D01*
X150847166Y-82606275D01*
X150707417Y-82344821D01*
X150519345Y-82115655D01*
X150290179Y-81927583D01*
X150266638Y-81915000D01*
X150290179Y-81902417D01*
X150519345Y-81714345D01*
X150707417Y-81485179D01*
X150847166Y-81223725D01*
X150933224Y-80940032D01*
X150962282Y-80645000D01*
X150933224Y-80349968D01*
X150847166Y-80066275D01*
X150707417Y-79804821D01*
X150519345Y-79575655D01*
X150290179Y-79387583D01*
X150028725Y-79247834D01*
X149745032Y-79161776D01*
X149523936Y-79140000D01*
X148926064Y-79140000D01*
X148704968Y-79161776D01*
X148421275Y-79247834D01*
X148159821Y-79387583D01*
X147930655Y-79575655D01*
X147742583Y-79804821D01*
X147602834Y-80066275D01*
X147516776Y-80349968D01*
X147487718Y-80645000D01*
X140360000Y-80645000D01*
X140360000Y-75565000D01*
X142753311Y-75565000D01*
X142760012Y-75633037D01*
X142760013Y-77538037D01*
X142780053Y-77741507D01*
X142859249Y-78002581D01*
X142987856Y-78243188D01*
X143160932Y-78454081D01*
X143371825Y-78627157D01*
X143612432Y-78755764D01*
X143873506Y-78834960D01*
X144145012Y-78861701D01*
X144416519Y-78834960D01*
X144677593Y-78755764D01*
X144918200Y-78627157D01*
X145129093Y-78454081D01*
X145302169Y-78243188D01*
X145430776Y-78002581D01*
X145509972Y-77741507D01*
X145530012Y-77538037D01*
X145530012Y-76950000D01*
X148398514Y-76950000D01*
X148421275Y-76962166D01*
X148704968Y-77048224D01*
X148926064Y-77070000D01*
X149523936Y-77070000D01*
X149745032Y-77048224D01*
X150028725Y-76962166D01*
X150290179Y-76822417D01*
X150519345Y-76634345D01*
X150707417Y-76405179D01*
X150847166Y-76143725D01*
X150933224Y-75860032D01*
X150962282Y-75565000D01*
X150933224Y-75269968D01*
X150847166Y-74986275D01*
X150707417Y-74724821D01*
X150519345Y-74495655D01*
X150453886Y-74441934D01*
X150563387Y-74383405D01*
X150697962Y-74272962D01*
X150808405Y-74138387D01*
X150890472Y-73984851D01*
X150941008Y-73818255D01*
X150958072Y-73645001D01*
X150958072Y-72404999D01*
X150941008Y-72231745D01*
X150890472Y-72065149D01*
X150808405Y-71911613D01*
X150697962Y-71777038D01*
X150563387Y-71666595D01*
X150409851Y-71584528D01*
X150243255Y-71533992D01*
X150070001Y-71516928D01*
X148379999Y-71516928D01*
X148206745Y-71533992D01*
X148040149Y-71584528D01*
X147886613Y-71666595D01*
X147752038Y-71777038D01*
X147641595Y-71911613D01*
X147559528Y-72065149D01*
X147508992Y-72231745D01*
X147491928Y-72404999D01*
X147491928Y-73645001D01*
X147508992Y-73818255D01*
X147559528Y-73984851D01*
X147641595Y-74138387D01*
X147675746Y-74180000D01*
X144213048Y-74180000D01*
X144145012Y-74173299D01*
X144076975Y-74180000D01*
X143873505Y-74200040D01*
X143612431Y-74279236D01*
X143371824Y-74407843D01*
X143160931Y-74580919D01*
X142987855Y-74791812D01*
X142859248Y-75032419D01*
X142780052Y-75293493D01*
X142753311Y-75565000D01*
X140360000Y-75565000D01*
X140360000Y-69980072D01*
X142270000Y-69980072D01*
X142394482Y-69967812D01*
X142514180Y-69931502D01*
X142624494Y-69872537D01*
X142721185Y-69793185D01*
X142800537Y-69696494D01*
X142859502Y-69586180D01*
X142895812Y-69466482D01*
X142908072Y-69342000D01*
X142908072Y-67818000D01*
X142895812Y-67693518D01*
X142859502Y-67573820D01*
X142800537Y-67463506D01*
X142721185Y-67366815D01*
X142624494Y-67287463D01*
X142514180Y-67228498D01*
X142394482Y-67192188D01*
X142270000Y-67179928D01*
X140360000Y-67179928D01*
X140360000Y-65176000D01*
X151740000Y-65176000D01*
X151740001Y-92050000D01*
G37*
%TD.AperFunction*%
%TD*%
M02*
