%TF.GenerationSoftware,KiCad,Pcbnew,5.1.8-db9833491~87~ubuntu18.04.1*%
%TF.CreationDate,2020-11-28T12:04:11+00:00*%
%TF.ProjectId,JLink_6Pin_SWD_Adaptor,4a4c696e-6b5f-4365-9069-6e5f5357445f,rev?*%
%TF.SameCoordinates,Original*%
%TF.FileFunction,Legend,Bot*%
%TF.FilePolarity,Positive*%
%FSLAX46Y46*%
G04 Gerber Fmt 4.6, Leading zero omitted, Abs format (unit mm)*
G04 Created by KiCad (PCBNEW 5.1.8-db9833491~87~ubuntu18.04.1) date 2020-11-28 12:04:11*
%MOMM*%
%LPD*%
G01*
G04 APERTURE LIST*
%ADD10C,0.150000*%
%ADD11C,0.120000*%
G04 APERTURE END LIST*
D10*
X146900761Y-86175809D02*
X146786476Y-86213904D01*
X146596000Y-86213904D01*
X146519809Y-86175809D01*
X146481714Y-86137714D01*
X146443619Y-86061523D01*
X146443619Y-85985333D01*
X146481714Y-85909142D01*
X146519809Y-85871047D01*
X146596000Y-85832952D01*
X146748380Y-85794857D01*
X146824571Y-85756761D01*
X146862666Y-85718666D01*
X146900761Y-85642476D01*
X146900761Y-85566285D01*
X146862666Y-85490095D01*
X146824571Y-85452000D01*
X146748380Y-85413904D01*
X146557904Y-85413904D01*
X146443619Y-85452000D01*
X146176952Y-85413904D02*
X145986476Y-86213904D01*
X145834095Y-85642476D01*
X145681714Y-86213904D01*
X145491238Y-85413904D01*
X145034095Y-85413904D02*
X144881714Y-85413904D01*
X144805523Y-85452000D01*
X144729333Y-85528190D01*
X144691238Y-85680571D01*
X144691238Y-85947238D01*
X144729333Y-86099619D01*
X144805523Y-86175809D01*
X144881714Y-86213904D01*
X145034095Y-86213904D01*
X145110285Y-86175809D01*
X145186476Y-86099619D01*
X145224571Y-85947238D01*
X145224571Y-85680571D01*
X145186476Y-85528190D01*
X145110285Y-85452000D01*
X145034095Y-85413904D01*
X146234095Y-83673904D02*
X146500761Y-83292952D01*
X146691238Y-83673904D02*
X146691238Y-82873904D01*
X146386476Y-82873904D01*
X146310285Y-82912000D01*
X146272190Y-82950095D01*
X146234095Y-83026285D01*
X146234095Y-83140571D01*
X146272190Y-83216761D01*
X146310285Y-83254857D01*
X146386476Y-83292952D01*
X146691238Y-83292952D01*
X145929333Y-83635809D02*
X145815047Y-83673904D01*
X145624571Y-83673904D01*
X145548380Y-83635809D01*
X145510285Y-83597714D01*
X145472190Y-83521523D01*
X145472190Y-83445333D01*
X145510285Y-83369142D01*
X145548380Y-83331047D01*
X145624571Y-83292952D01*
X145776952Y-83254857D01*
X145853142Y-83216761D01*
X145891238Y-83178666D01*
X145929333Y-83102476D01*
X145929333Y-83026285D01*
X145891238Y-82950095D01*
X145853142Y-82912000D01*
X145776952Y-82873904D01*
X145586476Y-82873904D01*
X145472190Y-82912000D01*
X145243619Y-82873904D02*
X144786476Y-82873904D01*
X145015047Y-83673904D02*
X145015047Y-82873904D01*
X147034095Y-81095809D02*
X146919809Y-81133904D01*
X146729333Y-81133904D01*
X146653142Y-81095809D01*
X146615047Y-81057714D01*
X146576952Y-80981523D01*
X146576952Y-80905333D01*
X146615047Y-80829142D01*
X146653142Y-80791047D01*
X146729333Y-80752952D01*
X146881714Y-80714857D01*
X146957904Y-80676761D01*
X146996000Y-80638666D01*
X147034095Y-80562476D01*
X147034095Y-80486285D01*
X146996000Y-80410095D01*
X146957904Y-80372000D01*
X146881714Y-80333904D01*
X146691238Y-80333904D01*
X146576952Y-80372000D01*
X146234095Y-81133904D02*
X146234095Y-80333904D01*
X146043619Y-80333904D01*
X145929333Y-80372000D01*
X145853142Y-80448190D01*
X145815047Y-80524380D01*
X145776952Y-80676761D01*
X145776952Y-80791047D01*
X145815047Y-80943428D01*
X145853142Y-81019619D01*
X145929333Y-81095809D01*
X146043619Y-81133904D01*
X146234095Y-81133904D01*
X145434095Y-81133904D02*
X145434095Y-80333904D01*
X144900761Y-80333904D02*
X144748380Y-80333904D01*
X144672190Y-80372000D01*
X144596000Y-80448190D01*
X144557904Y-80600571D01*
X144557904Y-80867238D01*
X144596000Y-81019619D01*
X144672190Y-81095809D01*
X144748380Y-81133904D01*
X144900761Y-81133904D01*
X144976952Y-81095809D01*
X145053142Y-81019619D01*
X145091238Y-80867238D01*
X145091238Y-80600571D01*
X145053142Y-80448190D01*
X144976952Y-80372000D01*
X144900761Y-80333904D01*
X146272190Y-75850714D02*
X146310285Y-75888809D01*
X146424571Y-75926904D01*
X146500761Y-75926904D01*
X146615047Y-75888809D01*
X146691238Y-75812619D01*
X146729333Y-75736428D01*
X146767428Y-75584047D01*
X146767428Y-75469761D01*
X146729333Y-75317380D01*
X146691238Y-75241190D01*
X146615047Y-75165000D01*
X146500761Y-75126904D01*
X146424571Y-75126904D01*
X146310285Y-75165000D01*
X146272190Y-75203095D01*
X145548380Y-75926904D02*
X145929333Y-75926904D01*
X145929333Y-75126904D01*
X145281714Y-75926904D02*
X145281714Y-75126904D01*
X144824571Y-75926904D02*
X145167428Y-75469761D01*
X144824571Y-75126904D02*
X145281714Y-75584047D01*
X146786476Y-72586904D02*
X146291238Y-72586904D01*
X146557904Y-72891666D01*
X146443619Y-72891666D01*
X146367428Y-72929761D01*
X146329333Y-72967857D01*
X146291238Y-73044047D01*
X146291238Y-73234523D01*
X146329333Y-73310714D01*
X146367428Y-73348809D01*
X146443619Y-73386904D01*
X146672190Y-73386904D01*
X146748380Y-73348809D01*
X146786476Y-73310714D01*
X146062666Y-72586904D02*
X145796000Y-73386904D01*
X145529333Y-72586904D01*
X145338857Y-72586904D02*
X144843619Y-72586904D01*
X145110285Y-72891666D01*
X144996000Y-72891666D01*
X144919809Y-72929761D01*
X144881714Y-72967857D01*
X144843619Y-73044047D01*
X144843619Y-73234523D01*
X144881714Y-73310714D01*
X144919809Y-73348809D01*
X144996000Y-73386904D01*
X145224571Y-73386904D01*
X145300761Y-73348809D01*
X145338857Y-73310714D01*
X144373523Y-91078095D02*
X144335428Y-91040000D01*
X144259238Y-91001904D01*
X144068761Y-91001904D01*
X143992571Y-91040000D01*
X143954476Y-91078095D01*
X143916380Y-91154285D01*
X143916380Y-91230476D01*
X143954476Y-91344761D01*
X144411619Y-91801904D01*
X143916380Y-91801904D01*
X143421142Y-91001904D02*
X143344952Y-91001904D01*
X143268761Y-91040000D01*
X143230666Y-91078095D01*
X143192571Y-91154285D01*
X143154476Y-91306666D01*
X143154476Y-91497142D01*
X143192571Y-91649523D01*
X143230666Y-91725714D01*
X143268761Y-91763809D01*
X143344952Y-91801904D01*
X143421142Y-91801904D01*
X143497333Y-91763809D01*
X143535428Y-91725714D01*
X143573523Y-91649523D01*
X143611619Y-91497142D01*
X143611619Y-91306666D01*
X143573523Y-91154285D01*
X143535428Y-91078095D01*
X143497333Y-91040000D01*
X143421142Y-91001904D01*
X143738571Y-68218095D02*
X143700476Y-68180000D01*
X143624285Y-68141904D01*
X143433809Y-68141904D01*
X143357619Y-68180000D01*
X143319523Y-68218095D01*
X143281428Y-68294285D01*
X143281428Y-68370476D01*
X143319523Y-68484761D01*
X143776666Y-68941904D01*
X143281428Y-68941904D01*
D11*
%TO.C,J1*%
X139700000Y-92456000D02*
X142494000Y-92456000D01*
X142494000Y-66294000D02*
X142494000Y-92456000D01*
X139700000Y-66294000D02*
X142494000Y-66294000D01*
%TD*%
M02*
