<?xml version="1.0" standalone="no"?>
 <!DOCTYPE svg PUBLIC "-//W3C//DTD SVG 1.1//EN" 
 "http://www.w3.org/Graphics/SVG/1.1/DTD/svg11.dtd"> 
<svg
  xmlns:svg="http://www.w3.org/2000/svg"
  xmlns="http://www.w3.org/2000/svg"
  xmlns:xlink="http://www.w3.org/1999/xlink"
  version="1.1"
  width="15.001240cm" height="15.001240cm" viewBox="0 0 59060 59060">
<title>SVG Picture created as JLink_6Pin_SWD_Adaptor-brd.svg date 2020/11/28 12:43:43 </title>
  <desc>Picture generated by PCBNEW </desc>
<g style="fill:#000000; fill-opacity:1;stroke:#000000; stroke-opacity:1;
stroke-linecap:round; stroke-linejoin:round;"
 transform="translate(0 0) scale(1 1)">
</g>
<g style="fill:#000000; fill-opacity:0.0; 
stroke:#000000; stroke-width:-0.000393701; stroke-opacity:1; 
stroke-linecap:round; stroke-linejoin:round;">
</g>
<g style="fill:#000000; fill-opacity:0.0; 
stroke:#000000; stroke-width:39.3701; stroke-opacity:1; 
stroke-linecap:round; stroke-linejoin:round;">
</g>
<g style="fill:#000000; fill-opacity:0.0; 
stroke:#000000; stroke-width:59.0551; stroke-opacity:1; 
stroke-linecap:round; stroke-linejoin:round;">
<rect x="11815.9" y="41737.2" width="42519.7" height="12598.4" rx="0" />
</g>
<g style="fill:#000000; fill-opacity:0.0; 
stroke:#000000; stroke-width:39.3701; stroke-opacity:1; 
stroke-linecap:round; stroke-linejoin:round;">
</g>
<g style="fill:#000000; fill-opacity:0.0; 
stroke:#000000; stroke-width:59.0551; stroke-opacity:1; 
stroke-linecap:round; stroke-linejoin:round;">
<rect x="3937.01" y="3937.01" width="51186" height="51186" rx="0" />
</g>
<g style="fill:#000000; fill-opacity:0.0; 
stroke:#000000; stroke-width:39.3701; stroke-opacity:1; 
stroke-linecap:round; stroke-linejoin:round;">
</g>
<g style="fill:#000000; fill-opacity:0.0; 
stroke:#000000; stroke-width:59.0551; stroke-opacity:1; 
stroke-linecap:round; stroke-linejoin:round;">
<rect x="4724.41" y="4724.41" width="49611.2" height="49611.2" rx="0" />
</g>
<g style="fill:#000000; fill-opacity:0.0; 
stroke:#000000; stroke-width:39.3701; stroke-opacity:1; 
stroke-linecap:round; stroke-linejoin:round;">
</g>
<g style="fill:#000000; fill-opacity:0.0; 
stroke:#000000; stroke-width:59.0551; stroke-opacity:1; 
stroke-linecap:round; stroke-linejoin:round;">
<path d="M23622 4724
L23622 3937
" />
</g>
<g style="fill:#000000; fill-opacity:0.0; 
stroke:#000000; stroke-width:39.3701; stroke-opacity:1; 
stroke-linecap:round; stroke-linejoin:round;">
</g>
<g style="fill:#000000; fill-opacity:0.0; 
stroke:#000000; stroke-width:59.0551; stroke-opacity:1; 
stroke-linecap:round; stroke-linejoin:round;">
<path d="M43307 4724
L43307 3937
" />
</g>
<g style="fill:#000000; fill-opacity:0.0; 
stroke:#000000; stroke-width:39.3701; stroke-opacity:1; 
stroke-linecap:round; stroke-linejoin:round;">
</g>
<g style="fill:#000000; fill-opacity:0.0; 
stroke:#000000; stroke-width:59.0551; stroke-opacity:1; 
stroke-linecap:round; stroke-linejoin:round;">
<text x="13779.5" y="4586.61"
textLength="487.441" font-size="682.415" lengthAdjust="spacingAndGlyphs"
text-anchor="start" opacity="0">1</text>
<path d="M14199 4562
L13906 4562
" />
<path d="M14052 4562
L14052 4050
L14004 4123
L13955 4172
L13906 4196
" />
</g>
<g style="fill:#000000; fill-opacity:0.0; 
stroke:#000000; stroke-width:39.3701; stroke-opacity:1; 
stroke-linecap:round; stroke-linejoin:round;">
</g>
<g style="fill:#000000; fill-opacity:0.0; 
stroke:#000000; stroke-width:59.0551; stroke-opacity:1; 
stroke-linecap:round; stroke-linejoin:round;">
<text x="33464.6" y="4586.61"
textLength="546.494" font-size="682.415" lengthAdjust="spacingAndGlyphs"
text-anchor="start" opacity="0">2</text>
<path d="M33591 4099
L33615 4074
L33664 4050
L33786 4050
L33835 4074
L33859 4099
L33884 4147
L33884 4196
L33859 4269
L33567 4562
L33884 4562
" />
</g>
<g style="fill:#000000; fill-opacity:0.0; 
stroke:#000000; stroke-width:39.3701; stroke-opacity:1; 
stroke-linecap:round; stroke-linejoin:round;">
</g>
<g style="fill:#000000; fill-opacity:0.0; 
stroke:#000000; stroke-width:59.0551; stroke-opacity:1; 
stroke-linecap:round; stroke-linejoin:round;">
<text x="53149.6" y="4586.61"
textLength="546.494" font-size="682.415" lengthAdjust="spacingAndGlyphs"
text-anchor="start" opacity="0">3</text>
<path d="M53252 4050
L53569 4050
L53398 4245
L53471 4245
L53520 4269
L53544 4294
L53569 4342
L53569 4464
L53544 4513
L53520 4537
L53471 4562
L53325 4562
L53276 4537
L53252 4513
" />
</g>
<g style="fill:#000000; fill-opacity:0.0; 
stroke:#000000; stroke-width:39.3701; stroke-opacity:1; 
stroke-linecap:round; stroke-linejoin:round;">
</g>
<g style="fill:#000000; fill-opacity:0.0; 
stroke:#000000; stroke-width:59.0551; stroke-opacity:1; 
stroke-linecap:round; stroke-linejoin:round;">
<path d="M23622 54335
L23622 55122
" />
</g>
<g style="fill:#000000; fill-opacity:0.0; 
stroke:#000000; stroke-width:39.3701; stroke-opacity:1; 
stroke-linecap:round; stroke-linejoin:round;">
</g>
<g style="fill:#000000; fill-opacity:0.0; 
stroke:#000000; stroke-width:59.0551; stroke-opacity:1; 
stroke-linecap:round; stroke-linejoin:round;">
<path d="M43307 54335
L43307 55122
" />
</g>
<g style="fill:#000000; fill-opacity:0.0; 
stroke:#000000; stroke-width:39.3701; stroke-opacity:1; 
stroke-linecap:round; stroke-linejoin:round;">
</g>
<g style="fill:#000000; fill-opacity:0.0; 
stroke:#000000; stroke-width:59.0551; stroke-opacity:1; 
stroke-linecap:round; stroke-linejoin:round;">
<text x="13779.5" y="54985.2"
textLength="546.494" font-size="682.415" lengthAdjust="spacingAndGlyphs"
text-anchor="start" opacity="0">1</text>
<path d="M14199 54960
L13906 54960
" />
<path d="M14052 54960
L14052 54449
L14004 54522
L13955 54570
L13906 54595
" />
</g>
<g style="fill:#000000; fill-opacity:0.0; 
stroke:#000000; stroke-width:39.3701; stroke-opacity:1; 
stroke-linecap:round; stroke-linejoin:round;">
</g>
<g style="fill:#000000; fill-opacity:0.0; 
stroke:#000000; stroke-width:59.0551; stroke-opacity:1; 
stroke-linecap:round; stroke-linejoin:round;">
<text x="33464.6" y="54985.2"
textLength="546.494" font-size="682.415" lengthAdjust="spacingAndGlyphs"
text-anchor="start" opacity="0">2</text>
<path d="M33591 54497
L33615 54473
L33664 54449
L33786 54449
L33835 54473
L33859 54497
L33884 54546
L33884 54595
L33859 54668
L33567 54960
L33884 54960
" />
</g>
<g style="fill:#000000; fill-opacity:0.0; 
stroke:#000000; stroke-width:39.3701; stroke-opacity:1; 
stroke-linecap:round; stroke-linejoin:round;">
</g>
<g style="fill:#000000; fill-opacity:0.0; 
stroke:#000000; stroke-width:59.0551; stroke-opacity:1; 
stroke-linecap:round; stroke-linejoin:round;">
<text x="53149.6" y="54985.2"
textLength="546.494" font-size="682.415" lengthAdjust="spacingAndGlyphs"
text-anchor="start" opacity="0">3</text>
<path d="M53252 54449
L53569 54449
L53398 54643
L53471 54643
L53520 54668
L53544 54692
L53569 54741
L53569 54863
L53544 54912
L53520 54936
L53471 54960
L53325 54960
L53276 54936
L53252 54912
" />
</g>
<g style="fill:#000000; fill-opacity:0.0; 
stroke:#000000; stroke-width:39.3701; stroke-opacity:1; 
stroke-linecap:round; stroke-linejoin:round;">
</g>
<g style="fill:#000000; fill-opacity:0.0; 
stroke:#000000; stroke-width:59.0551; stroke-opacity:1; 
stroke-linecap:round; stroke-linejoin:round;">
<path d="M3937 23622
L4724 23622
" />
</g>
<g style="fill:#000000; fill-opacity:0.0; 
stroke:#000000; stroke-width:39.3701; stroke-opacity:1; 
stroke-linecap:round; stroke-linejoin:round;">
</g>
<g style="fill:#000000; fill-opacity:0.0; 
stroke:#000000; stroke-width:59.0551; stroke-opacity:1; 
stroke-linecap:round; stroke-linejoin:round;">
<path d="M3937 43307
L4724 43307
" />
</g>
<g style="fill:#000000; fill-opacity:0.0; 
stroke:#000000; stroke-width:39.3701; stroke-opacity:1; 
stroke-linecap:round; stroke-linejoin:round;">
</g>
<g style="fill:#000000; fill-opacity:0.0; 
stroke:#000000; stroke-width:59.0551; stroke-opacity:1; 
stroke-linecap:round; stroke-linejoin:round;">
<text x="4330.71" y="14035.4"
textLength="497.75" font-size="682.415" lengthAdjust="spacingAndGlyphs"
text-anchor="middle" opacity="0">A</text>
<path d="M4208 13864
L4452 13864
" />
<path d="M4160 14011
L4330 13499
L4501 14011
" />
</g>
<g style="fill:#000000; fill-opacity:0.0; 
stroke:#000000; stroke-width:39.3701; stroke-opacity:1; 
stroke-linecap:round; stroke-linejoin:round;">
</g>
<g style="fill:#000000; fill-opacity:0.0; 
stroke:#000000; stroke-width:59.0551; stroke-opacity:1; 
stroke-linecap:round; stroke-linejoin:round;">
<text x="4330.71" y="33720.5"
textLength="570.866" font-size="682.415" lengthAdjust="spacingAndGlyphs"
text-anchor="middle" opacity="0">B</text>
<path d="M4367 33428
L4440 33452
L4464 33476
L4489 33525
L4489 33598
L4464 33647
L4440 33671
L4391 33696
L4196 33696
L4196 33184
L4367 33184
L4416 33208
L4440 33233
L4464 33281
L4464 33330
L4440 33379
L4416 33403
L4367 33428
L4196 33428
" />
</g>
<g style="fill:#000000; fill-opacity:0.0; 
stroke:#000000; stroke-width:39.3701; stroke-opacity:1; 
stroke-linecap:round; stroke-linejoin:round;">
</g>
<g style="fill:#000000; fill-opacity:0.0; 
stroke:#000000; stroke-width:59.0551; stroke-opacity:1; 
stroke-linecap:round; stroke-linejoin:round;">
<text x="4330.71" y="53405.5"
textLength="570.866" font-size="682.415" lengthAdjust="spacingAndGlyphs"
text-anchor="middle" opacity="0">C</text>
<path d="M4489 53332
L4464 53356
L4391 53381
L4342 53381
L4269 53356
L4221 53308
L4196 53259
L4172 53161
L4172 53088
L4196 52991
L4221 52942
L4269 52893
L4342 52869
L4391 52869
L4464 52893
L4489 52918
" />
</g>
<g style="fill:#000000; fill-opacity:0.0; 
stroke:#000000; stroke-width:39.3701; stroke-opacity:1; 
stroke-linecap:round; stroke-linejoin:round;">
</g>
<g style="fill:#000000; fill-opacity:0.0; 
stroke:#000000; stroke-width:59.0551; stroke-opacity:1; 
stroke-linecap:round; stroke-linejoin:round;">
<path d="M55122 23622
L54335 23622
" />
</g>
<g style="fill:#000000; fill-opacity:0.0; 
stroke:#000000; stroke-width:39.3701; stroke-opacity:1; 
stroke-linecap:round; stroke-linejoin:round;">
</g>
<g style="fill:#000000; fill-opacity:0.0; 
stroke:#000000; stroke-width:59.0551; stroke-opacity:1; 
stroke-linecap:round; stroke-linejoin:round;">
<path d="M55122 43307
L54335 43307
" />
</g>
<g style="fill:#000000; fill-opacity:0.0; 
stroke:#000000; stroke-width:39.3701; stroke-opacity:1; 
stroke-linecap:round; stroke-linejoin:round;">
</g>
<g style="fill:#000000; fill-opacity:0.0; 
stroke:#000000; stroke-width:59.0551; stroke-opacity:1; 
stroke-linecap:round; stroke-linejoin:round;">
<text x="54729.3" y="14035.4"
textLength="497.75" font-size="682.415" lengthAdjust="spacingAndGlyphs"
text-anchor="middle" opacity="0">A</text>
<path d="M54607 13864
L54851 13864
" />
<path d="M54558 14011
L54729 13499
L54899 14011
" />
</g>
<g style="fill:#000000; fill-opacity:0.0; 
stroke:#000000; stroke-width:39.3701; stroke-opacity:1; 
stroke-linecap:round; stroke-linejoin:round;">
</g>
<g style="fill:#000000; fill-opacity:0.0; 
stroke:#000000; stroke-width:59.0551; stroke-opacity:1; 
stroke-linecap:round; stroke-linejoin:round;">
<text x="54729.3" y="33720.5"
textLength="570.866" font-size="682.415" lengthAdjust="spacingAndGlyphs"
text-anchor="middle" opacity="0">B</text>
<path d="M54765 33428
L54838 33452
L54863 33476
L54887 33525
L54887 33598
L54863 33647
L54838 33671
L54790 33696
L54595 33696
L54595 33184
L54765 33184
L54814 33208
L54838 33233
L54863 33281
L54863 33330
L54838 33379
L54814 33403
L54765 33428
L54595 33428
" />
</g>
<g style="fill:#000000; fill-opacity:0.0; 
stroke:#000000; stroke-width:39.3701; stroke-opacity:1; 
stroke-linecap:round; stroke-linejoin:round;">
</g>
<g style="fill:#000000; fill-opacity:0.0; 
stroke:#000000; stroke-width:59.0551; stroke-opacity:1; 
stroke-linecap:round; stroke-linejoin:round;">
<text x="54729.3" y="53405.5"
textLength="570.866" font-size="682.415" lengthAdjust="spacingAndGlyphs"
text-anchor="middle" opacity="0">C</text>
<path d="M54887 53332
L54863 53356
L54790 53381
L54741 53381
L54668 53356
L54619 53308
L54595 53259
L54570 53161
L54570 53088
L54595 52991
L54619 52942
L54668 52893
L54741 52869
L54790 52869
L54863 52893
L54887 52918
" />
</g>
<g style="fill:#000000; fill-opacity:0.0; 
stroke:#000000; stroke-width:39.3701; stroke-opacity:1; 
stroke-linecap:round; stroke-linejoin:round;">
</g>
<g style="fill:#000000; fill-opacity:0.0; 
stroke:#000000; stroke-width:59.0551; stroke-opacity:1; 
stroke-linecap:round; stroke-linejoin:round;">
<text x="20871" y="52701.7"
textLength="2758.72" font-size="787.402" lengthAdjust="spacingAndGlyphs"
text-anchor="start" opacity="0">Date: </text>
<path d="M21041 52673
L21041 52083
L21181 52083
L21266 52111
L21322 52167
L21350 52223
L21378 52336
L21378 52420
L21350 52533
L21322 52589
L21266 52645
L21181 52673
L21041 52673
" />
<path d="M21884 52673
L21884 52364
L21856 52308
L21800 52279
L21687 52279
L21631 52308
" />
<path d="M21884 52645
L21828 52673
L21687 52673
L21631 52645
L21603 52589
L21603 52533
L21631 52476
L21687 52448
L21828 52448
L21884 52420
" />
<path d="M22081 52279
L22306 52279
" />
<path d="M22166 52083
L22166 52589
L22194 52645
L22250 52673
L22306 52673
" />
<path d="M22728 52645
L22672 52673
L22559 52673
L22503 52645
L22475 52589
L22475 52364
L22503 52308
L22559 52279
L22672 52279
L22728 52308
L22756 52364
L22756 52420
L22475 52476
" />
<path d="M23009 52617
L23037 52645
L23009 52673
L22981 52645
L23009 52617
L23009 52673
" />
<path d="M23009 52308
L23037 52336
L23009 52364
L22981 52336
L23009 52308
L23009 52364
" />
</g>
<g style="fill:#000000; fill-opacity:0.0; 
stroke:#000000; stroke-width:39.3701; stroke-opacity:1; 
stroke-linecap:round; stroke-linejoin:round;">
</g>
<g style="fill:#000000; fill-opacity:0.0; 
stroke:#000000; stroke-width:59.0551; stroke-opacity:1; 
stroke-linecap:round; stroke-linejoin:round;">
<path d="M11815 52957
L54335 52957
" />
</g>
<g style="fill:#000000; fill-opacity:0.0; 
stroke:#000000; stroke-width:39.3701; stroke-opacity:1; 
stroke-linecap:round; stroke-linejoin:round;">
</g>
<g style="fill:#000000; fill-opacity:0.0; 
stroke:#000000; stroke-width:59.0551; stroke-opacity:1; 
stroke-linecap:round; stroke-linejoin:round;">
<text x="12209.6" y="53804.1"
textLength="24693.5" font-size="787.402" lengthAdjust="spacingAndGlyphs"
text-anchor="start" opacity="0">KiCad E.D.A.  kicad 5.1.8-db9833491~87~ubuntu18.04.1</text>
<path d="M12379 53775
L12379 53185
" />
<path d="M12717 53775
L12464 53438
" />
<path d="M12717 53185
L12379 53522
" />
<path d="M12970 53775
L12970 53382
" />
<path d="M12970 53185
L12942 53213
L12970 53241
L12998 53213
L12970 53185
L12970 53241
" />
<path d="M13588 53719
L13560 53747
L13476 53775
L13420 53775
L13335 53747
L13279 53691
L13251 53635
L13223 53522
L13223 53438
L13251 53326
L13279 53269
L13335 53213
L13420 53185
L13476 53185
L13560 53213
L13588 53241
" />
<path d="M14095 53775
L14095 53466
L14067 53410
L14010 53382
L13898 53382
L13842 53410
" />
<path d="M14095 53747
L14038 53775
L13898 53775
L13842 53747
L13813 53691
L13813 53635
L13842 53579
L13898 53551
L14038 53551
L14095 53522
" />
<path d="M14629 53775
L14629 53185
" />
<path d="M14629 53747
L14573 53775
L14460 53775
L14404 53747
L14376 53719
L14348 53663
L14348 53494
L14376 53438
L14404 53410
L14460 53382
L14573 53382
L14629 53410
" />
<path d="M15360 53466
L15557 53466
" />
<path d="M15641 53775
L15360 53775
L15360 53185
L15641 53185
" />
<path d="M15894 53719
L15923 53747
L15894 53775
L15866 53747
L15894 53719
L15894 53775
" />
<path d="M16176 53775
L16176 53185
L16316 53185
L16401 53213
L16457 53269
L16485 53326
L16513 53438
L16513 53522
L16485 53635
L16457 53691
L16401 53747
L16316 53775
L16176 53775
" />
<path d="M16766 53719
L16794 53747
L16766 53775
L16738 53747
L16766 53719
L16766 53775
" />
<path d="M17019 53607
L17301 53607
" />
<path d="M16963 53775
L17160 53185
L17357 53775
" />
<path d="M17554 53719
L17582 53747
L17554 53775
L17525 53747
L17554 53719
L17554 53775
" />
<path d="M18735 53775
L18735 53185
" />
<path d="M18791 53551
L18960 53775
" />
<path d="M18960 53382
L18735 53607
" />
<path d="M19213 53775
L19213 53382
" />
<path d="M19213 53185
L19185 53213
L19213 53241
L19241 53213
L19213 53185
L19213 53241
" />
<path d="M19747 53747
L19691 53775
L19578 53775
L19522 53747
L19494 53719
L19466 53663
L19466 53494
L19494 53438
L19522 53410
L19578 53382
L19691 53382
L19747 53410
" />
<path d="M20253 53775
L20253 53466
L20225 53410
L20169 53382
L20056 53382
L20000 53410
" />
<path d="M20253 53747
L20197 53775
L20056 53775
L20000 53747
L19972 53691
L19972 53635
L20000 53579
L20056 53551
L20197 53551
L20253 53522
" />
<path d="M20788 53775
L20788 53185
" />
<path d="M20788 53747
L20731 53775
L20619 53775
L20563 53747
L20534 53719
L20506 53663
L20506 53494
L20534 53438
L20563 53410
L20619 53382
L20731 53382
L20788 53410
" />
<path d="M21800 53185
L21519 53185
L21491 53466
L21519 53438
L21575 53410
L21716 53410
L21772 53438
L21800 53466
L21828 53522
L21828 53663
L21800 53719
L21772 53747
L21716 53775
L21575 53775
L21519 53747
L21491 53719
" />
<path d="M22081 53719
L22109 53747
L22081 53775
L22053 53747
L22081 53719
L22081 53775
" />
<path d="M22672 53775
L22334 53775
" />
<path d="M22503 53775
L22503 53185
L22447 53269
L22390 53326
L22334 53354
" />
<path d="M22925 53719
L22953 53747
L22925 53775
L22897 53747
L22925 53719
L22925 53775
" />
<path d="M23290 53438
L23234 53410
L23206 53382
L23178 53326
L23178 53297
L23206 53241
L23234 53213
L23290 53185
L23403 53185
L23459 53213
L23487 53241
L23515 53297
L23515 53326
L23487 53382
L23459 53410
L23403 53438
L23290 53438
L23234 53466
L23206 53494
L23178 53551
L23178 53663
L23206 53719
L23234 53747
L23290 53775
L23403 53775
L23459 53747
L23487 53719
L23515 53663
L23515 53551
L23487 53494
L23459 53466
L23403 53438
" />
<path d="M23768 53551
L24218 53551
" />
<path d="M24753 53775
L24753 53185
" />
<path d="M24753 53747
L24696 53775
L24584 53775
L24528 53747
L24500 53719
L24471 53663
L24471 53494
L24500 53438
L24528 53410
L24584 53382
L24696 53382
L24753 53410
" />
<path d="M25034 53775
L25034 53185
" />
<path d="M25034 53410
L25090 53382
L25203 53382
L25259 53410
L25287 53438
L25315 53494
L25315 53663
L25287 53719
L25259 53747
L25203 53775
L25090 53775
L25034 53747
" />
<path d="M25596 53775
L25709 53775
L25765 53747
L25793 53719
L25849 53635
L25878 53522
L25878 53297
L25849 53241
L25821 53213
L25765 53185
L25653 53185
L25596 53213
L25568 53241
L25540 53297
L25540 53438
L25568 53494
L25596 53522
L25653 53551
L25765 53551
L25821 53522
L25849 53494
L25878 53438
" />
<path d="M26215 53438
L26159 53410
L26131 53382
L26103 53326
L26103 53297
L26131 53241
L26159 53213
L26215 53185
L26327 53185
L26384 53213
L26412 53241
L26440 53297
L26440 53326
L26412 53382
L26384 53410
L26327 53438
L26215 53438
L26159 53466
L26131 53494
L26103 53551
L26103 53663
L26131 53719
L26159 53747
L26215 53775
L26327 53775
L26384 53747
L26412 53719
L26440 53663
L26440 53551
L26412 53494
L26384 53466
L26327 53438
" />
<path d="M26637 53185
L27002 53185
L26806 53410
L26890 53410
L26946 53438
L26974 53466
L27002 53522
L27002 53663
L26974 53719
L26946 53747
L26890 53775
L26721 53775
L26665 53747
L26637 53719
" />
<path d="M27199 53185
L27565 53185
L27368 53410
L27452 53410
L27509 53438
L27537 53466
L27565 53522
L27565 53663
L27537 53719
L27509 53747
L27452 53775
L27284 53775
L27227 53747
L27199 53719
" />
<path d="M28071 53382
L28071 53775
" />
<path d="M27930 53157
L27790 53579
L28155 53579
" />
<path d="M28408 53775
L28521 53775
L28577 53747
L28605 53719
L28662 53635
L28690 53522
L28690 53297
L28662 53241
L28633 53213
L28577 53185
L28465 53185
L28408 53213
L28380 53241
L28352 53297
L28352 53438
L28380 53494
L28408 53522
L28465 53551
L28577 53551
L28633 53522
L28662 53494
L28690 53438
" />
<path d="M29252 53775
L28915 53775
" />
<path d="M29083 53775
L29083 53185
L29027 53269
L28971 53326
L28915 53354
" />
<path d="M29365 53024
L29927 53024
" />
<path d="M29590 53438
L29533 53410
L29505 53382
L29477 53326
L29477 53297
L29505 53241
L29533 53213
L29590 53185
L29702 53185
L29758 53213
L29786 53241
L29815 53297
L29815 53326
L29786 53382
L29758 53410
L29702 53438
L29590 53438
L29533 53466
L29505 53494
L29477 53551
L29477 53663
L29505 53719
L29533 53747
L29590 53775
L29702 53775
L29758 53747
L29786 53719
L29815 53663
L29815 53551
L29786 53494
L29758 53466
L29702 53438
" />
<path d="M29927 53024
L30489 53024
" />
<path d="M30011 53185
L30405 53185
L30152 53775
" />
<path d="M30883 53382
L30883 53775
" />
<path d="M30630 53382
L30630 53691
L30658 53747
L30714 53775
L30799 53775
L30855 53747
L30883 53719
" />
<path d="M31164 53775
L31164 53185
" />
<path d="M31164 53410
L31221 53382
L31333 53382
L31389 53410
L31417 53438
L31446 53494
L31446 53663
L31417 53719
L31389 53747
L31333 53775
L31221 53775
L31164 53747
" />
<path d="M31952 53382
L31952 53775
" />
<path d="M31699 53382
L31699 53691
L31727 53747
L31783 53775
L31867 53775
L31924 53747
L31952 53719
" />
<path d="M32233 53382
L32233 53775
" />
<path d="M32233 53438
L32261 53410
L32317 53382
L32402 53382
L32458 53410
L32486 53466
L32486 53775
" />
<path d="M32683 53382
L32908 53382
" />
<path d="M32767 53185
L32767 53691
L32795 53747
L32852 53775
L32908 53775
" />
<path d="M33358 53382
L33358 53775
" />
<path d="M33105 53382
L33105 53691
L33133 53747
L33189 53775
L33274 53775
L33330 53747
L33358 53719
" />
<path d="M33948 53775
L33611 53775
" />
<path d="M33780 53775
L33780 53185
L33723 53269
L33667 53326
L33611 53354
" />
<path d="M34286 53438
L34230 53410
L34202 53382
L34173 53326
L34173 53297
L34202 53241
L34230 53213
L34286 53185
L34398 53185
L34455 53213
L34483 53241
L34511 53297
L34511 53326
L34483 53382
L34455 53410
L34398 53438
L34286 53438
L34230 53466
L34202 53494
L34173 53551
L34173 53663
L34202 53719
L34230 53747
L34286 53775
L34398 53775
L34455 53747
L34483 53719
L34511 53663
L34511 53551
L34483 53494
L34455 53466
L34398 53438
" />
<path d="M34764 53719
L34792 53747
L34764 53775
L34736 53747
L34764 53719
L34764 53775
" />
<path d="M35158 53185
L35214 53185
L35270 53213
L35298 53241
L35326 53297
L35354 53410
L35354 53551
L35326 53663
L35298 53719
L35270 53747
L35214 53775
L35158 53775
L35101 53747
L35073 53719
L35045 53663
L35017 53551
L35017 53410
L35045 53297
L35073 53241
L35101 53213
L35158 53185
" />
<path d="M35861 53382
L35861 53775
" />
<path d="M35720 53157
L35579 53579
L35945 53579
" />
<path d="M36170 53719
L36198 53747
L36170 53775
L36142 53747
L36170 53719
L36170 53775
" />
<path d="M36761 53775
L36423 53775
" />
<path d="M36592 53775
L36592 53185
L36536 53269
L36479 53326
L36423 53354
" />
</g>
<g style="fill:#000000; fill-opacity:0.0; 
stroke:#000000; stroke-width:39.3701; stroke-opacity:1; 
stroke-linecap:round; stroke-linejoin:round;">
</g>
<g style="fill:#000000; fill-opacity:0.0; 
stroke:#000000; stroke-width:59.0551; stroke-opacity:1; 
stroke-linecap:round; stroke-linejoin:round;">
<path d="M11815 51776
L54335 51776
" />
</g>
<g style="fill:#000000; fill-opacity:0.0; 
stroke:#000000; stroke-width:39.3701; stroke-opacity:1; 
stroke-linecap:round; stroke-linejoin:round;">
</g>
<g style="fill:#000000; fill-opacity:0.0; 
stroke:#000000; stroke-width:118.11; stroke-opacity:1; 
stroke-linecap:round; stroke-linejoin:round;">
<text x="45674.2" y="52701.7"
textLength="2336.9" font-size="787.402" lengthAdjust="spacingAndGlyphs"
text-anchor="start" opacity="0">Rev: </text>
<path d="M46229 52673
L46032 52392
" />
<path d="M45891 52673
L45891 52083
L46116 52083
L46172 52111
L46200 52139
L46229 52195
L46229 52279
L46200 52336
L46172 52364
L46116 52392
L45891 52392
" />
<path d="M46707 52645
L46650 52673
L46538 52673
L46482 52645
L46453 52589
L46453 52364
L46482 52308
L46538 52279
L46650 52279
L46707 52308
L46735 52364
L46735 52420
L46453 52476
" />
<path d="M46932 52279
L47072 52673
L47213 52279
" />
<path d="M47438 52617
L47466 52645
L47438 52673
L47410 52645
L47438 52617
L47438 52673
" />
<path d="M47438 52308
L47466 52336
L47438 52364
L47410 52336
L47438 52308
L47438 52364
" />
</g>
<g style="fill:#000000; fill-opacity:0.0; 
stroke:#000000; stroke-width:39.3701; stroke-opacity:1; 
stroke-linecap:round; stroke-linejoin:round;">
</g>
<g style="fill:#000000; fill-opacity:0.0; 
stroke:#000000; stroke-width:59.0551; stroke-opacity:1; 
stroke-linecap:round; stroke-linejoin:round;">
<text x="12209.6" y="52701.7"
textLength="4681.1" font-size="787.402" lengthAdjust="spacingAndGlyphs"
text-anchor="start" opacity="0">Size: User</text>
<path d="M12351 52645
L12435 52673
L12576 52673
L12632 52645
L12660 52617
L12689 52561
L12689 52504
L12660 52448
L12632 52420
L12576 52392
L12464 52364
L12407 52336
L12379 52308
L12351 52251
L12351 52195
L12379 52139
L12407 52111
L12464 52083
L12604 52083
L12689 52111
" />
<path d="M12942 52673
L12942 52279
" />
<path d="M12942 52083
L12914 52111
L12942 52139
L12970 52111
L12942 52083
L12942 52139
" />
<path d="M13167 52279
L13476 52279
L13167 52673
L13476 52673
" />
<path d="M13926 52645
L13870 52673
L13757 52673
L13701 52645
L13673 52589
L13673 52364
L13701 52308
L13757 52279
L13870 52279
L13926 52308
L13954 52364
L13954 52420
L13673 52476
" />
<path d="M14207 52617
L14235 52645
L14207 52673
L14179 52645
L14207 52617
L14207 52673
" />
<path d="M14207 52308
L14235 52336
L14207 52364
L14179 52336
L14207 52308
L14207 52364
" />
<path d="M14938 52083
L14938 52561
L14966 52617
L14995 52645
L15051 52673
L15163 52673
L15220 52645
L15248 52617
L15276 52561
L15276 52083
" />
<path d="M15529 52645
L15585 52673
L15698 52673
L15754 52645
L15782 52589
L15782 52561
L15754 52504
L15698 52476
L15613 52476
L15557 52448
L15529 52392
L15529 52364
L15557 52308
L15613 52279
L15698 52279
L15754 52308
" />
<path d="M16260 52645
L16204 52673
L16091 52673
L16035 52645
L16007 52589
L16007 52364
L16035 52308
L16091 52279
L16204 52279
L16260 52308
L16288 52364
L16288 52420
L16007 52476
" />
<path d="M16541 52673
L16541 52279
" />
<path d="M16541 52392
L16569 52336
L16597 52308
L16654 52279
L16710 52279
" />
</g>
<g style="fill:#000000; fill-opacity:0.0; 
stroke:#000000; stroke-width:39.3701; stroke-opacity:1; 
stroke-linecap:round; stroke-linejoin:round;">
</g>
<g style="fill:#000000; fill-opacity:0.0; 
stroke:#000000; stroke-width:59.0551; stroke-opacity:1; 
stroke-linecap:round; stroke-linejoin:round;">
<text x="45674.2" y="53804.1"
textLength="3349.27" font-size="787.402" lengthAdjust="spacingAndGlyphs"
text-anchor="start" opacity="0">Id: 1/1</text>
<path d="M45844 53775
L45844 53185
" />
<path d="M46378 53775
L46378 53185
" />
<path d="M46378 53747
L46322 53775
L46209 53775
L46153 53747
L46125 53719
L46097 53663
L46097 53494
L46125 53438
L46153 53410
L46209 53382
L46322 53382
L46378 53410
" />
<path d="M46659 53719
L46687 53747
L46659 53775
L46631 53747
L46659 53719
L46659 53775
" />
<path d="M46659 53410
L46687 53438
L46659 53466
L46631 53438
L46659 53410
L46659 53466
" />
<path d="M47700 53775
L47362 53775
" />
<path d="M47531 53775
L47531 53185
L47475 53269
L47419 53326
L47362 53354
" />
<path d="M48375 53157
L47869 53916
" />
<path d="M48881 53775
L48543 53775
" />
<path d="M48712 53775
L48712 53185
L48656 53269
L48600 53326
L48543 53354
" />
</g>
<g style="fill:#000000; fill-opacity:0.0; 
stroke:#000000; stroke-width:39.3701; stroke-opacity:1; 
stroke-linecap:round; stroke-linejoin:round;">
</g>
<g style="fill:#000000; fill-opacity:0.0; 
stroke:#000000; stroke-width:59.0551; stroke-opacity:1; 
stroke-linecap:round; stroke-linejoin:round;">
<path d="M11815 50201
L54335 50201
" />
</g>
<g style="fill:#000000; fill-opacity:0.0; 
stroke:#000000; stroke-width:39.3701; stroke-opacity:1; 
stroke-linecap:round; stroke-linejoin:round;">
</g>
<g style="fill:#000000; fill-opacity:0.0; 
stroke:#000000; stroke-width:157.48; stroke-opacity:1; 
stroke-linecap:round; stroke-linejoin:round;">
<text x="12209.6" y="51304.1"
textLength="3701.14" font-size="1049.87" lengthAdjust="spacingAndGlyphs"
text-anchor="start" opacity="0">Title: </text>
<path d="M12490 50479
L12940 50479
" />
<path d="M12616 51266
L12715 50479
" />
<path d="M13104 51266
L13169 50741
" />
<path d="M13202 50479
L13160 50516
L13193 50554
L13235 50516
L13202 50479
L13193 50554
" />
<path d="M13432 50741
L13732 50741
" />
<path d="M13577 50479
L13493 51154
L13521 51229
L13591 51266
L13666 51266
" />
<path d="M14041 51266
L13971 51229
L13943 51154
L14027 50479
" />
<path d="M14646 51229
L14566 51266
L14416 51266
L14346 51229
L14317 51154
L14355 50854
L14402 50779
L14482 50741
L14631 50741
L14702 50779
L14730 50854
L14721 50929
L14336 51004
" />
<path d="M15025 51191
L15058 51229
L15016 51266
L14983 51229
L15025 51191
L15016 51266
" />
<path d="M15077 50779
L15110 50816
L15067 50854
L15035 50816
L15077 50779
L15067 50854
" />
</g>
<g style="fill:#000000; fill-opacity:0.0; 
stroke:#000000; stroke-width:39.3701; stroke-opacity:1; 
stroke-linecap:round; stroke-linejoin:round;">
</g>
<g style="fill:#000000; fill-opacity:0.0; 
stroke:#000000; stroke-width:59.0551; stroke-opacity:1; 
stroke-linecap:round; stroke-linejoin:round;">
<text x="12209.6" y="49788.3"
textLength="17893.1" font-size="787.402" lengthAdjust="spacingAndGlyphs"
text-anchor="start" opacity="0">File: JLink_6Pin_SWD_Adaptor.kicad_pcb</text>
<path d="M12576 49450
L12379 49450
" />
<path d="M12379 49760
L12379 49169
L12660 49169
" />
<path d="M12885 49760
L12885 49366
" />
<path d="M12885 49169
L12857 49197
L12885 49225
L12914 49197
L12885 49169
L12885 49225
" />
<path d="M13251 49760
L13195 49732
L13167 49675
L13167 49169
" />
<path d="M13701 49732
L13645 49760
L13532 49760
L13476 49732
L13448 49675
L13448 49450
L13476 49394
L13532 49366
L13645 49366
L13701 49394
L13729 49450
L13729 49507
L13448 49563
" />
<path d="M13982 49703
L14010 49732
L13982 49760
L13954 49732
L13982 49703
L13982 49760
" />
<path d="M13982 49394
L14010 49422
L13982 49450
L13954 49422
L13982 49394
L13982 49450
" />
<path d="M14882 49169
L14882 49591
L14854 49675
L14798 49732
L14713 49760
L14657 49760
" />
<path d="M15444 49760
L15163 49760
L15163 49169
" />
<path d="M15641 49760
L15641 49366
" />
<path d="M15641 49169
L15613 49197
L15641 49225
L15669 49197
L15641 49169
L15641 49225
" />
<path d="M15923 49366
L15923 49760
" />
<path d="M15923 49422
L15951 49394
L16007 49366
L16091 49366
L16148 49394
L16176 49450
L16176 49760
" />
<path d="M16457 49760
L16457 49169
" />
<path d="M16513 49535
L16682 49760
" />
<path d="M16682 49366
L16457 49591
" />
<path d="M16794 49816
L17244 49816
" />
<path d="M17638 49169
L17525 49169
L17469 49197
L17441 49225
L17385 49310
L17357 49422
L17357 49647
L17385 49703
L17413 49732
L17469 49760
L17582 49760
L17638 49732
L17666 49703
L17694 49647
L17694 49507
L17666 49450
L17638 49422
L17582 49394
L17469 49394
L17413 49422
L17385 49450
L17357 49507
" />
<path d="M17947 49760
L17947 49169
L18172 49169
L18229 49197
L18257 49225
L18285 49282
L18285 49366
L18257 49422
L18229 49450
L18172 49479
L17947 49479
" />
<path d="M18538 49760
L18538 49366
" />
<path d="M18538 49169
L18510 49197
L18538 49225
L18566 49197
L18538 49169
L18538 49225
" />
<path d="M18819 49366
L18819 49760
" />
<path d="M18819 49422
L18847 49394
L18903 49366
L18988 49366
L19044 49394
L19072 49450
L19072 49760
" />
<path d="M19213 49816
L19663 49816
" />
<path d="M19775 49732
L19860 49760
L20000 49760
L20056 49732
L20085 49703
L20113 49647
L20113 49591
L20085 49535
L20056 49507
L20000 49479
L19888 49450
L19831 49422
L19803 49394
L19775 49338
L19775 49282
L19803 49225
L19831 49197
L19888 49169
L20028 49169
L20113 49197
" />
<path d="M20310 49169
L20450 49760
L20563 49338
L20675 49760
L20816 49169
" />
<path d="M21041 49760
L21041 49169
L21181 49169
L21266 49197
L21322 49254
L21350 49310
L21378 49422
L21378 49507
L21350 49619
L21322 49675
L21266 49732
L21181 49760
L21041 49760
" />
<path d="M21491 49816
L21941 49816
" />
<path d="M22053 49591
L22334 49591
" />
<path d="M21997 49760
L22194 49169
L22390 49760
" />
<path d="M22840 49760
L22840 49169
" />
<path d="M22840 49732
L22784 49760
L22672 49760
L22615 49732
L22587 49703
L22559 49647
L22559 49479
L22587 49422
L22615 49394
L22672 49366
L22784 49366
L22840 49394
" />
<path d="M23375 49760
L23375 49450
L23347 49394
L23290 49366
L23178 49366
L23122 49394
" />
<path d="M23375 49732
L23318 49760
L23178 49760
L23122 49732
L23094 49675
L23094 49619
L23122 49563
L23178 49535
L23318 49535
L23375 49507
" />
<path d="M23656 49366
L23656 49957
" />
<path d="M23656 49394
L23712 49366
L23825 49366
L23881 49394
L23909 49422
L23937 49479
L23937 49647
L23909 49703
L23881 49732
L23825 49760
L23712 49760
L23656 49732
" />
<path d="M24106 49366
L24331 49366
" />
<path d="M24190 49169
L24190 49675
L24218 49732
L24275 49760
L24331 49760
" />
<path d="M24612 49760
L24556 49732
L24528 49703
L24500 49647
L24500 49479
L24528 49422
L24556 49394
L24612 49366
L24696 49366
L24753 49394
L24781 49422
L24809 49479
L24809 49647
L24781 49703
L24753 49732
L24696 49760
L24612 49760
" />
<path d="M25062 49760
L25062 49366
" />
<path d="M25062 49479
L25090 49422
L25118 49394
L25175 49366
L25231 49366
" />
<path d="M25428 49703
L25456 49732
L25428 49760
L25399 49732
L25428 49703
L25428 49760
" />
<path d="M25709 49760
L25709 49169
" />
<path d="M25765 49535
L25934 49760
" />
<path d="M25934 49366
L25709 49591
" />
<path d="M26187 49760
L26187 49366
" />
<path d="M26187 49169
L26159 49197
L26187 49225
L26215 49197
L26187 49169
L26187 49225
" />
<path d="M26721 49732
L26665 49760
L26552 49760
L26496 49732
L26468 49703
L26440 49647
L26440 49479
L26468 49422
L26496 49394
L26552 49366
L26665 49366
L26721 49394
" />
<path d="M27227 49760
L27227 49450
L27199 49394
L27143 49366
L27031 49366
L26974 49394
" />
<path d="M27227 49732
L27171 49760
L27031 49760
L26974 49732
L26946 49675
L26946 49619
L26974 49563
L27031 49535
L27171 49535
L27227 49507
" />
<path d="M27762 49760
L27762 49169
" />
<path d="M27762 49732
L27705 49760
L27593 49760
L27537 49732
L27509 49703
L27480 49647
L27480 49479
L27509 49422
L27537 49394
L27593 49366
L27705 49366
L27762 49394
" />
<path d="M27902 49816
L28352 49816
" />
<path d="M28493 49366
L28493 49957
" />
<path d="M28493 49394
L28549 49366
L28662 49366
L28718 49394
L28746 49422
L28774 49479
L28774 49647
L28746 49703
L28718 49732
L28662 49760
L28549 49760
L28493 49732
" />
<path d="M29280 49732
L29224 49760
L29112 49760
L29055 49732
L29027 49703
L28999 49647
L28999 49479
L29027 49422
L29055 49394
L29112 49366
L29224 49366
L29280 49394
" />
<path d="M29533 49760
L29533 49169
" />
<path d="M29533 49394
L29590 49366
L29702 49366
L29758 49394
L29786 49422
L29815 49479
L29815 49647
L29786 49703
L29758 49732
L29702 49760
L29590 49760
L29533 49732
" />
</g>
<g style="fill:#000000; fill-opacity:0.0; 
stroke:#000000; stroke-width:39.3701; stroke-opacity:1; 
stroke-linecap:round; stroke-linejoin:round;">
</g>
<g style="fill:#000000; fill-opacity:0.0; 
stroke:#000000; stroke-width:59.0551; stroke-opacity:1; 
stroke-linecap:round; stroke-linejoin:round;">
<path d="M11815 47839
L54335 47839
" />
</g>
<g style="fill:#000000; fill-opacity:0.0; 
stroke:#000000; stroke-width:39.3701; stroke-opacity:1; 
stroke-linecap:round; stroke-linejoin:round;">
</g>
<g style="fill:#000000; fill-opacity:0.0; 
stroke:#000000; stroke-width:59.0551; stroke-opacity:1; 
stroke-linecap:round; stroke-linejoin:round;">
<text x="12209.6" y="48725.4"
textLength="3236.78" font-size="787.402" lengthAdjust="spacingAndGlyphs"
text-anchor="start" opacity="0">Sheet: </text>
<path d="M12351 48669
L12435 48697
L12576 48697
L12632 48669
L12660 48640
L12689 48584
L12689 48528
L12660 48472
L12632 48444
L12576 48416
L12464 48387
L12407 48359
L12379 48331
L12351 48275
L12351 48219
L12379 48162
L12407 48134
L12464 48106
L12604 48106
L12689 48134
" />
<path d="M12942 48697
L12942 48106
" />
<path d="M13195 48697
L13195 48387
L13167 48331
L13110 48303
L13026 48303
L12970 48331
L12942 48359
" />
<path d="M13701 48669
L13645 48697
L13532 48697
L13476 48669
L13448 48612
L13448 48387
L13476 48331
L13532 48303
L13645 48303
L13701 48331
L13729 48387
L13729 48444
L13448 48500
" />
<path d="M14207 48669
L14151 48697
L14038 48697
L13982 48669
L13954 48612
L13954 48387
L13982 48331
L14038 48303
L14151 48303
L14207 48331
L14235 48387
L14235 48444
L13954 48500
" />
<path d="M14404 48303
L14629 48303
" />
<path d="M14488 48106
L14488 48612
L14516 48669
L14573 48697
L14629 48697
" />
<path d="M14826 48640
L14854 48669
L14826 48697
L14798 48669
L14826 48640
L14826 48697
" />
<path d="M14826 48331
L14854 48359
L14826 48387
L14798 48359
L14826 48331
L14826 48387
" />
</g>
<g style="fill:#000000; fill-opacity:0.0; 
stroke:#000000; stroke-width:39.3701; stroke-opacity:1; 
stroke-linecap:round; stroke-linejoin:round;">
</g>
<g style="fill:#000000; fill-opacity:0.0; 
stroke:#000000; stroke-width:59.0551; stroke-opacity:1; 
stroke-linecap:round; stroke-linejoin:round;">
<path d="M19689 51776
L19689 52957
" />
</g>
<g style="fill:#000000; fill-opacity:0.0; 
stroke:#000000; stroke-width:39.3701; stroke-opacity:1; 
stroke-linecap:round; stroke-linejoin:round;">
</g>
<g style="fill:#000000; fill-opacity:0.0; 
stroke:#000000; stroke-width:59.0551; stroke-opacity:1; 
stroke-linecap:round; stroke-linejoin:round;">
<path d="M44886 51776
L44886 54335
" />
</g>
<g style="fill:#848484; fill-opacity:0.0; 
stroke:#848484; stroke-width:59.0551; stroke-opacity:1; 
stroke-linecap:round; stroke-linejoin:round;">
</g>
<g style="fill:#848484; fill-opacity:0.0; 
stroke:#848484; stroke-width:47.2441; stroke-opacity:1; 
stroke-linecap:round; stroke-linejoin:round;">
<path d="M27600 20150
L28750 20150
" />
<path d="M28750 20150
L28750 30550
" />
<path d="M27600 30550
L28750 30550
" />
<g >
</g>
<g >
</g>
<g >
</g>
</g>
<g style="fill:#000000; fill-opacity:0.0; 
stroke:#000000; stroke-width:47.2441; stroke-opacity:1; 
stroke-linecap:round; stroke-linejoin:round;">
<g >
</g>
<g >
</g>
<g >
</g>
<g >
</g>
<g >
</g>
</g>
<g style="fill:#000000; fill-opacity:0.0; 
stroke:#000000; stroke-width:47.2441; stroke-opacity:1; 
stroke-linecap:round; stroke-linejoin:round;">
</g>
<g style="fill:#840084; fill-opacity:0.0; 
stroke:#840084; stroke-width:47.2441; stroke-opacity:1; 
stroke-linecap:round; stroke-linejoin:round;">
</g>
<g style="fill:#840084; fill-opacity:0.0; 
stroke:#840084; stroke-width:59.0551; stroke-opacity:1; 
stroke-linecap:round; stroke-linejoin:round;">
<text x="30000" y="28057.5"
transform="scale(-1 1) translate(-60000.000000 0)"
textLength="930.821" font-size="419.947" lengthAdjust="spacingAndGlyphs"
text-anchor="middle" opacity="0">SWO</text>
<path d="M30434 28027
L30389 28042
L30314 28042
L30284 28027
L30269 28012
L30254 27982
L30254 27952
L30269 27922
L30284 27907
L30314 27892
L30374 27877
L30404 27862
L30419 27847
L30434 27817
L30434 27787
L30419 27757
L30404 27742
L30374 27727
L30299 27727
L30254 27742
" />
<path d="M30149 27727
L30074 28042
L30014 27817
L29955 28042
L29880 27727
" />
<path d="M29700 27727
L29640 27727
L29610 27742
L29580 27772
L29565 27832
L29565 27937
L29580 27997
L29610 28027
L29640 28042
L29700 28042
L29730 28027
L29760 27997
L29775 27937
L29775 27832
L29760 27772
L29730 27742
L29700 27727
" />
<text x="30000" y="27057.5"
transform="scale(-1 1) translate(-60000.000000 0)"
textLength="778.122" font-size="419.947" lengthAdjust="spacingAndGlyphs"
text-anchor="middle" opacity="0">RST</text>
<path d="M30172 27042
L30277 26892
" />
<path d="M30352 27042
L30352 26727
L30232 26727
L30202 26742
L30187 26757
L30172 26787
L30172 26832
L30187 26862
L30202 26877
L30232 26892
L30352 26892
" />
<path d="M30052 27027
L30007 27042
L29932 27042
L29902 27027
L29887 27012
L29872 26982
L29872 26952
L29887 26922
L29902 26907
L29932 26892
L29992 26877
L30022 26862
L30037 26847
L30052 26817
L30052 26787
L30037 26757
L30022 26742
L29992 26727
L29917 26727
L29872 26742
" />
<path d="M29782 26727
L29602 26727
" />
<path d="M29692 27042
L29692 26727
" />
<text x="30000" y="26057.5"
transform="scale(-1 1) translate(-60000.000000 0)"
textLength="1018.09" font-size="419.947" lengthAdjust="spacingAndGlyphs"
text-anchor="middle" opacity="0">SDIO</text>
<path d="M30487 26027
L30442 26042
L30367 26042
L30337 26027
L30322 26012
L30307 25982
L30307 25952
L30322 25922
L30337 25907
L30367 25892
L30427 25877
L30457 25862
L30472 25847
L30487 25817
L30487 25787
L30472 25757
L30457 25742
L30427 25727
L30352 25727
L30307 25742
" />
<path d="M30172 26042
L30172 25727
L30097 25727
L30052 25742
L30022 25772
L30007 25802
L29992 25862
L29992 25907
L30007 25967
L30022 25997
L30052 26027
L30097 26042
L30172 26042
" />
<path d="M29857 26042
L29857 25727
" />
<path d="M29647 25727
L29587 25727
L29557 25742
L29527 25772
L29512 25832
L29512 25937
L29527 25997
L29557 26027
L29587 26042
L29647 26042
L29677 26027
L29707 25997
L29722 25937
L29722 25832
L29707 25772
L29677 25742
L29647 25727
" />
<text x="30000" y="24007.5"
transform="scale(-1 1) translate(-60000.000000 0)"
textLength="808.118" font-size="419.947" lengthAdjust="spacingAndGlyphs"
text-anchor="middle" opacity="0">CLK</text>
<path d="M30187 23962
L30202 23977
L30247 23992
L30277 23992
L30322 23977
L30352 23947
L30367 23917
L30382 23857
L30382 23812
L30367 23752
L30352 23722
L30322 23692
L30277 23677
L30247 23677
L30202 23692
L30187 23707
" />
<path d="M29902 23992
L30052 23992
L30052 23677
" />
<path d="M29797 23992
L29797 23677
" />
<path d="M29617 23992
L29752 23812
" />
<path d="M29617 23677
L29797 23857
" />
<text x="30000" y="23007.5"
transform="scale(-1 1) translate(-60000.000000 0)"
textLength="793.12" font-size="419.947" lengthAdjust="spacingAndGlyphs"
text-anchor="middle" opacity="0">3V3</text>
<path d="M30389 22677
L30194 22677
L30299 22797
L30254 22797
L30224 22812
L30209 22827
L30194 22857
L30194 22932
L30209 22962
L30224 22977
L30254 22992
L30344 22992
L30374 22977
L30389 22962
" />
<path d="M30104 22677
L30000 22992
L29895 22677
" />
<path d="M29820 22677
L29625 22677
L29730 22797
L29685 22797
L29655 22812
L29640 22827
L29625 22857
L29625 22932
L29640 22962
L29655 22977
L29685 22992
L29775 22992
L29805 22977
L29820 22962
" />
<text x="29200" y="30257.5"
transform="scale(-1 1) translate(-58400.000000 0)"
textLength="523.154" font-size="419.947" lengthAdjust="spacingAndGlyphs"
text-anchor="middle" opacity="0">20</text>
<path d="M29439 29957
L29424 29942
L29394 29927
L29319 29927
L29289 29942
L29274 29957
L29259 29987
L29259 30017
L29274 30062
L29454 30242
L29259 30242
" />
<path d="M29065 29927
L29035 29927
L29005 29942
L28990 29957
L28975 29987
L28960 30047
L28960 30122
L28975 30182
L28990 30212
L29005 30227
L29035 30242
L29065 30242
L29095 30227
L29110 30212
L29125 30182
L29140 30122
L29140 30047
L29125 29987
L29110 29957
L29095 29942
L29065 29927
" />
<text x="29100" y="21257.5"
transform="scale(-1 1) translate(-58200.000000 0)"
textLength="223.191" font-size="419.947" lengthAdjust="spacingAndGlyphs"
text-anchor="middle" opacity="0">2</text>
<path d="M29189 20957
L29174 20942
L29144 20927
L29070 20927
L29040 20942
L29025 20957
L29010 20987
L29010 21017
L29025 21062
L29204 21242
L29010 21242
" />
</g>
<g style="fill:#840084; fill-opacity:0.0; 
stroke:#840084; stroke-width:47.2441; stroke-opacity:1; 
stroke-linecap:round; stroke-linejoin:round;">
<path d="M27600 20200
L28700 20200
" />
<path d="M28700 20200
L28700 30500
" />
<path d="M27600 30500
L28700 30500
" />
<g >
</g>
</g>
<g style="fill:#000000; fill-opacity:0.0; 
stroke:#000000; stroke-width:47.2441; stroke-opacity:1; 
stroke-linecap:round; stroke-linejoin:round;">
<g >
</g>
<g style="fill:#008400; fill-opacity:0.0; 
stroke:#008400; stroke-width:47.2441; stroke-opacity:1; 
stroke-linecap:round; stroke-linejoin:round;">
</g>
<g style="fill:#008400; fill-opacity:0.0; 
stroke:#008400; stroke-width:0; stroke-opacity:1; 
stroke-linecap:round; stroke-linejoin:round;">
</g>
<g style="fill:#008400; fill-opacity:1.0; 
stroke:#008400; stroke-width:0; stroke-opacity:1; 
stroke-linecap:round; stroke-linejoin:round;">
<path style="fill:#008400; fill-opacity:1.0; 
stroke:#008400; stroke-width:0; stroke-opacity:1; 
stroke-linecap:round; stroke-linejoin:round;fill-rule:evenodd;"
d="M 28611.8,21400
27588.2,21400
27588.2,20800
28611.8,20800
Z" /> 
<path style="fill:#008400; fill-opacity:1.0; 
stroke:#008400; stroke-width:0; stroke-opacity:1; 
stroke-linecap:round; stroke-linejoin:round;fill-rule:evenodd;"
d="M 28611.8,22400
27588.2,22400
27588.2,21800
28611.8,21800
Z" /> 
<path style="fill:#008400; fill-opacity:1.0; 
stroke:#008400; stroke-width:0; stroke-opacity:1; 
stroke-linecap:round; stroke-linejoin:round;fill-rule:evenodd;"
d="M 28611.8,23400
27588.2,23400
27588.2,22800
28611.8,22800
Z" /> 
<path style="fill:#008400; fill-opacity:1.0; 
stroke:#008400; stroke-width:0; stroke-opacity:1; 
stroke-linecap:round; stroke-linejoin:round;fill-rule:evenodd;"
d="M 28611.8,24400
27588.2,24400
27588.2,23800
28611.8,23800
Z" /> 
<path style="fill:#008400; fill-opacity:1.0; 
stroke:#008400; stroke-width:0; stroke-opacity:1; 
stroke-linecap:round; stroke-linejoin:round;fill-rule:evenodd;"
d="M 28611.8,25400
27588.2,25400
27588.2,24800
28611.8,24800
Z" /> 
<path style="fill:#008400; fill-opacity:1.0; 
stroke:#008400; stroke-width:0; stroke-opacity:1; 
stroke-linecap:round; stroke-linejoin:round;fill-rule:evenodd;"
d="M 28611.8,26400
27588.2,26400
27588.2,25800
28611.8,25800
Z" /> 
<path style="fill:#008400; fill-opacity:1.0; 
stroke:#008400; stroke-width:0; stroke-opacity:1; 
stroke-linecap:round; stroke-linejoin:round;fill-rule:evenodd;"
d="M 28611.8,27400
27588.2,27400
27588.2,26800
28611.8,26800
Z" /> 
<path style="fill:#008400; fill-opacity:1.0; 
stroke:#008400; stroke-width:0; stroke-opacity:1; 
stroke-linecap:round; stroke-linejoin:round;fill-rule:evenodd;"
d="M 28611.8,28400
27588.2,28400
27588.2,27800
28611.8,27800
Z" /> 
<path style="fill:#008400; fill-opacity:1.0; 
stroke:#008400; stroke-width:0; stroke-opacity:1; 
stroke-linecap:round; stroke-linejoin:round;fill-rule:evenodd;"
d="M 28611.8,29400
27588.2,29400
27588.2,28800
28611.8,28800
Z" /> 
<path style="fill:#008400; fill-opacity:1.0; 
stroke:#008400; stroke-width:0; stroke-opacity:1; 
stroke-linecap:round; stroke-linejoin:round;fill-rule:evenodd;"
d="M 28611.8,30400
27588.2,30400
27588.2,29800
28611.8,29800
Z" /> 
</g>
<g >
</g>
<g >
</g>
<g >
</g>
<g >
</g>
</g>
<g style="fill:#000000; fill-opacity:1.0; 
stroke:#000000; stroke-width:0; stroke-opacity:1; 
stroke-linecap:round; stroke-linejoin:round;">
<g >
</g>
<g style="fill:#008400; fill-opacity:1.0; 
stroke:#008400; stroke-width:0; stroke-opacity:1; 
stroke-linecap:round; stroke-linejoin:round;">
<path style="fill:#008400; fill-opacity:1.0; 
stroke:#008400; stroke-width:0; stroke-opacity:1; 
stroke-linecap:round; stroke-linejoin:round;fill-rule:evenodd;"
d="M 28611.8,21400
27588.2,21400
27588.2,20800
28611.8,20800
Z" /> 
<path style="fill:#008400; fill-opacity:1.0; 
stroke:#008400; stroke-width:0; stroke-opacity:1; 
stroke-linecap:round; stroke-linejoin:round;fill-rule:evenodd;"
d="M 28611.8,22400
27588.2,22400
27588.2,21800
28611.8,21800
Z" /> 
<path style="fill:#008400; fill-opacity:1.0; 
stroke:#008400; stroke-width:0; stroke-opacity:1; 
stroke-linecap:round; stroke-linejoin:round;fill-rule:evenodd;"
d="M 28611.8,23400
27588.2,23400
27588.2,22800
28611.8,22800
Z" /> 
<path style="fill:#008400; fill-opacity:1.0; 
stroke:#008400; stroke-width:0; stroke-opacity:1; 
stroke-linecap:round; stroke-linejoin:round;fill-rule:evenodd;"
d="M 28611.8,24400
27588.2,24400
27588.2,23800
28611.8,23800
Z" /> 
<path style="fill:#008400; fill-opacity:1.0; 
stroke:#008400; stroke-width:0; stroke-opacity:1; 
stroke-linecap:round; stroke-linejoin:round;fill-rule:evenodd;"
d="M 28611.8,25400
27588.2,25400
27588.2,24800
28611.8,24800
Z" /> 
<path style="fill:#008400; fill-opacity:1.0; 
stroke:#008400; stroke-width:0; stroke-opacity:1; 
stroke-linecap:round; stroke-linejoin:round;fill-rule:evenodd;"
d="M 28611.8,26400
27588.2,26400
27588.2,25800
28611.8,25800
Z" /> 
<path style="fill:#008400; fill-opacity:1.0; 
stroke:#008400; stroke-width:0; stroke-opacity:1; 
stroke-linecap:round; stroke-linejoin:round;fill-rule:evenodd;"
d="M 28611.8,27400
27588.2,27400
27588.2,26800
28611.8,26800
Z" /> 
<path style="fill:#008400; fill-opacity:1.0; 
stroke:#008400; stroke-width:0; stroke-opacity:1; 
stroke-linecap:round; stroke-linejoin:round;fill-rule:evenodd;"
d="M 28611.8,28400
27588.2,28400
27588.2,27800
28611.8,27800
Z" /> 
<path style="fill:#008400; fill-opacity:1.0; 
stroke:#008400; stroke-width:0; stroke-opacity:1; 
stroke-linecap:round; stroke-linejoin:round;fill-rule:evenodd;"
d="M 28611.8,29400
27588.2,29400
27588.2,28800
28611.8,28800
Z" /> 
<path style="fill:#008400; fill-opacity:1.0; 
stroke:#008400; stroke-width:0; stroke-opacity:1; 
stroke-linecap:round; stroke-linejoin:round;fill-rule:evenodd;"
d="M 28611.8,30400
27588.2,30400
27588.2,29800
28611.8,29800
Z" /> 
</g>
<g >
</g>
<g style="fill:#848400; fill-opacity:1.0; 
stroke:#848400; stroke-width:0; stroke-opacity:1; 
stroke-linecap:round; stroke-linejoin:round;">
</g>
<g style="fill:#848400; fill-opacity:1.0; 
stroke:#848400; stroke-width:685.039; stroke-opacity:1; 
stroke-linecap:round; stroke-linejoin:round;">
</g>
<g style="fill:#848400; fill-opacity:0.0; 
stroke:#848400; stroke-width:685.039; stroke-opacity:1; 
stroke-linecap:round; stroke-linejoin:round;">
<path d="M31438 27850
L31261 27850
" />
<path d="M31438 26850
L31261 26850
" />
<path d="M31438 25850
L31261 25850
" />
<path d="M31438 24850
L31261 24850
" />
<path d="M31438 23850
L31261 23850
" />
</g>
<g style="fill:#848400; fill-opacity:0.0; 
stroke:#848400; stroke-width:0; stroke-opacity:1; 
stroke-linecap:round; stroke-linejoin:round;">
</g>
<g style="fill:#848400; fill-opacity:1.0; 
stroke:#848400; stroke-width:0; stroke-opacity:1; 
stroke-linecap:round; stroke-linejoin:round;">
<path style="fill:#848400; fill-opacity:1.0; 
stroke:#848400; stroke-width:0; stroke-opacity:1; 
stroke-linecap:round; stroke-linejoin:round;fill-rule:evenodd;"
d="M 31692.3,22508
31701.9,22509.4
31711.2,22511.7
31720.3,22515
31729.1,22519.1
31737.4,22524.1
31745.1,22529.8
31752.3,22536.3
31758.8,22543.5
31764.5,22551.2
31769.5,22559.5
31773.6,22568.2
31776.9,22577.3
31779.2,22586.7
31780.6,22596.3
31781.1,22605.9
31781.1,23094.1
31780.6,23103.7
31779.2,23113.3
31776.9,23122.7
31773.6,23131.8
31769.5,23140.5
31764.5,23148.8
31758.8,23156.5
31752.3,23163.7
31745.1,23170.2
31737.4,23175.9
31729.1,23180.9
31720.3,23185
31711.2,23188.3
31701.9,23190.6
31692.3,23192
31682.7,23192.5
31017.3,23192.5
31007.7,23192
30998.1,23190.6
30988.8,23188.3
30979.7,23185
30970.9,23180.9
30962.6,23175.9
30954.9,23170.2
30947.7,23163.7
30941.2,23156.5
30935.5,23148.8
30930.5,23140.5
30926.4,23131.8
30923.1,23122.7
30920.8,23113.3
30919.4,23103.7
30918.9,23094.1
30918.9,22605.9
30919.4,22596.3
30920.8,22586.7
30923.1,22577.3
30926.4,22568.2
30930.5,22559.5
30935.5,22551.2
30941.2,22543.5
30947.7,22536.3
30954.9,22529.8
30962.6,22524.1
30970.9,22519.1
30979.7,22515
30988.8,22511.7
30998.1,22509.4
31007.7,22508
31017.3,22507.5
31682.7,22507.5
Z" /> 
</g>
<g >
</g>
<g >
</g>
<g >
</g>
</g>
<g style="fill:#000000; fill-opacity:1.0; 
stroke:#000000; stroke-width:0; stroke-opacity:1; 
stroke-linecap:round; stroke-linejoin:round;">
<g >
</g>
<g style="fill:#008400; fill-opacity:1.0; 
stroke:#008400; stroke-width:0; stroke-opacity:1; 
stroke-linecap:round; stroke-linejoin:round;">
<path style="fill:#008400; fill-opacity:1.0; 
stroke:#008400; stroke-width:0; stroke-opacity:1; 
stroke-linecap:round; stroke-linejoin:round;fill-rule:evenodd;"
d="M 28611.8,21400
27588.2,21400
27588.2,20800
28611.8,20800
Z" /> 
<path style="fill:#008400; fill-opacity:1.0; 
stroke:#008400; stroke-width:0; stroke-opacity:1; 
stroke-linecap:round; stroke-linejoin:round;fill-rule:evenodd;"
d="M 28611.8,22400
27588.2,22400
27588.2,21800
28611.8,21800
Z" /> 
<path style="fill:#008400; fill-opacity:1.0; 
stroke:#008400; stroke-width:0; stroke-opacity:1; 
stroke-linecap:round; stroke-linejoin:round;fill-rule:evenodd;"
d="M 28611.8,23400
27588.2,23400
27588.2,22800
28611.8,22800
Z" /> 
<path style="fill:#008400; fill-opacity:1.0; 
stroke:#008400; stroke-width:0; stroke-opacity:1; 
stroke-linecap:round; stroke-linejoin:round;fill-rule:evenodd;"
d="M 28611.8,24400
27588.2,24400
27588.2,23800
28611.8,23800
Z" /> 
<path style="fill:#008400; fill-opacity:1.0; 
stroke:#008400; stroke-width:0; stroke-opacity:1; 
stroke-linecap:round; stroke-linejoin:round;fill-rule:evenodd;"
d="M 28611.8,25400
27588.2,25400
27588.2,24800
28611.8,24800
Z" /> 
<path style="fill:#008400; fill-opacity:1.0; 
stroke:#008400; stroke-width:0; stroke-opacity:1; 
stroke-linecap:round; stroke-linejoin:round;fill-rule:evenodd;"
d="M 28611.8,26400
27588.2,26400
27588.2,25800
28611.8,25800
Z" /> 
<path style="fill:#008400; fill-opacity:1.0; 
stroke:#008400; stroke-width:0; stroke-opacity:1; 
stroke-linecap:round; stroke-linejoin:round;fill-rule:evenodd;"
d="M 28611.8,27400
27588.2,27400
27588.2,26800
28611.8,26800
Z" /> 
<path style="fill:#008400; fill-opacity:1.0; 
stroke:#008400; stroke-width:0; stroke-opacity:1; 
stroke-linecap:round; stroke-linejoin:round;fill-rule:evenodd;"
d="M 28611.8,28400
27588.2,28400
27588.2,27800
28611.8,27800
Z" /> 
<path style="fill:#008400; fill-opacity:1.0; 
stroke:#008400; stroke-width:0; stroke-opacity:1; 
stroke-linecap:round; stroke-linejoin:round;fill-rule:evenodd;"
d="M 28611.8,29400
27588.2,29400
27588.2,28800
28611.8,28800
Z" /> 
<path style="fill:#008400; fill-opacity:1.0; 
stroke:#008400; stroke-width:0; stroke-opacity:1; 
stroke-linecap:round; stroke-linejoin:round;fill-rule:evenodd;"
d="M 28611.8,30400
27588.2,30400
27588.2,29800
28611.8,29800
Z" /> 
</g>
<g >
</g>
<g style="fill:#848400; fill-opacity:1.0; 
stroke:#848400; stroke-width:0; stroke-opacity:1; 
stroke-linecap:round; stroke-linejoin:round;">
</g>
<g style="fill:#848400; fill-opacity:1.0; 
stroke:#848400; stroke-width:685.039; stroke-opacity:1; 
stroke-linecap:round; stroke-linejoin:round;">
</g>
<g style="fill:#848400; fill-opacity:0.0; 
stroke:#848400; stroke-width:685.039; stroke-opacity:1; 
stroke-linecap:round; stroke-linejoin:round;">
<path d="M31438 27850
L31261 27850
" />
<path d="M31438 26850
L31261 26850
" />
<path d="M31438 25850
L31261 25850
" />
<path d="M31438 24850
L31261 24850
" />
<path d="M31438 23850
L31261 23850
" />
</g>
<g style="fill:#848400; fill-opacity:0.0; 
stroke:#848400; stroke-width:0; stroke-opacity:1; 
stroke-linecap:round; stroke-linejoin:round;">
</g>
<g style="fill:#848400; fill-opacity:1.0; 
stroke:#848400; stroke-width:0; stroke-opacity:1; 
stroke-linecap:round; stroke-linejoin:round;">
<path style="fill:#848400; fill-opacity:1.0; 
stroke:#848400; stroke-width:0; stroke-opacity:1; 
stroke-linecap:round; stroke-linejoin:round;fill-rule:evenodd;"
d="M 31692.3,22508
31701.9,22509.4
31711.2,22511.7
31720.3,22515
31729.1,22519.1
31737.4,22524.1
31745.1,22529.8
31752.3,22536.3
31758.8,22543.5
31764.5,22551.2
31769.5,22559.5
31773.6,22568.2
31776.9,22577.3
31779.2,22586.7
31780.6,22596.3
31781.1,22605.9
31781.1,23094.1
31780.6,23103.7
31779.2,23113.3
31776.9,23122.7
31773.6,23131.8
31769.5,23140.5
31764.5,23148.8
31758.8,23156.5
31752.3,23163.7
31745.1,23170.2
31737.4,23175.9
31729.1,23180.9
31720.3,23185
31711.2,23188.3
31701.9,23190.6
31692.3,23192
31682.7,23192.5
31017.3,23192.5
31007.7,23192
30998.1,23190.6
30988.8,23188.3
30979.7,23185
30970.9,23180.9
30962.6,23175.9
30954.9,23170.2
30947.7,23163.7
30941.2,23156.5
30935.5,23148.8
30930.5,23140.5
30926.4,23131.8
30923.1,23122.7
30920.8,23113.3
30919.4,23103.7
30918.9,23094.1
30918.9,22605.9
30919.4,22596.3
30920.8,22586.7
30923.1,22577.3
30926.4,22568.2
30930.5,22559.5
30935.5,22551.2
30941.2,22543.5
30947.7,22536.3
30954.9,22529.8
30962.6,22524.1
30970.9,22519.1
30979.7,22515
30988.8,22511.7
30998.1,22509.4
31007.7,22508
31017.3,22507.5
31682.7,22507.5
Z" /> 
</g>
<g >
</g>
<g style="fill:#C2C2C2; fill-opacity:1.0; 
stroke:#C2C2C2; stroke-width:0; stroke-opacity:1; 
stroke-linecap:round; stroke-linejoin:round;">
<circle cx="29350" cy="24600" r="157.48" /> 
</g>
<g style="fill:#C2C2C2; fill-opacity:1.0; 
stroke:#C2C2C2; stroke-width:39.3701; stroke-opacity:1; 
stroke-linecap:round; stroke-linejoin:round;">
</g>
<g >
</g>
<g style="fill:#008400; fill-opacity:1.0; 
stroke:#008400; stroke-width:39.3701; stroke-opacity:1; 
stroke-linecap:round; stroke-linejoin:round;">
</g>
<g style="fill:#008400; fill-opacity:1.0; 
stroke:#008400; stroke-width:590.551; stroke-opacity:1; 
stroke-linecap:round; stroke-linejoin:round;">
</g>
<g style="fill:#008400; fill-opacity:0.0; 
stroke:#008400; stroke-width:590.551; stroke-opacity:1; 
stroke-linecap:round; stroke-linejoin:round;">
<path d="M29350 23850
L29350 24600
" />
<path d="M31350 23850
L29350 23850
" />
</g>
<g >
</g>
<g style="fill:#008400; fill-opacity:0.0; 
stroke:#008400; stroke-width:590.551; stroke-opacity:1; 
stroke-linecap:round; stroke-linejoin:round;">
<g >
</g>
<g style="fill:#008400; fill-opacity:1.0; 
stroke:#008400; stroke-width:100; stroke-opacity:1; 
stroke-linecap:round; stroke-linejoin:round;">
<path style="fill:#008400; fill-opacity:1.0; 
stroke:#008400; stroke-width:100; stroke-opacity:1; 
stroke-linecap:round; stroke-linejoin:round;fill-rule:evenodd;"
d="M 32340.2,30340.2
27859.8,30340.2
27859.8,25850
30666,25850
30677.5,25966.2
30711.4,26077.8
30766.4,26180.8
30840.4,26271
30930.6,26345
30939.9,26350
30930.6,26355
30840.4,26429
30766.4,26519.2
30711.4,26622.2
30677.5,26733.8
30666,26850
30677.5,26966.2
30711.4,27077.8
30766.4,27180.8
30840.4,27271
30930.6,27345
30939.9,27350
30930.6,27355
30840.4,27429
30766.4,27519.2
30711.4,27622.2
30677.5,27733.8
30666,27850
30677.5,27966.2
30711.4,28077.8
30766.4,28180.8
30840.4,28271
30930.6,28345
31033.6,28400.1
31145.3,28433.9
31232.3,28442.5
31467.7,28442.5
31554.7,28433.9
31666.4,28400.1
31769.4,28345
31859.6,28271
31933.6,28180.8
31988.6,28077.8
32022.5,27966.2
32034,27850
32022.5,27733.8
31988.6,27622.2
31933.6,27519.2
31859.6,27429
31769.4,27355
31760.1,27350
31769.4,27345
31859.6,27271
31933.6,27180.8
31988.6,27077.8
32022.5,26966.2
32034,26850
32022.5,26733.8
31988.6,26622.2
31933.6,26519.2
31859.6,26429
31769.4,26355
31760.1,26350
31769.4,26345
31859.6,26271
31933.6,26180.8
31988.6,26077.8
32022.5,25966.2
32034,25850
32022.5,25733.8
31988.6,25622.2
31933.6,25519.2
31859.6,25429
31769.4,25355
31666.4,25299.9
31554.7,25266.1
31467.7,25257.5
31232.3,25257.5
31145.3,25266.1
31033.6,25299.9
30930.6,25355
30840.4,25429
30766.4,25519.2
30711.4,25622.2
30677.5,25733.8
30666,25850
27859.8,25850
27859.8,23850
28802.1,23850
28804.7,23876.8
28804.7,24626.8
28812.6,24706.9
28843.8,24809.7
28894.4,24904.4
28962.6,24987.4
29045.6,25055.6
29140.3,25106.2
29243.1,25137.4
29350,25147.9
29456.9,25137.4
29559.7,25106.2
29654.4,25055.6
29737.4,24987.4
29805.6,24904.4
29856.2,24809.7
29887.4,24706.9
29895.3,24626.8
29895.3,24395.3
31024.6,24395.3
31033.6,24400.1
31145.3,24433.9
31232.3,24442.5
31467.7,24442.5
31554.7,24433.9
31666.4,24400.1
31769.4,24345
31859.6,24271
31933.6,24180.8
31988.6,24077.8
32022.5,23966.2
32034,23850
32022.5,23733.8
31988.6,23622.2
31933.6,23519.2
31859.6,23429
31833.8,23407.8
31876.9,23384.8
31929.9,23341.3
31973.4,23288.3
32005.7,23227.9
32025.6,23162.3
32032.3,23094.1
32032.3,22605.9
32025.6,22537.7
32005.7,22472.1
31973.4,22411.7
31929.9,22358.7
31876.9,22315.2
31816.5,22282.9
31750.9,22263
31682.7,22256.3
31017.3,22256.3
30949.1,22263
30883.5,22282.9
30823.1,22315.2
30770.1,22358.7
30726.6,22411.7
30694.3,22472.1
30674.4,22537.7
30667.7,22605.9
30667.7,23094.1
30674.4,23162.3
30694.3,23227.9
30726.6,23288.3
30740.1,23304.7
29376.8,23304.7
29350,23302.1
29323.2,23304.7
29243.1,23312.6
29140.3,23343.8
29045.6,23394.4
28962.6,23462.6
28894.4,23545.6
28843.8,23640.3
28812.6,23743.1
28802.1,23850
27859.8,23850
27859.8,21651.2
28611.8,21651.2
28660.8,21646.4
28707.9,21632.1
28751.4,21608.9
28789.4,21577.6
28820.7,21539.6
28843.9,21496.1
28858.2,21449
28863,21400
28863,20800
28858.2,20751
28843.9,20703.9
28820.7,20660.4
28789.4,20622.4
28751.4,20591.1
28707.9,20567.9
28660.8,20553.6
28611.8,20548.8
27859.8,20548.8
27859.8,19759.8
32340.2,19759.8
Z" /> 
</g>
</g>
</g>
<g style="fill:#FFFFFF; fill-opacity:1.0; 
stroke:#FFFFFF; stroke-width:100; stroke-opacity:1; 
stroke-linecap:round; stroke-linejoin:round;">
</g>
<g style="fill:#FFFFFF; fill-opacity:1.0; 
stroke:#FFFFFF; stroke-width:0; stroke-opacity:1; 
stroke-linecap:round; stroke-linejoin:round;">
<circle cx="29350" cy="24600" r="78.7402" /> 
</g>
<g style="fill:#FFFFFF; fill-opacity:1.0; 
stroke:#FFFFFF; stroke-width:39.3701; stroke-opacity:1; 
stroke-linecap:round; stroke-linejoin:round;">
</g>
<g style="fill:#FFFFFF; fill-opacity:1.0; 
stroke:#FFFFFF; stroke-width:0; stroke-opacity:1; 
stroke-linecap:round; stroke-linejoin:round;">
<circle cx="31350" cy="27850" r="234.252" /> 
</g>
<g style="fill:#FFFFFF; fill-opacity:1.0; 
stroke:#FFFFFF; stroke-width:39.3701; stroke-opacity:1; 
stroke-linecap:round; stroke-linejoin:round;">
</g>
<g style="fill:#FFFFFF; fill-opacity:1.0; 
stroke:#FFFFFF; stroke-width:0; stroke-opacity:1; 
stroke-linecap:round; stroke-linejoin:round;">
<circle cx="31350" cy="26850" r="234.252" /> 
</g>
<g style="fill:#FFFFFF; fill-opacity:1.0; 
stroke:#FFFFFF; stroke-width:39.3701; stroke-opacity:1; 
stroke-linecap:round; stroke-linejoin:round;">
</g>
<g style="fill:#FFFFFF; fill-opacity:1.0; 
stroke:#FFFFFF; stroke-width:0; stroke-opacity:1; 
stroke-linecap:round; stroke-linejoin:round;">
<circle cx="31350" cy="25850" r="234.252" /> 
</g>
<g style="fill:#FFFFFF; fill-opacity:1.0; 
stroke:#FFFFFF; stroke-width:39.3701; stroke-opacity:1; 
stroke-linecap:round; stroke-linejoin:round;">
</g>
<g style="fill:#FFFFFF; fill-opacity:1.0; 
stroke:#FFFFFF; stroke-width:0; stroke-opacity:1; 
stroke-linecap:round; stroke-linejoin:round;">
<circle cx="31350" cy="24850" r="234.252" /> 
</g>
<g style="fill:#FFFFFF; fill-opacity:1.0; 
stroke:#FFFFFF; stroke-width:39.3701; stroke-opacity:1; 
stroke-linecap:round; stroke-linejoin:round;">
</g>
<g style="fill:#FFFFFF; fill-opacity:1.0; 
stroke:#FFFFFF; stroke-width:0; stroke-opacity:1; 
stroke-linecap:round; stroke-linejoin:round;">
<circle cx="31350" cy="23850" r="234.252" /> 
</g>
<g style="fill:#FFFFFF; fill-opacity:1.0; 
stroke:#FFFFFF; stroke-width:39.3701; stroke-opacity:1; 
stroke-linecap:round; stroke-linejoin:round;">
</g>
<g style="fill:#FFFFFF; fill-opacity:1.0; 
stroke:#FFFFFF; stroke-width:0; stroke-opacity:1; 
stroke-linecap:round; stroke-linejoin:round;">
<circle cx="31350" cy="22850" r="234.252" /> 
</g>
<g style="fill:#FFFFFF; fill-opacity:1.0; 
stroke:#FFFFFF; stroke-width:39.3701; stroke-opacity:1; 
stroke-linecap:round; stroke-linejoin:round;">
</g>
<g style="fill:#000000; fill-opacity:1.0; 
stroke:#000000; stroke-width:39.3701; stroke-opacity:1; 
stroke-linecap:round; stroke-linejoin:round;">
<g >
</g>
<g style="fill:#840000; fill-opacity:1.0; 
stroke:#840000; stroke-width:39.3701; stroke-opacity:1; 
stroke-linecap:round; stroke-linejoin:round;">
</g>
<g style="fill:#840000; fill-opacity:1.0; 
stroke:#840000; stroke-width:0; stroke-opacity:1; 
stroke-linecap:round; stroke-linejoin:round;">
<path style="fill:#840000; fill-opacity:1.0; 
stroke:#840000; stroke-width:0; stroke-opacity:1; 
stroke-linecap:round; stroke-linejoin:round;fill-rule:evenodd;"
d="M 28611.8,20900
27588.2,20900
27588.2,20300
28611.8,20300
Z" /> 
<path style="fill:#840000; fill-opacity:1.0; 
stroke:#840000; stroke-width:0; stroke-opacity:1; 
stroke-linecap:round; stroke-linejoin:round;fill-rule:evenodd;"
d="M 28611.8,21900
27588.2,21900
27588.2,21300
28611.8,21300
Z" /> 
<path style="fill:#840000; fill-opacity:1.0; 
stroke:#840000; stroke-width:0; stroke-opacity:1; 
stroke-linecap:round; stroke-linejoin:round;fill-rule:evenodd;"
d="M 28611.8,22900
27588.2,22900
27588.2,22300
28611.8,22300
Z" /> 
<path style="fill:#840000; fill-opacity:1.0; 
stroke:#840000; stroke-width:0; stroke-opacity:1; 
stroke-linecap:round; stroke-linejoin:round;fill-rule:evenodd;"
d="M 28611.8,23900
27588.2,23900
27588.2,23300
28611.8,23300
Z" /> 
<path style="fill:#840000; fill-opacity:1.0; 
stroke:#840000; stroke-width:0; stroke-opacity:1; 
stroke-linecap:round; stroke-linejoin:round;fill-rule:evenodd;"
d="M 28611.8,24900
27588.2,24900
27588.2,24300
28611.8,24300
Z" /> 
<path style="fill:#840000; fill-opacity:1.0; 
stroke:#840000; stroke-width:0; stroke-opacity:1; 
stroke-linecap:round; stroke-linejoin:round;fill-rule:evenodd;"
d="M 28611.8,25900
27588.2,25900
27588.2,25300
28611.8,25300
Z" /> 
<path style="fill:#840000; fill-opacity:1.0; 
stroke:#840000; stroke-width:0; stroke-opacity:1; 
stroke-linecap:round; stroke-linejoin:round;fill-rule:evenodd;"
d="M 28611.8,26900
27588.2,26900
27588.2,26300
28611.8,26300
Z" /> 
<path style="fill:#840000; fill-opacity:1.0; 
stroke:#840000; stroke-width:0; stroke-opacity:1; 
stroke-linecap:round; stroke-linejoin:round;fill-rule:evenodd;"
d="M 28611.8,27900
27588.2,27900
27588.2,27300
28611.8,27300
Z" /> 
<path style="fill:#840000; fill-opacity:1.0; 
stroke:#840000; stroke-width:0; stroke-opacity:1; 
stroke-linecap:round; stroke-linejoin:round;fill-rule:evenodd;"
d="M 28611.8,28900
27588.2,28900
27588.2,28300
28611.8,28300
Z" /> 
<path style="fill:#840000; fill-opacity:1.0; 
stroke:#840000; stroke-width:0; stroke-opacity:1; 
stroke-linecap:round; stroke-linejoin:round;fill-rule:evenodd;"
d="M 28611.8,29900
27588.2,29900
27588.2,29300
28611.8,29300
Z" /> 
</g>
<g >
</g>
<g style="fill:#848400; fill-opacity:1.0; 
stroke:#848400; stroke-width:0; stroke-opacity:1; 
stroke-linecap:round; stroke-linejoin:round;">
</g>
<g style="fill:#848400; fill-opacity:1.0; 
stroke:#848400; stroke-width:685.039; stroke-opacity:1; 
stroke-linecap:round; stroke-linejoin:round;">
</g>
<g style="fill:#848400; fill-opacity:0.0; 
stroke:#848400; stroke-width:685.039; stroke-opacity:1; 
stroke-linecap:round; stroke-linejoin:round;">
<path d="M31438 27850
L31261 27850
" />
<path d="M31438 26850
L31261 26850
" />
<path d="M31438 25850
L31261 25850
" />
<path d="M31438 24850
L31261 24850
" />
<path d="M31438 23850
L31261 23850
" />
</g>
<g style="fill:#848400; fill-opacity:0.0; 
stroke:#848400; stroke-width:0; stroke-opacity:1; 
stroke-linecap:round; stroke-linejoin:round;">
</g>
<g style="fill:#848400; fill-opacity:1.0; 
stroke:#848400; stroke-width:0; stroke-opacity:1; 
stroke-linecap:round; stroke-linejoin:round;">
<path style="fill:#848400; fill-opacity:1.0; 
stroke:#848400; stroke-width:0; stroke-opacity:1; 
stroke-linecap:round; stroke-linejoin:round;fill-rule:evenodd;"
d="M 31692.3,22508
31701.9,22509.4
31711.2,22511.7
31720.3,22515
31729.1,22519.1
31737.4,22524.1
31745.1,22529.8
31752.3,22536.3
31758.8,22543.5
31764.5,22551.2
31769.5,22559.5
31773.6,22568.2
31776.9,22577.3
31779.2,22586.7
31780.6,22596.3
31781.1,22605.9
31781.1,23094.1
31780.6,23103.7
31779.2,23113.3
31776.9,23122.7
31773.6,23131.8
31769.5,23140.5
31764.5,23148.8
31758.8,23156.5
31752.3,23163.7
31745.1,23170.2
31737.4,23175.9
31729.1,23180.9
31720.3,23185
31711.2,23188.3
31701.9,23190.6
31692.3,23192
31682.7,23192.5
31017.3,23192.5
31007.7,23192
30998.1,23190.6
30988.8,23188.3
30979.7,23185
30970.9,23180.9
30962.6,23175.9
30954.9,23170.2
30947.7,23163.7
30941.2,23156.5
30935.5,23148.8
30930.5,23140.5
30926.4,23131.8
30923.1,23122.7
30920.8,23113.3
30919.4,23103.7
30918.9,23094.1
30918.9,22605.9
30919.4,22596.3
30920.8,22586.7
30923.1,22577.3
30926.4,22568.2
30930.5,22559.5
30935.5,22551.2
30941.2,22543.5
30947.7,22536.3
30954.9,22529.8
30962.6,22524.1
30970.9,22519.1
30979.7,22515
30988.8,22511.7
30998.1,22509.4
31007.7,22508
31017.3,22507.5
31682.7,22507.5
Z" /> 
</g>
<g >
</g>
<g style="fill:#C2C2C2; fill-opacity:1.0; 
stroke:#C2C2C2; stroke-width:0; stroke-opacity:1; 
stroke-linecap:round; stroke-linejoin:round;">
<circle cx="29350" cy="24600" r="157.48" /> 
</g>
<g style="fill:#C2C2C2; fill-opacity:1.0; 
stroke:#C2C2C2; stroke-width:39.3701; stroke-opacity:1; 
stroke-linecap:round; stroke-linejoin:round;">
</g>
<g >
</g>
<g style="fill:#840000; fill-opacity:1.0; 
stroke:#840000; stroke-width:39.3701; stroke-opacity:1; 
stroke-linecap:round; stroke-linejoin:round;">
</g>
<g style="fill:#840000; fill-opacity:1.0; 
stroke:#840000; stroke-width:590.551; stroke-opacity:1; 
stroke-linecap:round; stroke-linejoin:round;">
</g>
<g style="fill:#840000; fill-opacity:0.0; 
stroke:#840000; stroke-width:590.551; stroke-opacity:1; 
stroke-linecap:round; stroke-linejoin:round;">
<path d="M28100 20600
L30350 20600
" />
<path d="M31350 21600
L31350 22850
" />
<path d="M30350 20600
L31350 21600
" />
<path d="M30269 25790
L30328 25850
" />
<path d="M30328 25850
L31350 25850
" />
<path d="M28100 23600
L30269 23600
" />
<path d="M30269 23600
L30269 25790
" />
<path d="M28100 24600
L29350 24600
" />
<path d="M30850 27850
L31350 27850
" />
<path d="M29850 27850
L30850 27850
" />
<path d="M28100 26600
L29850 26600
" />
<path d="M29850 26600
L29850 27850
" />
<path d="M32350 28850
L32350 26850
" />
<path d="M29100 28850
L32350 28850
" />
<path d="M28100 27600
L29100 27600
" />
<path d="M32350 26850
L31350 26850
" />
<path d="M29100 27600
L29100 28850
" />
</g>
<g >
</g>
</g>
<g style="fill:#FFFFFF; fill-opacity:0.0; 
stroke:#FFFFFF; stroke-width:590.551; stroke-opacity:1; 
stroke-linecap:round; stroke-linejoin:round;">
</g>
<g style="fill:#FFFFFF; fill-opacity:1.0; 
stroke:#FFFFFF; stroke-width:0; stroke-opacity:1; 
stroke-linecap:round; stroke-linejoin:round;">
<circle cx="29350" cy="24600" r="78.7402" /> 
</g>
<g style="fill:#FFFFFF; fill-opacity:1.0; 
stroke:#FFFFFF; stroke-width:39.3701; stroke-opacity:1; 
stroke-linecap:round; stroke-linejoin:round;">
</g>
<g style="fill:#FFFFFF; fill-opacity:1.0; 
stroke:#FFFFFF; stroke-width:0; stroke-opacity:1; 
stroke-linecap:round; stroke-linejoin:round;">
<circle cx="31350" cy="27850" r="234.252" /> 
</g>
<g style="fill:#FFFFFF; fill-opacity:1.0; 
stroke:#FFFFFF; stroke-width:39.3701; stroke-opacity:1; 
stroke-linecap:round; stroke-linejoin:round;">
</g>
<g style="fill:#FFFFFF; fill-opacity:1.0; 
stroke:#FFFFFF; stroke-width:0; stroke-opacity:1; 
stroke-linecap:round; stroke-linejoin:round;">
<circle cx="31350" cy="26850" r="234.252" /> 
</g>
<g style="fill:#FFFFFF; fill-opacity:1.0; 
stroke:#FFFFFF; stroke-width:39.3701; stroke-opacity:1; 
stroke-linecap:round; stroke-linejoin:round;">
</g>
<g style="fill:#FFFFFF; fill-opacity:1.0; 
stroke:#FFFFFF; stroke-width:0; stroke-opacity:1; 
stroke-linecap:round; stroke-linejoin:round;">
<circle cx="31350" cy="25850" r="234.252" /> 
</g>
<g style="fill:#FFFFFF; fill-opacity:1.0; 
stroke:#FFFFFF; stroke-width:39.3701; stroke-opacity:1; 
stroke-linecap:round; stroke-linejoin:round;">
</g>
<g style="fill:#FFFFFF; fill-opacity:1.0; 
stroke:#FFFFFF; stroke-width:0; stroke-opacity:1; 
stroke-linecap:round; stroke-linejoin:round;">
<circle cx="31350" cy="24850" r="234.252" /> 
</g>
<g style="fill:#FFFFFF; fill-opacity:1.0; 
stroke:#FFFFFF; stroke-width:39.3701; stroke-opacity:1; 
stroke-linecap:round; stroke-linejoin:round;">
</g>
<g style="fill:#FFFFFF; fill-opacity:1.0; 
stroke:#FFFFFF; stroke-width:0; stroke-opacity:1; 
stroke-linecap:round; stroke-linejoin:round;">
<circle cx="31350" cy="23850" r="234.252" /> 
</g>
<g style="fill:#FFFFFF; fill-opacity:1.0; 
stroke:#FFFFFF; stroke-width:39.3701; stroke-opacity:1; 
stroke-linecap:round; stroke-linejoin:round;">
</g>
<g style="fill:#FFFFFF; fill-opacity:1.0; 
stroke:#FFFFFF; stroke-width:0; stroke-opacity:1; 
stroke-linecap:round; stroke-linejoin:round;">
<circle cx="31350" cy="22850" r="234.252" /> 
</g>
<g style="fill:#FFFFFF; fill-opacity:1.0; 
stroke:#FFFFFF; stroke-width:39.3701; stroke-opacity:1; 
stroke-linecap:round; stroke-linejoin:round;">
</g>
<g style="fill:#000000; fill-opacity:1.0; 
stroke:#000000; stroke-width:39.3701; stroke-opacity:1; 
stroke-linecap:round; stroke-linejoin:round;">
<g >
</g>
<g style="fill:#840000; fill-opacity:1.0; 
stroke:#840000; stroke-width:39.3701; stroke-opacity:1; 
stroke-linecap:round; stroke-linejoin:round;">
</g>
<g style="fill:#840000; fill-opacity:1.0; 
stroke:#840000; stroke-width:0; stroke-opacity:1; 
stroke-linecap:round; stroke-linejoin:round;">
<path style="fill:#840000; fill-opacity:1.0; 
stroke:#840000; stroke-width:0; stroke-opacity:1; 
stroke-linecap:round; stroke-linejoin:round;fill-rule:evenodd;"
d="M 28611.8,20900
27588.2,20900
27588.2,20300
28611.8,20300
Z" /> 
<path style="fill:#840000; fill-opacity:1.0; 
stroke:#840000; stroke-width:0; stroke-opacity:1; 
stroke-linecap:round; stroke-linejoin:round;fill-rule:evenodd;"
d="M 28611.8,21900
27588.2,21900
27588.2,21300
28611.8,21300
Z" /> 
<path style="fill:#840000; fill-opacity:1.0; 
stroke:#840000; stroke-width:0; stroke-opacity:1; 
stroke-linecap:round; stroke-linejoin:round;fill-rule:evenodd;"
d="M 28611.8,22900
27588.2,22900
27588.2,22300
28611.8,22300
Z" /> 
<path style="fill:#840000; fill-opacity:1.0; 
stroke:#840000; stroke-width:0; stroke-opacity:1; 
stroke-linecap:round; stroke-linejoin:round;fill-rule:evenodd;"
d="M 28611.8,23900
27588.2,23900
27588.2,23300
28611.8,23300
Z" /> 
<path style="fill:#840000; fill-opacity:1.0; 
stroke:#840000; stroke-width:0; stroke-opacity:1; 
stroke-linecap:round; stroke-linejoin:round;fill-rule:evenodd;"
d="M 28611.8,24900
27588.2,24900
27588.2,24300
28611.8,24300
Z" /> 
<path style="fill:#840000; fill-opacity:1.0; 
stroke:#840000; stroke-width:0; stroke-opacity:1; 
stroke-linecap:round; stroke-linejoin:round;fill-rule:evenodd;"
d="M 28611.8,25900
27588.2,25900
27588.2,25300
28611.8,25300
Z" /> 
<path style="fill:#840000; fill-opacity:1.0; 
stroke:#840000; stroke-width:0; stroke-opacity:1; 
stroke-linecap:round; stroke-linejoin:round;fill-rule:evenodd;"
d="M 28611.8,26900
27588.2,26900
27588.2,26300
28611.8,26300
Z" /> 
<path style="fill:#840000; fill-opacity:1.0; 
stroke:#840000; stroke-width:0; stroke-opacity:1; 
stroke-linecap:round; stroke-linejoin:round;fill-rule:evenodd;"
d="M 28611.8,27900
27588.2,27900
27588.2,27300
28611.8,27300
Z" /> 
<path style="fill:#840000; fill-opacity:1.0; 
stroke:#840000; stroke-width:0; stroke-opacity:1; 
stroke-linecap:round; stroke-linejoin:round;fill-rule:evenodd;"
d="M 28611.8,28900
27588.2,28900
27588.2,28300
28611.8,28300
Z" /> 
<path style="fill:#840000; fill-opacity:1.0; 
stroke:#840000; stroke-width:0; stroke-opacity:1; 
stroke-linecap:round; stroke-linejoin:round;fill-rule:evenodd;"
d="M 28611.8,29900
27588.2,29900
27588.2,29300
28611.8,29300
Z" /> 
</g>
<g >
</g>
<g style="fill:#848400; fill-opacity:1.0; 
stroke:#848400; stroke-width:0; stroke-opacity:1; 
stroke-linecap:round; stroke-linejoin:round;">
</g>
<g style="fill:#848400; fill-opacity:1.0; 
stroke:#848400; stroke-width:685.039; stroke-opacity:1; 
stroke-linecap:round; stroke-linejoin:round;">
</g>
<g style="fill:#848400; fill-opacity:0.0; 
stroke:#848400; stroke-width:685.039; stroke-opacity:1; 
stroke-linecap:round; stroke-linejoin:round;">
<path d="M31438 27850
L31261 27850
" />
<path d="M31438 26850
L31261 26850
" />
<path d="M31438 25850
L31261 25850
" />
<path d="M31438 24850
L31261 24850
" />
<path d="M31438 23850
L31261 23850
" />
</g>
<g style="fill:#848400; fill-opacity:0.0; 
stroke:#848400; stroke-width:0; stroke-opacity:1; 
stroke-linecap:round; stroke-linejoin:round;">
</g>
<g style="fill:#848400; fill-opacity:1.0; 
stroke:#848400; stroke-width:0; stroke-opacity:1; 
stroke-linecap:round; stroke-linejoin:round;">
<path style="fill:#848400; fill-opacity:1.0; 
stroke:#848400; stroke-width:0; stroke-opacity:1; 
stroke-linecap:round; stroke-linejoin:round;fill-rule:evenodd;"
d="M 31692.3,22508
31701.9,22509.4
31711.2,22511.7
31720.3,22515
31729.1,22519.1
31737.4,22524.1
31745.1,22529.8
31752.3,22536.3
31758.8,22543.5
31764.5,22551.2
31769.5,22559.5
31773.6,22568.2
31776.9,22577.3
31779.2,22586.7
31780.6,22596.3
31781.1,22605.9
31781.1,23094.1
31780.6,23103.7
31779.2,23113.3
31776.9,23122.7
31773.6,23131.8
31769.5,23140.5
31764.5,23148.8
31758.8,23156.5
31752.3,23163.7
31745.1,23170.2
31737.4,23175.9
31729.1,23180.9
31720.3,23185
31711.2,23188.3
31701.9,23190.6
31692.3,23192
31682.7,23192.5
31017.3,23192.5
31007.7,23192
30998.1,23190.6
30988.8,23188.3
30979.7,23185
30970.9,23180.9
30962.6,23175.9
30954.9,23170.2
30947.7,23163.7
30941.2,23156.5
30935.5,23148.8
30930.5,23140.5
30926.4,23131.8
30923.1,23122.7
30920.8,23113.3
30919.4,23103.7
30918.9,23094.1
30918.9,22605.9
30919.4,22596.3
30920.8,22586.7
30923.1,22577.3
30926.4,22568.2
30930.5,22559.5
30935.5,22551.2
30941.2,22543.5
30947.7,22536.3
30954.9,22529.8
30962.6,22524.1
30970.9,22519.1
30979.7,22515
30988.8,22511.7
30998.1,22509.4
31007.7,22508
31017.3,22507.5
31682.7,22507.5
Z" /> 
</g>
<g >
</g>
<g >
</g>
<g >
</g>
</g>
<g style="fill:#000000; fill-opacity:1.0; 
stroke:#000000; stroke-width:0; stroke-opacity:1; 
stroke-linecap:round; stroke-linejoin:round;">
<g >
</g>
<g style="fill:#840000; fill-opacity:1.0; 
stroke:#840000; stroke-width:0; stroke-opacity:1; 
stroke-linecap:round; stroke-linejoin:round;">
<path style="fill:#840000; fill-opacity:1.0; 
stroke:#840000; stroke-width:0; stroke-opacity:1; 
stroke-linecap:round; stroke-linejoin:round;fill-rule:evenodd;"
d="M 28611.8,20900
27588.2,20900
27588.2,20300
28611.8,20300
Z" /> 
<path style="fill:#840000; fill-opacity:1.0; 
stroke:#840000; stroke-width:0; stroke-opacity:1; 
stroke-linecap:round; stroke-linejoin:round;fill-rule:evenodd;"
d="M 28611.8,21900
27588.2,21900
27588.2,21300
28611.8,21300
Z" /> 
<path style="fill:#840000; fill-opacity:1.0; 
stroke:#840000; stroke-width:0; stroke-opacity:1; 
stroke-linecap:round; stroke-linejoin:round;fill-rule:evenodd;"
d="M 28611.8,22900
27588.2,22900
27588.2,22300
28611.8,22300
Z" /> 
<path style="fill:#840000; fill-opacity:1.0; 
stroke:#840000; stroke-width:0; stroke-opacity:1; 
stroke-linecap:round; stroke-linejoin:round;fill-rule:evenodd;"
d="M 28611.8,23900
27588.2,23900
27588.2,23300
28611.8,23300
Z" /> 
<path style="fill:#840000; fill-opacity:1.0; 
stroke:#840000; stroke-width:0; stroke-opacity:1; 
stroke-linecap:round; stroke-linejoin:round;fill-rule:evenodd;"
d="M 28611.8,24900
27588.2,24900
27588.2,24300
28611.8,24300
Z" /> 
<path style="fill:#840000; fill-opacity:1.0; 
stroke:#840000; stroke-width:0; stroke-opacity:1; 
stroke-linecap:round; stroke-linejoin:round;fill-rule:evenodd;"
d="M 28611.8,25900
27588.2,25900
27588.2,25300
28611.8,25300
Z" /> 
<path style="fill:#840000; fill-opacity:1.0; 
stroke:#840000; stroke-width:0; stroke-opacity:1; 
stroke-linecap:round; stroke-linejoin:round;fill-rule:evenodd;"
d="M 28611.8,26900
27588.2,26900
27588.2,26300
28611.8,26300
Z" /> 
<path style="fill:#840000; fill-opacity:1.0; 
stroke:#840000; stroke-width:0; stroke-opacity:1; 
stroke-linecap:round; stroke-linejoin:round;fill-rule:evenodd;"
d="M 28611.8,27900
27588.2,27900
27588.2,27300
28611.8,27300
Z" /> 
<path style="fill:#840000; fill-opacity:1.0; 
stroke:#840000; stroke-width:0; stroke-opacity:1; 
stroke-linecap:round; stroke-linejoin:round;fill-rule:evenodd;"
d="M 28611.8,28900
27588.2,28900
27588.2,28300
28611.8,28300
Z" /> 
<path style="fill:#840000; fill-opacity:1.0; 
stroke:#840000; stroke-width:0; stroke-opacity:1; 
stroke-linecap:round; stroke-linejoin:round;fill-rule:evenodd;"
d="M 28611.8,29900
27588.2,29900
27588.2,29300
28611.8,29300
Z" /> 
</g>
<g >
</g>
<g >
</g>
<g >
</g>
<g >
</g>
</g>
<g style="fill:#000000; fill-opacity:1.0; 
stroke:#000000; stroke-width:0; stroke-opacity:1; 
stroke-linecap:round; stroke-linejoin:round;">
</g>
<g style="fill:#008484; fill-opacity:1.0; 
stroke:#008484; stroke-width:0; stroke-opacity:1; 
stroke-linecap:round; stroke-linejoin:round;">
</g>
<g style="fill:#008484; fill-opacity:0.0; 
stroke:#008484; stroke-width:0; stroke-opacity:1; 
stroke-linecap:round; stroke-linejoin:round;">
</g>
<g style="fill:#008484; fill-opacity:0.0; 
stroke:#008484; stroke-width:59.0551; stroke-opacity:1; 
stroke-linecap:round; stroke-linejoin:round;">
<g transform="rotate(-90 32300 20100)">
<text x="32300" y="20257.5"
textLength="1171.63" font-size="419.947" lengthAdjust="spacingAndGlyphs"
text-anchor="middle" opacity="0">RevA</text>
</g>
<path d="M32442 20392
L32292 20497
" />
<path d="M32442 20572
L32127 20572
L32127 20452
L32142 20422
L32157 20407
L32187 20392
L32232 20392
L32262 20407
L32277 20422
L32292 20452
L32292 20572
" />
<path d="M32427 20137
L32442 20167
L32442 20227
L32427 20257
L32397 20272
L32277 20272
L32247 20257
L32232 20227
L32232 20167
L32247 20137
L32277 20122
L32307 20122
L32337 20272
" />
<path d="M32232 20017
L32442 19942
L32232 19867
" />
<path d="M32352 19762
L32352 19612
" />
<path d="M32442 19792
L32127 19687
L32442 19582
" />
<text x="29200" y="29757.5"
textLength="676.697" font-size="419.947" lengthAdjust="spacingAndGlyphs"
text-anchor="middle" opacity="0">19</text>
<path d="M29140 29742
L28960 29742
" />
<path d="M29050 29742
L29050 29427
L29020 29472
L28990 29502
L28960 29517
" />
<path d="M29289 29742
L29349 29742
L29379 29727
L29394 29712
L29424 29667
L29439 29607
L29439 29487
L29424 29457
L29409 29442
L29379 29427
L29319 29427
L29289 29442
L29274 29457
L29259 29487
L29259 29562
L29274 29592
L29289 29607
L29319 29622
L29379 29622
L29409 29607
L29424 29592
L29439 29562
" />
<text x="29400" y="26057.5"
textLength="1171.63" font-size="419.947" lengthAdjust="spacingAndGlyphs"
text-anchor="middle" opacity="0">SDIO</text>
<path d="M28912 26027
L28957 26042
L29032 26042
L29062 26027
L29077 26012
L29092 25982
L29092 25952
L29077 25922
L29062 25907
L29032 25892
L28972 25877
L28942 25862
L28927 25847
L28912 25817
L28912 25787
L28927 25757
L28942 25742
L28972 25727
L29047 25727
L29092 25742
" />
<path d="M29227 26042
L29227 25727
L29302 25727
L29347 25742
L29377 25772
L29392 25802
L29407 25862
L29407 25907
L29392 25967
L29377 25997
L29347 26027
L29302 26042
L29227 26042
" />
<path d="M29542 26042
L29542 25727
" />
<path d="M29752 25727
L29812 25727
L29842 25742
L29872 25772
L29887 25832
L29887 25937
L29872 25997
L29842 26027
L29812 26042
L29752 26042
L29722 26027
L29692 25997
L29677 25937
L29677 25832
L29692 25772
L29722 25742
L29752 25727
" />
<text x="29400" y="28057.5"
textLength="1066.65" font-size="419.947" lengthAdjust="spacingAndGlyphs"
text-anchor="middle" opacity="0">SWO</text>
<path d="M28965 28027
L29010 28042
L29085 28042
L29115 28027
L29130 28012
L29145 27982
L29145 27952
L29130 27922
L29115 27907
L29085 27892
L29025 27877
L28995 27862
L28980 27847
L28965 27817
L28965 27787
L28980 27757
L28995 27742
L29025 27727
L29100 27727
L29145 27742
" />
<path d="M29250 27727
L29325 28042
L29385 27817
L29444 28042
L29519 27727
" />
<path d="M29699 27727
L29759 27727
L29789 27742
L29819 27772
L29834 27832
L29834 27937
L29819 27997
L29789 28027
L29759 28042
L29699 28042
L29669 28027
L29639 27997
L29624 27937
L29624 27832
L29639 27772
L29669 27742
L29699 27727
" />
<text x="29400" y="27057.5"
textLength="931.665" font-size="419.947" lengthAdjust="spacingAndGlyphs"
text-anchor="middle" opacity="0">RST</text>
<path d="M29227 27042
L29122 26892
" />
<path d="M29047 27042
L29047 26727
L29167 26727
L29197 26742
L29212 26757
L29227 26787
L29227 26832
L29212 26862
L29197 26877
L29167 26892
L29047 26892
" />
<path d="M29347 27027
L29392 27042
L29467 27042
L29497 27027
L29512 27012
L29527 26982
L29527 26952
L29512 26922
L29497 26907
L29467 26892
L29407 26877
L29377 26862
L29362 26847
L29347 26817
L29347 26787
L29362 26757
L29377 26742
L29407 26727
L29482 26727
L29527 26742
" />
<path d="M29617 26727
L29797 26727
" />
<path d="M29707 27042
L29707 26727
" />
<text x="29400" y="24007.5"
textLength="961.661" font-size="419.947" lengthAdjust="spacingAndGlyphs"
text-anchor="middle" opacity="0">CLK</text>
<path d="M29212 23962
L29197 23977
L29152 23992
L29122 23992
L29077 23977
L29047 23947
L29032 23917
L29017 23857
L29017 23812
L29032 23752
L29047 23722
L29077 23692
L29122 23677
L29152 23677
L29197 23692
L29212 23707
" />
<path d="M29497 23992
L29347 23992
L29347 23677
" />
<path d="M29602 23992
L29602 23677
" />
<path d="M29782 23992
L29647 23812
" />
<path d="M29782 23677
L29602 23857
" />
<text x="29400" y="23007.5"
textLength="946.663" font-size="419.947" lengthAdjust="spacingAndGlyphs"
text-anchor="middle" opacity="0">3V3</text>
<path d="M29010 22677
L29205 22677
L29100 22797
L29145 22797
L29175 22812
L29190 22827
L29205 22857
L29205 22932
L29190 22962
L29175 22977
L29145 22992
L29055 22992
L29025 22977
L29010 22962
" />
<path d="M29295 22677
L29400 22992
L29504 22677
" />
<path d="M29579 22677
L29774 22677
L29669 22797
L29714 22797
L29744 22812
L29759 22827
L29774 22857
L29774 22932
L29759 22962
L29744 22977
L29714 22992
L29624 22992
L29594 22977
L29579 22962
" />
<text x="31400" y="30457.5"
textLength="2461.47" font-size="419.947" lengthAdjust="spacingAndGlyphs"
text-anchor="middle" opacity="0">&lt;-- SWD</text>
<path d="M30522 30232
L30282 30322
L30522 30412
" />
<path d="M30672 30322
L30912 30322
" />
<path d="M31062 30322
L31302 30322
" />
<path d="M31677 30427
L31722 30442
L31797 30442
L31827 30427
L31842 30412
L31857 30382
L31857 30352
L31842 30322
L31827 30307
L31797 30292
L31737 30277
L31707 30262
L31692 30247
L31677 30217
L31677 30187
L31692 30157
L31707 30142
L31737 30127
L31812 30127
L31857 30142
" />
<path d="M31962 30127
L32037 30442
L32097 30217
L32157 30442
L32232 30127
" />
<path d="M32352 30442
L32352 30127
L32427 30127
L32472 30142
L32502 30172
L32517 30202
L32532 30262
L32532 30307
L32517 30367
L32502 30397
L32472 30427
L32427 30442
L32352 30442
" />
<text x="28900" y="19957.5"
textLength="2551.46" font-size="419.947" lengthAdjust="spacingAndGlyphs"
text-anchor="middle" opacity="0">JTAG --&gt;</text>
<path d="M27827 19627
L27827 19852
L27812 19897
L27782 19927
L27737 19942
L27707 19942
" />
<path d="M27932 19627
L28112 19627
" />
<path d="M28022 19942
L28022 19627
" />
<path d="M28202 19852
L28352 19852
" />
<path d="M28172 19942
L28277 19627
L28382 19942
" />
<path d="M28652 19642
L28622 19627
L28577 19627
L28532 19642
L28502 19672
L28487 19702
L28472 19762
L28472 19807
L28487 19867
L28502 19897
L28532 19927
L28577 19942
L28607 19942
L28652 19927
L28667 19912
L28667 19807
L28607 19807
" />
<path d="M29042 19822
L29282 19822
" />
<path d="M29432 19822
L29672 19822
" />
<path d="M29822 19732
L30062 19822
L29822 19912
" />
<text x="29100" y="20757.5"
textLength="376.734" font-size="419.947" lengthAdjust="spacingAndGlyphs"
text-anchor="middle" opacity="0">1</text>
<path d="M29189 20742
L29010 20742
" />
<path d="M29100 20742
L29100 20427
L29070 20472
L29040 20502
L29010 20517
" />
</g>
<g style="fill:#008484; fill-opacity:0.0; 
stroke:#008484; stroke-width:47.2441; stroke-opacity:1; 
stroke-linecap:round; stroke-linejoin:round;">
<path d="M28700 30500
L28700 20200
" />
<path d="M28700 20200
L27600 20200
" />
<path d="M28700 30500
L27600 30500
" />
<path d="M32306 28164
L32542 28164
" />
<path d="M32306 27535
L32306 28164
" />
<path d="M32542 27535
L32306 27535
" />
<path d="M32306 27164
L32542 27164
" />
<path d="M32306 26535
L32306 27164
" />
<path d="M32542 26535
L32306 26535
" />
<path d="M32306 26164
L32542 26164
" />
<path d="M32306 25535
L32306 26164
" />
<path d="M32542 25535
L32306 25535
" />
<path d="M32306 25164
L32542 25164
" />
<path d="M32306 24535
L32306 25164
" />
<path d="M32542 24535
L32306 24535
" />
<path d="M32306 24164
L32542 24164
" />
<path d="M32306 23535
L32306 24164
" />
<path d="M32542 23535
L32306 23535
" />
<path d="M32306 23164
L32542 23164
" />
<path d="M32306 22535
L32306 23164
" />
<path d="M32542 22535
L32306 22535
" />
<path d="M30172 27751
L30566 27751
" />
<path d="M30172 22948
L30566 22948
" />
<path d="M30775 27751
L30566 27850
" />
<path d="M30775 22948
L30775 27751
" />
<path d="M30566 22850
L30775 22948
" />
<path d="M30566 27850
L30172 27850
" />
<path d="M30566 22850
L30566 27850
" />
<path d="M30172 22850
L30566 22850
" />
<path d="M32137 22192
L30562 22192
" />
<path d="M32542 28393
L32542 22306
" />
<path d="M30172 28393
L32542 28393
" />
<path d="M30172 22306
L30172 28393
" />
<path d="M32542 22306
L30172 22306
" />
<g >
</g>
</g>
<g style="fill:#000000; fill-opacity:0.0; 
stroke:#000000; stroke-width:47.2441; stroke-opacity:1; 
stroke-linecap:round; stroke-linejoin:round;">
<g >
</g>
<g >
</g>
<g >
</g>
<g >
</g>
<g >
</g>
</g>
<g style="fill:#000000; fill-opacity:0.0; 
stroke:#000000; stroke-width:47.2441; stroke-opacity:1; 
stroke-linecap:round; stroke-linejoin:round;">
</g>
<g style="fill:#C2C2C2; fill-opacity:0.0; 
stroke:#C2C2C2; stroke-width:47.2441; stroke-opacity:1; 
stroke-linecap:round; stroke-linejoin:round;">
<path d="M27600 20150
L28750 20150
" />
<path d="M28750 20150
L28750 30550
" />
<path d="M27600 30550
L28750 30550
" />
</g>
<g style="fill:#C2C2C2; fill-opacity:0.0; 
stroke:#C2C2C2; stroke-width:19.685; stroke-opacity:1; 
stroke-linecap:round; stroke-linejoin:round;">
<path d="M32696 28546
L32696 22153
" />
<path d="M30019 28546
L32696 28546
" />
<path d="M30019 22153
L30019 28546
" />
<path d="M32696 22153
L30019 22153
" />
<g >
</g>
<g >
</g>
<g >
</g>
</g>
<g style="fill:#000000; fill-opacity:0.0; 
stroke:#000000; stroke-width:19.685; stroke-opacity:1; 
stroke-linecap:round; stroke-linejoin:round;">
<g >
</g>
<g >
</g>
<g >
</g>
</g>
<g style="fill:#000000; fill-opacity:0.0; 
stroke:#000000; stroke-width:19.685; stroke-opacity:1; 
stroke-linecap:round; stroke-linejoin:round;">
<g >
</g>
<g >
</g>
<g >
</g>
</g>
<g style="fill:#000000; fill-opacity:0.0; 
stroke:#000000; stroke-width:19.685; stroke-opacity:1; 
stroke-linecap:round; stroke-linejoin:round;">
<g >
</g>
<g >
</g>
<g >
</g>
</g>
<g style="fill:#000000; fill-opacity:0.0; 
stroke:#000000; stroke-width:19.685; stroke-opacity:1; 
stroke-linecap:round; stroke-linejoin:round;">
<g >
</g>
<g >
</g>
<g >
</g>
</g>
<g style="fill:#000000; fill-opacity:0.0; 
stroke:#000000; stroke-width:19.685; stroke-opacity:1; 
stroke-linecap:round; stroke-linejoin:round;">
<g >
</g>
<g >
</g>
<g >
</g>
</g>
<g style="fill:#000000; fill-opacity:0.0; 
stroke:#000000; stroke-width:19.685; stroke-opacity:1; 
stroke-linecap:round; stroke-linejoin:round;">
</g>
<g style="fill:#C2C200; fill-opacity:0.0; 
stroke:#C2C200; stroke-width:19.685; stroke-opacity:1; 
stroke-linecap:round; stroke-linejoin:round;">
<path d="M27600 30600
L27600 19500
" />
<path d="M27600 30600
L32600 30600
" />
<path d="M32600 19500
L32600 30600
" />
<path d="M27600 19500
L32600 19500
" />
<g >
</g>
<g >
</g>
<g >
</g>
</g> 
</svg>
